SplineFontDB: 3.0
FontName: ParibartanS
FullName: ParibartanS
FamilyName: Paribartan
Weight: Regular
Copyright: Copyright 2024 The Paribartan Project Authors (github.com/mitradranirban/paribartan)
Version: 0.100
ItalicAngle: 0
UnderlinePosition: 0
UnderlineWidth: 0
Ascent: 800
Descent: 200
InvalidEm: 1
UFOAscent: 1200
UFODescent: -400
LayerCount: 2
Layer: 0 0 "Back" 1
Layer: 1 0 "public.default" 0 "glyphs"
StyleMap: 0x0040
FSType: 0
OS2Version: 0
OS2_WeightWidthSlopeOnly: 0
OS2_UseTypoMetrics: 0
CreationTime: 1734972326
ModificationTime: 1735883226
PfmFamily: 16
TTFWeight: 400
TTFWidth: 5
LineGap: 0
VLineGap: 0
Panose: 2 0 5 3 0 0 0 0 0 0
OS2TypoAscent: 1200
OS2TypoAOffset: 0
OS2TypoDescent: -400
OS2TypoDOffset: 0
OS2TypoLinegap: 0
OS2WinAscent: 1240
OS2WinAOffset: 0
OS2WinDescent: 440
OS2WinDOffset: 0
HheadAscent: 1200
HheadAOffset: 0
HheadDescent: -400
HheadDOffset: 0
OS2SubXSize: 650
OS2SubYSize: 700
OS2SubXOff: 0
OS2SubYOff: 140
OS2SupXSize: 650
OS2SupYSize: 700
OS2SupXOff: 0
OS2SupYOff: 480
OS2StrikeYSize: 49
OS2StrikeYPos: 258
OS2CapHeight: 710
OS2XHeight: 570
OS2Vendor: 'anir'
OS2CodePages: 00000093.00000000
OS2UnicodeRanges: 2003806f.00002002.00000000.00000000
Lookup: 4 0 0 "nuktNuktaFormsinBengali2lookup0" { "nuktNuktaFormsinBengali2lookup0 subtable"  } ['nukt' ('bng2' <'dflt' > 'DFLT' <'dflt' > ) ]
Lookup: 4 0 0 "'akhn' Akhand in Bengali2 lookup 0" { "'akhn' Akhand in Bengali2 lookup 0-1"  } ['akhn' ('DFLT' <'dflt' > 'bng2' <'dflt' > ) ]
Lookup: 4 0 0 "rphfRephForminBengali2lookup0" { "rphfRephForminBengali2lookup0 subtable"  } ['rphf' ('bng2' <'dflt' > 'DFLT' <'dflt' > ) ]
Lookup: 4 0 0 "'blwf' Below Base Forms in Bengali2 lookup 0" { "'blwf' Below Base Forms in Bengali2 lookup 0-1"  } ['blwf' ('DFLT' <'dflt' > 'bng2' <'dflt' > ) ]
Lookup: 4 0 0 "'pstf' Post Base Forms in Bengali2 lookup 0" { "'pstf' Post Base Forms in Bengali2 lookup 0-1"  } ['pstf' ('DFLT' <'dflt' > 'bng2' <'dflt' > ) ]

StartChar: .notdef
Encoding: 0 -1 0
GlifName: _notdef
Width: 1000
VWidth: 0
Flags: HW
LayerCount: 2
Fore
SplineSet
208 794 m 257
 668 794 l 257
 672 794 675.5 792.5 678.5 789.5 c 128
 681.5 786.5 683 783 683 779 c 257
 683 15 l 257
 683 11 681.5 7.5 678.5 4.5 c 128
 675.5 1.5 672 0 668 0 c 257
 208 0 l 257
 204 0 200.5 1.5 197.5 4.5 c 128
 194.5 7.5 193 11 193 15 c 257
 193 779 l 257
 193 783 194.5 786.5 197.5 789.5 c 128
 200.5 792.5 204 794 208 794 c 257
258 732 m 257
 254 732 250.5 730.5 247.5 727.5 c 128
 244.5 724.5 243 721 243 717 c 257
 243 81 l 257
 243 77 244.5 73.5 247.5 70.5 c 128
 250.5 67.5 254 66 258 66 c 257
 620 66 l 257
 624 66 627.5 67.5 630.5 70.5 c 128
 633.5 73.5 635 77 635 81 c 257
 635 717 l 257
 635 721 633.5 724.5 630.5 727.5 c 128
 627.5 730.5 624 732 620 732 c 257
 258 732 l 257
371 621 m 257
 375 621 375 621 384 621 c 257
 420 621 450.5 608.5 475.5 583.5 c 128
 500.5 558.5 513 528.333333333 513 493 c 257
 513 469 507 447 495 427 c 128
 483 407 467 391.333333333 447 380 c 257
 447 322 l 257
 371 322 l 257
 371 364 l 257
 371 427 l 257
 371 441 l 257
 375 439.666666667 379.333333333 439 384 439 c 257
 398.666666667 439 411.333333333 444.166666667 422 454.5 c 128
 432.666666667 464.833333333 438 477.666666667 438 493 c 257
 438 507.666666667 432.666666667 520.166666667 422 530.5 c 128
 411.333333333 540.833333333 398.666666667 546 384 546 c 257
 379.333333333 546 375 545.333333333 371 544 c 257
 371 621 l 257
371 206 m 257
 371 277 l 257
 447 277 l 257
 447 206 l 257
 371 206 l 257
EndSplineSet
EndChar

StartChar: A
Encoding: 2 65 2
GlifName: A_
Width: 752
VWidth: 0
GlyphClass: 2
Flags: HW
LayerCount: 2
Fore
SplineSet
407 367 m 257
 357 535 l 257
 297 367 l 257
 407 367 l 257
550 0 m 257
 461 228 l 257
 461 227 l 257
 261 227 l 257
 202 0 l 257
 50 0 l 257
 266 769 l 257
 418 769 l 257
 702 0 l 257
 550 0 l 257
EndSplineSet
EndChar

StartChar: AE
Encoding: 6 198 6
GlifName: A_E_
Width: 1024
VWidth: 0
GlyphClass: 2
Flags: HW
LayerCount: 2
Fore
SplineSet
865 485 m 257
 866 333 l 257
 558 333 l 257
 558 149 l 257
 973 149 l 257
 974 -3 l 257
 407 -3 l 257
 407 -2 l 257
 406 -2 l 257
 406 227 l 257
 261 227 l 257
 202 0 l 257
 50 0 l 257
 250 778 l 257
 973 778 l 257
 974 626 l 257
 558 626 l 257
 558 485 l 257
 865 485 l 257
407 367 m 257
 341 535 l 257
 297 367 l 257
 407 367 l 257
EndSplineSet
EndChar

StartChar: B
Encoding: 46 66 46
GlifName: B_
Width: 534
VWidth: 0
GlyphClass: 2
Flags: HW
LayerCount: 2
Fore
SplineSet
202 454 m 257
 210 452 218 451 226 451 c 257
 256 451 281.333333333 461.333333333 302 482 c 128
 322.666666667 502.666666667 333 527.666666667 333 557 c 257
 333 587 322.666666667 612.333333333 302 633 c 128
 281.333333333 653.666666667 256 664 226 664 c 257
 218 664 210 663 202 661 c 257
 202 454 l 257
202 136 m 257
 210 134 218 133 226 133 c 257
 256 133 281.333333333 143.333333333 302 164 c 128
 322.666666667 184.666666667 333 209.666666667 333 239 c 257
 333 269 322.666666667 294.333333333 302 315 c 128
 281.333333333 335.666666667 256 346 226 346 c 257
 218 346 210 345 202 343 c 257
 202 136 l 257
202 780 m 257
 208 780 208 780 220 780 c 257
 291.333333333 780 352.166666667 754.833333333 402.5 704.5 c 128
 452.833333333 654.166666667 478 593.333333333 478 522 c 257
 478 506.666666667 473.333333333 491.666666667 464 477 c 128
 454.666666667 462.333333333 441.833333333 446.333333333 425.5 429 c 128
 409.166666667 411.666666667 399 400.666666667 395 396 c 257
 396.333333333 394.666666667 407.166666667 383.333333333 427.5 362 c 128
 447.833333333 340.666666667 462.333333333 322.5 471 307.5 c 128
 479.666666667 292.5 484 276.666666667 484 260 c 257
 484 188.666666667 458.833333333 128 408.5 78 c 128
 358.166666667 28 297.333333333 3 226 3 c 257
 215.333333333 3 207.333333333 3.33333333333 202 4 c 257
 50 4 l 257
 50 780 l 257
 202 780 l 257
EndSplineSet
EndChar

StartChar: C
Encoding: 50 67 50
GlifName: C_
Width: 555
VWidth: 0
GlyphClass: 2
Flags: HW
LayerCount: 2
Fore
SplineSet
432 612 m 257
 368.666666667 612 314.666666667 589.166666667 270 543.5 c 128
 225.333333333 497.833333333 203 442.666666667 203 378 c 257
 203 312.666666667 225.333333333 257.166666667 270 211.5 c 128
 314.666666667 165.833333333 368.666666667 143 432 143 c 257
 457.333333333 143 481.666666667 147 505 155 c 257
 505 -7 l 257
 481 -11.6666666667 456.666666667 -14 432 -14 c 257
 326.666666667 -14 236.666666667 24.5 162 101.5 c 128
 87.3333333333 178.5 50 271.333333333 50 380 c 128
 50 488.666666667 87.3333333333 581.333333333 162 658 c 128
 236.666666667 734.666666667 326.666666667 773 432 773 c 257
 456.666666667 773 481 770.666666667 505 766 c 257
 505 600 l 257
 481.666666667 608 457.333333333 612 432 612 c 257
EndSplineSet
EndChar

StartChar: D
Encoding: 74 68 74
GlifName: D_
Width: 630
VWidth: 0
GlyphClass: 2
Flags: HW
LayerCount: 2
Fore
SplineSet
202 143 m 257
 264.666666667 144.333333333 317.833333333 167.833333333 361.5 213.5 c 128
 405.166666667 259.166666667 427 314 427 378 c 257
 427 442 405.166666667 496.666666667 361.5 542 c 128
 317.833333333 587.333333333 264.666666667 610.666666667 202 612 c 257
 202 143 l 257
50 768 m 257
 60 764.666666667 84.6666666667 764.666666667 124 768 c 128
 163.333333333 771.333333333 188 773 198 773 c 257
 303.333333333 773 393.333333333 734.666666667 468 658 c 128
 542.666666667 581.333333333 580 488.666666667 580 380 c 257
 580 308.666666667 563.166666667 243 529.5 183 c 128
 495.833333333 123 450 75.3333333333 392 40 c 128
 334 4.66666666667 270.666666667 -13.3333333333 202 -14 c 257
 50 -14 l 257
 50 768 l 257
EndSplineSet
EndChar

StartChar: E
Encoding: 86 69 86
GlifName: E_
Width: 668
VWidth: 0
GlyphClass: 2
Flags: HW
LayerCount: 2
Fore
SplineSet
509 485 m 257
 510 333 l 257
 202 333 l 257
 202 149 l 257
 617 149 l 257
 618 -3 l 257
 51 -3 l 257
 51 -2 l 257
 50 -2 l 257
 50 774 l 257
 50 778 l 257
 617 778 l 257
 618 626 l 257
 202 626 l 257
 202 485 l 257
 509 485 l 257
EndSplineSet
EndChar

StartChar: Eth
Encoding: 126 208 126
GlifName: E_th
Width: 690
VWidth: 0
GlyphClass: 2
Flags: HW
LayerCount: 2
Fore
SplineSet
110 768 m 257
 120 764.666666667 144.666666667 764.666666667 184 768 c 128
 223.333333333 771.333333333 248 773 258 773 c 257
 363.333333333 773 453.333333333 734.666666667 528 658 c 128
 602.666666667 581.333333333 640 488.666666667 640 380 c 257
 640 308.666666667 623.166666667 243 589.5 183 c 128
 555.833333333 123 510 75.3333333333 452 40 c 128
 394 4.66666666667 330.666666667 -13.3333333333 262 -14 c 257
 110 -14 l 257
 110 344 l 257
 50 344 l 257
 50 496 l 257
 110 496 l 257
 110 768 l 257
262 143 m 257
 324.666666667 144.333333333 377.833333333 167.833333333 421.5 213.5 c 128
 465.166666667 259.166666667 487 314 487 378 c 257
 487 442 465.166666667 496.666666667 421.5 542 c 128
 377.833333333 587.333333333 324.666666667 610.666666667 262 612 c 257
 262 496 l 257
 321 496 l 257
 321 344 l 257
 262 344 l 257
 262 143 l 257
EndSplineSet
EndChar

StartChar: Euro
Encoding: 130 8364 130
GlifName: E_uro
Width: 653
VWidth: 0
GlyphClass: 2
Flags: HW
LayerCount: 2
Fore
SplineSet
65 358 m 257
 494 358 l 257
 498 358 501.5 356.5 504.5 353.5 c 128
 507.5 350.5 509 347 509 343 c 257
 509 287 l 257
 509 283 507.5 279.5 504.5 276.5 c 128
 501.5 273.5 498 272 494 272 c 257
 65 272 l 257
 61 272 57.5 273.5 54.5 276.5 c 128
 51.5 279.5 50 283 50 287 c 257
 50 343 l 257
 50 347 51.5 350.5 54.5 353.5 c 128
 57.5 356.5 61 358 65 358 c 257
65 533 m 257
 494 533 l 257
 498 533 501.5 531.5 504.5 528.5 c 128
 507.5 525.5 509 522 509 518 c 257
 509 462 l 257
 509 458 507.5 454.5 504.5 451.5 c 128
 501.5 448.5 498 447 494 447 c 257
 65 447 l 257
 61 447 57.5 448.5 54.5 451.5 c 128
 51.5 454.5 50 458 50 462 c 257
 50 518 l 257
 50 522 51.5 525.5 54.5 528.5 c 128
 57.5 531.5 61 533 65 533 c 257
530 612 m 257
 466.666666667 612 412.666666667 589.166666667 368 543.5 c 128
 323.333333333 497.833333333 301 442.666666667 301 378 c 257
 301 312.666666667 323.333333333 257.166666667 368 211.5 c 128
 412.666666667 165.833333333 466.666666667 143 530 143 c 257
 555.333333333 143 579.666666667 147 603 155 c 257
 603 -7 l 257
 579 -11.6666666667 554.666666667 -14 530 -14 c 257
 424.666666667 -14 334.666666667 24.5 260 101.5 c 128
 185.333333333 178.5 148 271.333333333 148 380 c 128
 148 488.666666667 185.333333333 581.333333333 260 658 c 128
 334.666666667 734.666666667 424.666666667 773 530 773 c 257
 554.666666667 773 579 770.666666667 603 766 c 257
 603 600 l 257
 579.666666667 608 555.333333333 612 530 612 c 257
EndSplineSet
EndChar

StartChar: F
Encoding: 134 70 134
GlifName: F_
Width: 668
VWidth: 0
GlyphClass: 2
Flags: HW
LayerCount: 2
Fore
SplineSet
509 485 m 257
 510 333 l 257
 202 333 l 257
 202 -2 l 257
 50 -2 l 257
 50 774 l 257
 50 778 l 257
 617 778 l 257
 618 626 l 257
 202 626 l 257
 202 485 l 257
 509 485 l 257
EndSplineSet
EndChar

StartChar: G
Encoding: 138 71 138
GlifName: G_
Width: 651
VWidth: 0
GlyphClass: 2
Flags: HW
LayerCount: 2
Fore
SplineSet
432 612 m 257
 368.666666667 612 314.666666667 589.166666667 270 543.5 c 128
 225.333333333 497.833333333 203 442.666666667 203 378 c 257
 203 312.666666667 225.333333333 257.166666667 270 211.5 c 128
 314.666666667 165.833333333 368.666666667 143 432 143 c 257
 438 143 443.666666667 143.333333333 449 144 c 257
 449 313 l 257
 601 313 l 257
 601 -14 l 257
 449 -14 l 257
 441 -14 441 -14 432 -14 c 257
 326.666666667 -14 236.666666667 24.5 162 101.5 c 128
 87.3333333333 178.5 50 271.333333333 50 380 c 128
 50 488.666666667 87.3333333333 581.333333333 162 658 c 128
 236.666666667 734.666666667 326.666666667 773 432 773 c 257
 456.666666667 773 481 770.666666667 505 766 c 257
 505 600 l 257
 481.666666667 608 457.333333333 612 432 612 c 257
EndSplineSet
EndChar

StartChar: H
Encoding: 154 72 154
GlifName: H_
Width: 652
VWidth: 0
GlyphClass: 2
Flags: HW
LayerCount: 2
Fore
SplineSet
450 774 m 257
 602 774 l 257
 602 -2 l 257
 450 -2 l 257
 450 333 l 257
 202 333 l 257
 202 -2 l 257
 50 -2 l 257
 50 774 l 257
 202 774 l 257
 202 485 l 257
 450 485 l 257
 450 774 l 257
EndSplineSet
EndChar

StartChar: Hbar
Encoding: 158 294 158
GlifName: H_bar
Width: 747
VWidth: 0
GlyphClass: 2
Flags: HW
LayerCount: 2
Fore
SplineSet
252 561 m 257
 252 485 l 257
 500 485 l 257
 500 561 l 257
 252 561 l 257
500 774 m 257
 652 774 l 257
 652 713 l 257
 697 713 l 257
 697 561 l 257
 652 561 l 257
 652 -2 l 257
 500 -2 l 257
 500 333 l 257
 252 333 l 257
 252 -2 l 257
 100 -2 l 257
 100 561 l 257
 50 561 l 257
 50 713 l 257
 100 713 l 257
 100 774 l 257
 252 774 l 257
 252 713 l 257
 500 713 l 257
 500 774 l 257
EndSplineSet
EndChar

StartChar: I
Encoding: 166 73 166
GlifName: I_
Width: 252
VWidth: 0
GlyphClass: 2
Flags: HW
LayerCount: 2
Fore
SplineSet
50 774 m 257
 202 774 l 257
 202 -2 l 257
 50 -2 l 257
 50 774 l 257
EndSplineSet
EndChar

StartChar: J
Encoding: 206 74 206
GlifName: J_
Width: 419
VWidth: 0
GlyphClass: 2
Flags: HW
LayerCount: 2
Fore
SplineSet
50 6 m 257
 50 174 l 257
 70.6666666667 156.666666667 94.3333333333 148 121 148 c 257
 153.666666667 148 180.666666667 160.333333333 202 185 c 257
 202 761 l 257
 369 761 l 257
 366 184 l 257
 350 128.666666667 319.666666667 83.6666666667 275 49 c 128
 230.333333333 14.3333333333 179 -3 121 -3 c 257
 96.3333333333 -3 72.6666666667 0 50 6 c 257
EndSplineSet
EndChar

StartChar: K
Encoding: 214 75 214
GlifName: K_
Width: 753
VWidth: 0
GlyphClass: 2
Flags: HW
LayerCount: 2
Fore
SplineSet
50 774 m 257
 202 774 l 257
 202 433 l 257
 447 770 l 257
 633 768 l 257
 372 387 l 257
 703 -3 l 257
 511 -2 l 257
 259 302 l 257
 202 219 l 257
 202 -2 l 257
 50 -2 l 257
 50 774 l 257
EndSplineSet
EndChar

StartChar: L
Encoding: 218 76 218
GlifName: L_
Width: 718
VWidth: 0
GlyphClass: 2
Flags: HW
LayerCount: 2
Fore
SplineSet
50 774 m 257
 202 774 l 257
 202 149 l 257
 667 149 l 257
 668 -3 l 257
 51 -3 l 257
 51 -2 l 257
 50 -2 l 257
 50 774 l 257
EndSplineSet
EndChar

StartChar: Lcaron
Encoding: 226 317 226
GlifName: L_caron
Width: 718
VWidth: 0
GlyphClass: 2
Flags: HW
LayerCount: 2
Fore
SplineSet
50 774 m 257
 202 774 l 257
 202 149 l 257
 667 149 l 257
 668 -3 l 257
 51 -3 l 257
 51 -2 l 257
 50 -2 l 257
 50 774 l 257
252 520 m 257
 252 777 l 257
 404 777 l 257
 359 520 l 257
 252 520 l 257
EndSplineSet
EndChar

StartChar: Lslash
Encoding: 234 321 234
GlifName: L_slash
Width: 869
VWidth: 0
GlyphClass: 2
Flags: HW
LayerCount: 2
Fore
SplineSet
50 494 m 257
 507 630 l 257
 508 478 l 257
 50 342 l 257
 50 494 l 257
201 774 m 257
 353 774 l 257
 353 149 l 257
 818 149 l 257
 819 -3 l 257
 202 -3 l 257
 202 -2 l 257
 201 -2 l 257
 201 774 l 257
EndSplineSet
EndChar

StartChar: M
Encoding: 238 77 238
GlifName: M_
Width: 1052
VWidth: 0
GlyphClass: 2
Flags: HW
LayerCount: 2
Fore
SplineSet
50 768 m 257
 202 768 l 257
 526 146 l 257
 850 768 l 257
 1002 768 l 257
 1002 -2 l 257
 850 -2 l 257
 850 476 l 257
 602 0 l 257
 450 0 l 257
 202 476 l 257
 202 -2 l 257
 50 -2 l 257
 50 768 l 257
EndSplineSet
EndChar

StartChar: N
Encoding: 242 78 242
GlifName: N_
Width: 852
VWidth: 0
GlyphClass: 2
Flags: HW
LayerCount: 2
Fore
SplineSet
50 774 m 257
 202 774 l 257
 650 251 l 257
 650 774 l 257
 802 774 l 257
 802 -2 l 257
 650 -2 l 257
 202 523 l 257
 202 -2 l 257
 50 -2 l 257
 50 774 l 257
EndSplineSet
EndChar

StartChar: O
Encoding: 258 79 258
GlifName: O_
Width: 864
VWidth: 0
GlyphClass: 2
Flags: HW
LayerCount: 2
Fore
SplineSet
661 378 m 257
 661 442.666666667 638.666666667 497.833333333 594 543.5 c 128
 549.333333333 589.166666667 495.333333333 612 432 612 c 128
 368.666666667 612 314.666666667 589.166666667 270 543.5 c 128
 225.333333333 497.833333333 203 442.666666667 203 378 c 257
 203 312.666666667 225.333333333 257.166666667 270 211.5 c 128
 314.666666667 165.833333333 368.666666667 143 432 143 c 128
 495.333333333 143 549.333333333 165.833333333 594 211.5 c 128
 638.666666667 257.166666667 661 312.666666667 661 378 c 257
814 380 m 128
 814 271.333333333 776.666666667 178.5 702 101.5 c 128
 627.333333333 24.5 537.333333333 -14 432 -14 c 128
 326.666666667 -14 236.666666667 24.5 162 101.5 c 128
 87.3333333333 178.5 50 271.333333333 50 380 c 128
 50 488.666666667 87.3333333333 581.333333333 162 658 c 128
 236.666666667 734.666666667 326.666666667 773 432 773 c 128
 537.333333333 773 627.333333333 734.666666667 702 658 c 128
 776.666666667 581.333333333 814 488.666666667 814 380 c 128
EndSplineSet
EndChar

StartChar: OE
Encoding: 262 338 262
GlifName: O_E_
Width: 1068
VWidth: 0
GlyphClass: 2
Flags: HW
LayerCount: 2
Fore
SplineSet
432 612 m 257
 368.666666667 612 314.666666667 589.166666667 270 543.5 c 128
 225.333333333 497.833333333 203 442.666666667 203 378 c 257
 203 312.666666667 225.333333333 257.166666667 270 211.5 c 128
 314.666666667 165.833333333 368.666666667 143 432 143 c 257
 438 143 444 143.333333333 450 144 c 257
 450 611 l 257
 444 611.666666667 438 612 432 612 c 257
909 485 m 257
 910 333 l 257
 602 333 l 257
 602 149 l 257
 1017 149 l 257
 1018 -3 l 257
 505 -3 l 257
 505 -7 l 257
 481 -11.6666666667 456.666666667 -14 432 -14 c 257
 326.666666667 -14 236.666666667 24.5 162 101.5 c 128
 87.3333333333 178.5 50 271.333333333 50 380 c 128
 50 488.666666667 87.3333333333 581.333333333 162 658 c 128
 236.666666667 734.666666667 326.666666667 773 432 773 c 257
 441 773 441 773 450 773 c 257
 450 774 l 257
 450 778 l 257
 1017 778 l 257
 1018 626 l 257
 602 626 l 257
 602 485 l 257
 909 485 l 257
EndSplineSet
EndChar

StartChar: Oslash
Encoding: 294 216 294
GlifName: O_slash
Width: 864
VWidth: 0
GlyphClass: 2
Flags: HW
LayerCount: 2
Fore
SplineSet
599 538 m 257
 375 150 l 257
 393.666666667 145.333333333 412.666666667 143 432 143 c 257
 495.333333333 143 549.333333333 165.833333333 594 211.5 c 128
 638.666666667 257.166666667 661 312.666666667 661 378 c 257
 661 440 640.333333333 493.333333333 599 538 c 257
495 603 m 257
 474.333333333 609 453.333333333 612 432 612 c 257
 368.666666667 612 314.666666667 589.166666667 270 543.5 c 128
 225.333333333 497.833333333 203 442.666666667 203 378 c 128
 203 313.333333333 225 258 269 212 c 257
 495 603 l 257
814 380 m 257
 814 271.333333333 776.666666667 178.5 702 101.5 c 128
 627.333333333 24.5 537.333333333 -14 432 -14 c 257
 384.666666667 -14 339 -5.33333333333 295 12 c 257
 240 -83 l 257
 134 -22 l 257
 190 75 l 257
 146.666666667 111.666666667 112.5 156.5 87.5 209.5 c 128
 62.5 262.5 50 319.333333333 50 380 c 257
 50 488.666666667 87.3333333333 581.333333333 162 658 c 128
 236.666666667 734.666666667 326.666666667 773 432 773 c 257
 482 773 530 763.333333333 576 744 c 257
 619 818 l 257
 725 757 l 257
 680 679 l 257
 722 642.333333333 754.833333333 598 778.5 546 c 128
 802.166666667 494 814 438.666666667 814 380 c 257
EndSplineSet
EndChar

StartChar: P
Encoding: 302 80 302
GlifName: P_
Width: 534
VWidth: 0
GlyphClass: 2
Flags: HW
LayerCount: 2
Fore
SplineSet
202 626 m 257
 202 419 l 257
 210 417 218 416 226 416 c 257
 256 416 281.333333333 426.333333333 302 447 c 128
 322.666666667 467.666666667 333 493 333 523 c 257
 333 552.333333333 322.666666667 577.333333333 302 598 c 128
 281.333333333 618.666666667 256 629 226 629 c 257
 218 629 210 628 202 626 c 257
202 3 m 257
 50 3 l 257
 50 779 l 257
 202 779 l 257
 207.333333333 779.666666667 215.333333333 780 226 780 c 257
 297.333333333 780 358.166666667 755 408.5 705 c 128
 458.833333333 655 484 594.333333333 484 523 c 128
 484 451.666666667 458.833333333 390.833333333 408.5 340.5 c 128
 358.166666667 290.166666667 297.333333333 265 226 265 c 257
 215.333333333 265 207.333333333 265.333333333 202 266 c 257
 202 3 l 257
EndSplineSet
EndChar

StartChar: Q
Encoding: 306 81 306
GlifName: Q_
Width: 872
VWidth: 0
GlyphClass: 2
Flags: HW
LayerCount: 2
Fore
SplineSet
814 380 m 257
 814 322 802.666666667 267.5 780 216.5 c 128
 757.333333333 165.5 725.666666667 121.666666667 685 85 c 257
 822 -52 l 257
 684 -191 l 257
 501 -8 l 257
 478.333333333 -12 455.333333333 -14 432 -14 c 257
 326.666666667 -14 236.666666667 24.5 162 101.5 c 128
 87.3333333333 178.5 50 271.333333333 50 380 c 128
 50 488.666666667 87.3333333333 581.333333333 162 658 c 128
 236.666666667 734.666666667 326.666666667 773 432 773 c 128
 537.333333333 773 627.333333333 734.666666667 702 658 c 128
 776.666666667 581.333333333 814 488.666666667 814 380 c 257
661 378 m 257
 661 442.666666667 638.666666667 497.833333333 594 543.5 c 128
 549.333333333 589.166666667 495.333333333 612 432 612 c 128
 368.666666667 612 314.666666667 589.166666667 270 543.5 c 128
 225.333333333 497.833333333 203 442.666666667 203 378 c 257
 203 312.666666667 225.333333333 257.166666667 270 211.5 c 128
 314.666666667 165.833333333 368.666666667 143 432 143 c 128
 495.333333333 143 549.333333333 165.833333333 594 211.5 c 128
 638.666666667 257.166666667 661 312.666666667 661 378 c 257
EndSplineSet
EndChar

StartChar: R
Encoding: 310 82 310
GlifName: R_
Width: 562
VWidth: 0
GlyphClass: 2
Flags: HW
LayerCount: 2
Fore
SplineSet
202 3 m 257
 50 3 l 257
 50 779 l 257
 202 779 l 257
 207.333333333 779.666666667 215.333333333 780 226 780 c 257
 297.333333333 780 358.166666667 755 408.5 705 c 128
 458.833333333 655 484 594.333333333 484 523 c 257
 484 467.666666667 468.166666667 417.833333333 436.5 373.5 c 128
 404.833333333 329.166666667 363.666666667 298 313 280 c 257
 512 -3 l 257
 372 -3 l 257
 207 266 l 257
 204 266 204 266 202 266 c 257
 202 3 l 257
202 626 m 257
 202 419 l 257
 210 417 218 416 226 416 c 257
 256 416 281.333333333 426.333333333 302 447 c 128
 322.666666667 467.666666667 333 493 333 523 c 257
 333 552.333333333 322.666666667 577.333333333 302 598 c 128
 281.333333333 618.666666667 256 629 226 629 c 257
 218 629 210 628 202 626 c 257
EndSplineSet
EndChar

StartChar: S
Encoding: 322 83 322
GlifName: S_
Width: 519
VWidth: 0
GlyphClass: 2
Flags: HW
LayerCount: 2
Fore
SplineSet
50 57 m 257
 125 182 l 257
 133 175.333333333 140.333333333 170.333333333 147 167 c 257
 172.333333333 152.333333333 199 148.5 227 155.5 c 128
 255 162.5 276.666666667 178 292 202 c 257
 306.666666667 228 305.833333333 252.166666667 289.5 274.5 c 128
 273.166666667 296.833333333 250.666666667 310.333333333 222 315 c 257
 177.333333333 339 141.5 366.666666667 114.5 398 c 128
 87.5 429.333333333 70.5 465.833333333 63.5 507.5 c 128
 56.5 549.166666667 67.3333333333 593 96 639 c 257
 130.666666667 697 182.333333333 734.5 251 751.5 c 128
 319.666666667 768.5 385.333333333 760.333333333 448 727 c 257
 450 725 453.5 722.5 458.5 719.5 c 128
 463.5 716.5 467 714 469 712 c 257
 394 587 l 257
 386 593.666666667 378.666666667 598.666666667 372 602 c 257
 346.666666667 616 319.833333333 619.5 291.5 612.5 c 128
 263.166666667 605.5 241.666666667 589.666666667 227 565 c 257
 210.333333333 537.666666667 208.833333333 507.666666667 222.5 475 c 128
 236.166666667 442.333333333 259 423.333333333 291 418 c 257
 323.666666667 400.666666667 351.166666667 383.166666667 373.5 365.5 c 128
 395.833333333 347.833333333 415.166666667 327.166666667 431.5 303.5 c 128
 447.833333333 279.833333333 455.5 253.333333333 454.5 224 c 128
 453.5 194.666666667 442.666666667 163.333333333 422 130 c 257
 387.333333333 71.3333333333 335.833333333 33.5 267.5 16.5 c 128
 199.166666667 -0.5 133.666666667 8 71 42 c 257
 69 44 65.5 46.5 60.5 49.5 c 128
 55.5 52.5 52 55 50 57 c 257
EndSplineSet
EndChar

StartChar: T
Encoding: 342 84 342
GlifName: T_
Width: 676
VWidth: 0
GlyphClass: 2
Flags: HW
LayerCount: 2
Fore
SplineSet
50 614 m 257
 50 766 l 257
 626 766 l 257
 626 614 l 257
 414 614 l 257
 414 -2 l 257
 262 -2 l 257
 262 614 l 257
 50 614 l 257
EndSplineSet
EndChar

StartChar: Thorn
Encoding: 350 222 350
GlifName: T_horn
Width: 534
VWidth: 0
GlyphClass: 2
Flags: HW
LayerCount: 2
Fore
SplineSet
202 561 m 257
 202 354 l 257
 210 352 218 351 226 351 c 257
 256 351 281.333333333 361.333333333 302 382 c 128
 322.666666667 402.666666667 333 428 333 458 c 257
 333 487.333333333 322.666666667 512.333333333 302 533 c 128
 281.333333333 553.666666667 256 564 226 564 c 257
 218 564 210 563 202 561 c 257
202 3 m 257
 50 3 l 257
 50 903 l 257
 197 903 l 257
 202 714 l 257
 207.333333333 714.666666667 215.333333333 715 226 715 c 257
 297.333333333 715 358.166666667 690 408.5 640 c 128
 458.833333333 590 484 529.333333333 484 458 c 128
 484 386.666666667 458.833333333 325.833333333 408.5 275.5 c 128
 358.166666667 225.166666667 297.333333333 200 226 200 c 257
 215.333333333 200 207.333333333 200.333333333 202 201 c 257
 202 3 l 257
EndSplineSet
EndChar

StartChar: U
Encoding: 354 85 354
GlifName: U_
Width: 669
VWidth: 0
GlyphClass: 2
Flags: HW
LayerCount: 2
Fore
SplineSet
616 184 m 257
 605.333333333 145.333333333 585.166666667 112.166666667 555.5 84.5 c 128
 525.833333333 56.8333333333 492.333333333 36.5 455 23.5 c 128
 417.666666667 10.5 377.666666667 3.83333333333 335 3.5 c 128
 292.333333333 3.16666666667 252.166666667 9.33333333333 214.5 22 c 128
 176.833333333 34.6666666667 143.333333333 55 114 83 c 128
 84.6666666667 111 64.3333333333 144.666666667 53 184 c 257
 50 761 l 257
 217 761 l 257
 217 185 l 257
 236.333333333 163 275.666666667 151.833333333 335 151.5 c 128
 394.333333333 151.166666667 433.333333333 162.333333333 452 185 c 257
 452 761 l 257
 619 761 l 257
 616 184 l 257
EndSplineSet
EndChar

StartChar: V
Encoding: 398 86 398
GlifName: V_
Width: 652
VWidth: 0
GlyphClass: 2
Flags: HW
LayerCount: 2
Fore
SplineSet
50 769 m 257
 202 769 l 257
 326 292 l 257
 450 769 l 257
 602 769 l 257
 402 0 l 257
 250 0 l 257
 50 769 l 257
EndSplineSet
EndChar

StartChar: W
Encoding: 402 87 402
GlifName: W_
Width: 1053
VWidth: 0
GlyphClass: 2
Flags: HW
LayerCount: 2
Fore
SplineSet
50 769 m 257
 202 769 l 257
 326 292 l 257
 450 769 l 257
 451 769 l 257
 602 769 l 257
 603 769 l 257
 727 292 l 257
 851 769 l 257
 1003 769 l 257
 803 0 l 257
 651 0 l 257
 526 479 l 257
 402 0 l 257
 250 0 l 257
 50 769 l 257
EndSplineSet
EndChar

StartChar: X
Encoding: 422 88 422
GlifName: X_
Width: 724
VWidth: 0
GlyphClass: 2
Flags: HW
LayerCount: 2
Fore
SplineSet
50 770 m 257
 236 768 l 257
 366 541 l 257
 498 769 l 257
 673 768 l 257
 453 388 l 257
 674 0 l 257
 499 -2 l 257
 363 233 l 257
 229 2 l 257
 51 -1 l 257
 274 384 l 257
 50 770 l 257
EndSplineSet
EndChar

StartChar: Y
Encoding: 426 89 426
GlifName: Y_
Width: 652
VWidth: 0
GlyphClass: 2
Flags: HW
LayerCount: 2
Fore
SplineSet
249 451 m 257
 50 765 l 257
 202 765 l 257
 326 594 l 257
 450 765 l 257
 602 765 l 257
 402 450 l 257
 401 450 l 257
 401 1 l 257
 249 1 l 257
 249 451 l 257
EndSplineSet
EndChar

StartChar: Z
Encoding: 446 90 446
GlifName: Z_
Width: 783
VWidth: 0
GlyphClass: 2
Flags: HW
LayerCount: 2
Fore
SplineSet
50 10 m 257
 50 162 l 257
 480 610 l 257
 50 610 l 257
 50 762 l 257
 733 762 l 257
 733 610 l 257
 301 162 l 257
 733 162 l 257
 733 10 l 257
 50 10 l 257
EndSplineSet
EndChar

StartChar: a
Encoding: 462 97 462
GlifName: a
Width: 534
VWidth: 0
GlyphClass: 2
Flags: HW
LayerCount: 2
Fore
SplineSet
332 369 m 257
 324 371 316 372 308 372 c 257
 278 372 252.666666667 361.666666667 232 341 c 128
 211.333333333 320.333333333 201 295.333333333 201 266 c 257
 201 236 211.333333333 210.666666667 232 190 c 128
 252.666666667 169.333333333 278 159 308 159 c 257
 316 159 324 160 332 162 c 257
 332 369 l 257
332 1 m 257
 332 9 l 257
 326.666666667 8.33333333333 318.666666667 8 308 8 c 257
 236.666666667 8 175.833333333 33.1666666667 125.5 83.5 c 128
 75.1666666667 133.833333333 50 194.666666667 50 266 c 257
 50 336.666666667 75 395.833333333 125 443.5 c 128
 175 491.166666667 236 515 308 515 c 257
 318.666666667 515 326.666666667 514.666666667 332 514 c 257
 484 514 l 257
 484 1 l 257
 332 1 l 257
EndSplineSet
EndChar

StartChar: acutecomb
Encoding: 482 769 482
GlifName: acutecomb
Width: 0
VWidth: 0
GlyphClass: 4
Flags: HW
LayerCount: 2
Fore
SplineSet
-37 516 m 257
 -145 623 l 257
 37 805 l 257
 145 698 l 257
 -37 516 l 257
EndSplineSet
EndChar

StartChar: ae
Encoding: 490 230 490
GlifName: ae
Width: 905
VWidth: 0
GlyphClass: 2
Flags: HW
LayerCount: 2
Fore
SplineSet
854 260 m 257
 854 253.333333333 854.166666667 244.166666667 854.5 232.5 c 128
 854.833333333 220.833333333 855 212.666666667 855 208 c 257
 508 205 l 257
 528.666666667 171 558 154 596 154 c 257
 618.666666667 154 664.5 154.833333333 733.5 156.5 c 128
 802.5 158.166666667 839.666666667 160 845 162 c 257
 845 6 l 257
 832.333333333 4 749.333333333 3 596 3 c 257
 564.666666667 3 534.333333333 8.33333333333 505 19 c 257
 332 1 l 257
 332 9 l 257
 326.666666667 8.33333333333 318.666666667 8 308 8 c 257
 236.666666667 8 175.833333333 33.1666666667 125.5 83.5 c 128
 75.1666666667 133.833333333 50 194.666666667 50 266 c 257
 50 336.666666667 75 395.833333333 125 443.5 c 128
 175 491.166666667 236 515 308 515 c 257
 318.666666667 515 326.666666667 514.666666667 332 514 c 257
 505 514 l 257
 596 518 l 257
 667.333333333 518 728.166666667 492.833333333 778.5 442.5 c 128
 828.833333333 392.166666667 854 331.333333333 854 260 c 257
332 369 m 257
 324 371 316 372 308 372 c 257
 278 372 252.666666667 361.666666667 232 341 c 128
 211.333333333 320.333333333 201 295.333333333 201 266 c 257
 201 236 211.333333333 210.666666667 232 190 c 128
 252.666666667 169.333333333 278 159 308 159 c 257
 316 159 324 160 332 162 c 257
 332 369 l 257
503 297 m 257
 695 294 l 257
 692.333333333 296.666666667 685.666666667 304.333333333 675 317 c 128
 664.333333333 329.666666667 656 339.166666667 650 345.5 c 128
 644 351.833333333 635.833333333 358.333333333 625.5 365 c 128
 615.166666667 371.666666667 605.333333333 375 596 375 c 257
 584 375 572.833333333 371 562.5 363 c 128
 552.166666667 355 540.166666667 342.5 526.5 325.5 c 128
 512.833333333 308.5 505 299 503 297 c 257
EndSplineSet
EndChar

StartChar: ampersand
Encoding: 502 38 502
GlifName: ampersand
Width: 650
VWidth: 0
GlyphClass: 2
Flags: HW
LayerCount: 2
Fore
SplineSet
322.667 158 m 257
 209.667 272 l 257
 209.000333333 268 208.667 264 208.667 260 c 257
 208.667 230.666666667 219.000333333 205.666666667 239.667 185 c 128
 260.333666667 164.333333333 285.667 154 315.667 154 c 257
 316.333666667 154 318.667 155.333333333 322.667 158 c 257
389.667 810 m 257
 386.667 691 l 257
 374.667 690.333333333 347.167 678.333333333 304.167 655 c 128
 261.167 631.666666667 234.667 615 224.667 605 c 257
 202.000333333 582.333333333 191.667 554.333333333 193.667 521 c 257
 216.667 498 l 257
 248.000333333 511.333333333 281.000333333 518 315.667 518 c 257
 324.333666667 518 333.000333333 517.666666667 341.667 517 c 257
 341.667 373 l 257
 452.667 262 l 257
 528.000333333 323.333333333 567.000333333 354.333333333 569.667 355 c 257
 569.667 202 l 257
 567.667 202 556.667 194 536.667 178 c 257
 600.667 114 l 257
 482.667 -4 l 257
 406.667 73 l 257
 348.667 26.3333333333 318.333666667 3 315.667 3 c 257
 244.333666667 3 183.500333333 28 133.167 78 c 128
 82.8336666667 128 57.667 188.666666667 57.667 260 c 257
 57.667 306.666666667 69.3336666667 350 92.667 390 c 257
 76.667 406 l 257
 63.3336666667 430 55.0003333333 454.666666667 51.667 480 c 128
 48.3336666667 505.333333333 50.0003333333 531.5 56.667 558.5 c 128
 63.3336666667 585.5 71.167 610.333333333 80.167 633 c 128
 89.167 655.666666667 101.667 682 117.667 712 c 257
 126.333666667 728 150.833666667 745.333333333 191.167 764 c 128
 231.500333333 782.666666667 272.000333333 796.666666667 312.667 806 c 128
 353.333666667 815.333333333 379.000333333 816.666666667 389.667 810 c 257
EndSplineSet
EndChar

StartChar: asciicircum
Encoding: 514 94 514
GlifName: asciicircum
Width: 502
VWidth: 0
GlyphClass: 2
Flags: HW
LayerCount: 2
Fore
SplineSet
50 283 m 257
 193 617 l 257
 194 617 l 257
 345 617 l 257
 346 617 l 257
 452 283 l 257
 300 283 l 257
 258 497 l 257
 202 283 l 257
 50 283 l 257
EndSplineSet
EndChar

StartChar: asciitilde
Encoding: 518 126 518
GlifName: asciitilde
Width: 599
VWidth: 0
GlyphClass: 2
Flags: HW
LayerCount: 2
Fore
SplineSet
549 577 m 257
 549 425 l 257
 548.333333333 422.333333333 542.833333333 415 532.5 403 c 128
 522.166666667 391 506.333333333 378.166666667 485 364.5 c 128
 463.666666667 350.833333333 442.333333333 344 421 344 c 257
 321 344 l 257
 299.666666667 344 274.166666667 353.333333333 244.5 372 c 128
 214.833333333 390.666666667 189.333333333 400 168 400 c 257
 152.666666667 400 135.166666667 395.333333333 115.5 386 c 128
 95.8333333333 376.666666667 80 367.333333333 68 358 c 257
 50 344 l 257
 50 496 l 257
 92.6666666667 533.333333333 130.666666667 552 164 552 c 257
 186 552 212.666666667 542.833333333 244 524.5 c 128
 275.333333333 506.166666667 302 497 324 497 c 257
 369 497 369 497 413 497 c 257
 433.666666667 497 455.333333333 503.666666667 478 517 c 128
 500.666666667 530.333333333 518 543.666666667 530 557 c 257
 549 577 l 257
EndSplineSet
EndChar

StartChar: asterisk
Encoding: 522 42 522
GlifName: asterisk
Width: 644
VWidth: 0
GlyphClass: 2
Flags: HW
LayerCount: 2
Fore
SplineSet
594 496 m 257
 594 344 l 257
 505 344 l 257
 568 281 l 257
 461 174 l 257
 398 237 l 257
 398 149 l 257
 246 149 l 257
 246 237 l 257
 183 174 l 257
 76 281 l 257
 139 344 l 257
 50 344 l 257
 50 496 l 257
 139 496 l 257
 76 559 l 257
 183 666 l 257
 246 603 l 257
 246 692 l 257
 398 692 l 257
 398 603 l 257
 461 666 l 257
 568 559 l 257
 505 496 l 257
 594 496 l 257
EndSplineSet
EndChar

StartChar: at
Encoding: 526 64 526
GlifName: at
Width: 876
VWidth: 0
GlyphClass: 2
Flags: HW
LayerCount: 2
Fore
SplineSet
567.555 236 m 257
 567.555 236 l 257
530.555 166 m 257
 530.555 166 l 257
493.555 228 m 257
 479.555 239 l 257
 443.555 239 412.888333333 251.5 387.555 276.5 c 128
 362.221666667 301.5 349.555 332 349.555 368 c 257
 349.555 403.333333333 362.221666667 432.833333333 387.555 456.5 c 128
 412.888333333 480.166666667 443.555 492 479.555 492 c 257
 491.555 492 l 257
 567.555 492 l 257
 574.555 318 l 257
 575.888333333 310 581.055 301.333333333 590.055 292 c 128
 599.055 282.666666667 609.055 275.5 620.055 270.5 c 128
 631.055 265.5 641.388333333 267.333333333 651.055 276 c 128
 660.721666667 284.666666667 666.555 301.333333333 668.555 326 c 257
 668.555 326.666666667 667.888333333 329.333333333 666.555 334 c 128
 665.221666667 338.666666667 664.555 341.333333333 664.555 342 c 257
 670.555 378 668.221666667 413.5 657.555 448.5 c 128
 646.888333333 483.5 628.221666667 514.333333333 601.555 541 c 257
 556.221666667 585.666666667 501.721666667 607.5 438.055 606.5 c 128
 374.388333333 605.5 319.888333333 582.333333333 274.555 537 c 257
 228.555 491 205.221666667 436.166666667 204.555 372.5 c 128
 203.888333333 308.833333333 225.888333333 254.333333333 270.555 209 c 257
 305.221666667 174.333333333 346.555 153.333333333 394.555 146 c 128
 442.555 138.666666667 487.888333333 145.333333333 530.555 166 c 257
 537.888333333 169.333333333 550.888333333 161.666666667 569.555 143 c 128
 588.221666667 124.333333333 605.221666667 104.666666667 620.555 84 c 257
 643.555 54 l 257
 568.221666667 3.33333333333 484.888333333 -18.1666666667 393.555 -10.5 c 128
 302.221666667 -2.83333333333 224.221666667 33.3333333333 159.555 98 c 257
 84.8881333333 172.666666667 48.3880333333 263.666666667 50.0547 371 c 128
 51.7213666667 478.333333333 90.8880833333 570.333333333 167.55485 647 c 128
 244.221616667 723.666666667 336.055 762.833333333 443.055 764.5 c 128
 550.055 766.166666667 640.888333333 729.666666667 715.555 655 c 257
 771.555 599 806.555 530 820.555 448 c 128
 834.555 366 825.555 290 793.555 220 c 257
 778.888333333 211.333333333 764.221666667 204.333333333 749.555 199 c 128
 734.888333333 193.666666667 719.388333333 190.5 703.055 189.5 c 128
 686.721666667 188.5 672.888333333 187.833333333 661.555 187.5 c 128
 650.221666667 187.166666667 635.555 189.166666667 617.555 193.5 c 128
 599.555 197.833333333 586.388333333 201 578.055 203 c 128
 569.721666667 205 555.055 209.166666667 534.055 215.5 c 128
 513.055 221.833333333 499.555 226 493.555 228 c 257
491.555 420 m 257
 488.888333333 420.666666667 484.888333333 421 479.555 421 c 257
 464.221666667 421 451.388333333 415.833333333 441.055 405.5 c 128
 430.721666667 395.166666667 425.555 382.666666667 425.555 368 c 128
 425.555 353.333333333 430.721666667 340.666666667 441.055 330 c 128
 451.388333333 319.333333333 464.221666667 314 479.555 314 c 257
 482.221666667 314 486.221666667 314.666666667 491.555 316 c 257
 491.555 420 l 257
EndSplineSet
EndChar

StartChar: b
Encoding: 534 98 534
GlifName: b
Width: 534
VWidth: 0
GlyphClass: 2
Flags: HW
LayerCount: 2
Fore
SplineSet
202 157 m 257
 210 155 218 154 226 154 c 257
 256 154 281.333333333 164.333333333 302 185 c 128
 322.666666667 205.666666667 333 230.666666667 333 260 c 257
 333 290 322.666666667 315.333333333 302 336 c 128
 281.333333333 356.666666667 256 367 226 367 c 257
 218 367 210 366 202 364 c 257
 202 157 l 257
202 780 m 257
 202 517 l 257
 207.333333333 517.666666667 215.333333333 518 226 518 c 257
 297.333333333 518 358.166666667 492.833333333 408.5 442.5 c 128
 458.833333333 392.166666667 484 331.333333333 484 260 c 128
 484 188.666666667 458.833333333 128 408.5 78 c 128
 358.166666667 28 297.333333333 3 226 3 c 257
 215.333333333 3 207.333333333 3.33333333333 202 4 c 257
 50 4 l 257
 50 780 l 257
 202 780 l 257
EndSplineSet
EndChar

StartChar: backslash
Encoding: 538 92 538
GlifName: backslash
Width: 691
VWidth: 0
GlyphClass: 2
Flags: HW
LayerCount: 2
Fore
SplineSet
156 818 m 257
 641 -22 l 257
 535 -83 l 257
 50 757 l 257
 156 818 l 257
EndSplineSet
EndChar

StartChar: backslash.0
Encoding: 539 -1 539
GlifName: backslash.0
Width: 691
VWidth: 0
GlyphClass: 2
Flags: HW
LayerCount: 2
Fore
SplineSet
106 828 m 257
 0 767 l 257
 485 -73 l 257
 591 -12 l 257
 106 828 l 257
EndSplineSet
EndChar

StartChar: bar
Encoding: 542 124 542
GlifName: bar
Width: 222
VWidth: 0
GlyphClass: 2
Flags: HW
LayerCount: 2
Fore
SplineSet
50 871 m 257
 172 871 l 257
 172 -99 l 257
 50 -99 l 257
 50 871 l 257
EndSplineSet
EndChar

StartChar: braceleft
Encoding: 546 123 546
GlifName: braceleft
Width: 372
VWidth: 0
GlyphClass: 2
Flags: HW
LayerCount: 2
Fore
SplineSet
322 -85 m 257
 312 -89.6666666667 299.666666667 -92 285 -92 c 257
 255.666666667 -92 229.5 -78 206.5 -50 c 128
 183.5 -22 168 14 160 58 c 257
 159 228 l 257
 50 358 l 257
 159 485 l 257
 160 655 l 257
 168 699 183.5 735 206.5 763 c 128
 229.5 791 255.666666667 805 285 805 c 257
 299.666666667 805 312 802.666666667 322 798 c 257
 322 663 l 257
 311.333333333 677 299 684 285 684 c 257
 269 684 255.333333333 674 244 654 c 257
 245 470 l 257
 163 369 l 257
 244 228 l 257
 244 58 l 257
 254.666666667 38.6666666667 268.333333333 29 285 29 c 257
 299 29 311.333333333 36 322 50 c 257
 322 -85 l 257
EndSplineSet
EndChar

StartChar: braceright
Encoding: 550 125 550
GlifName: braceright
Width: 372
VWidth: 0
GlyphClass: 2
Flags: HW
LayerCount: 2
Fore
SplineSet
50 -85 m 257
 50 50 l 257
 60.6666666667 36 73 29 87 29 c 257
 103.666666667 29 117.333333333 38.6666666667 128 58 c 257
 128 228 l 257
 209 369 l 257
 127 470 l 257
 128 654 l 257
 116.666666667 674 103 684 87 684 c 257
 73 684 60.6666666667 677 50 663 c 257
 50 798 l 257
 60 802.666666667 72.3333333333 805 87 805 c 257
 116.333333333 805 142.5 791 165.5 763 c 128
 188.5 735 204 699 212 655 c 257
 213 485 l 257
 322 358 l 257
 213 228 l 257
 212 58 l 257
 204 14 188.5 -22 165.5 -50 c 128
 142.5 -78 116.333333333 -92 87 -92 c 257
 72.3333333333 -92 60 -89.6666666667 50 -85 c 257
EndSplineSet
EndChar

StartChar: bracketleft
Encoding: 554 91 554
GlifName: bracketleft
Width: 362
VWidth: 0
GlyphClass: 2
Flags: HW
LayerCount: 2
Fore
SplineSet
51 -80 m 257
 50 -80 l 257
 50 -79 l 257
 50 773 l 257
 50 774 l 257
 51 774 l 257
 312 774 l 257
 311 689 l 257
 144 689 l 257
 144 5 l 257
 311 5 l 257
 312 -80 l 257
 51 -80 l 257
EndSplineSet
EndChar

StartChar: bracketright
Encoding: 558 93 558
GlifName: bracketright
Width: 362
VWidth: 0
GlyphClass: 2
Flags: HW
LayerCount: 2
Fore
SplineSet
311 -81 m 257
 50 -81 l 257
 51 4 l 257
 218 4 l 257
 218 689 l 257
 51 689 l 257
 50 774 l 257
 311 774 l 257
 312 774 l 257
 312 773 l 257
 312 -80 l 257
 312 -81 l 257
 311 -81 l 257
EndSplineSet
EndChar

StartChar: brokenbar
Encoding: 566 166 566
GlifName: brokenbar
Width: 252
VWidth: 0
GlyphClass: 2
Flags: HW
LayerCount: 2
Fore
SplineSet
202 833 m 257
 202 459 l 257
 50 459 l 257
 50 833 l 257
 202 833 l 257
202 370 m 257
 202 -30 l 257
 50 -30 l 257
 50 370 l 257
 202 370 l 257
EndSplineSet
EndChar

StartChar: c
Encoding: 570 99 570
GlifName: c
Width: 384
VWidth: 0
GlyphClass: 2
Flags: HW
LayerCount: 2
Fore
SplineSet
334 4 m 257
 325.333333333 3.33333333333 316.666666667 3 308 3 c 257
 236.666666667 3 175.833333333 28 125.5 78 c 128
 75.1666666667 128 50 188.666666667 50 260 c 128
 50 331.333333333 75.1666666667 392.166666667 125.5 442.5 c 128
 175.833333333 492.833333333 236.666666667 518 308 518 c 257
 316.666666667 518 325.333333333 517.666666667 334 517 c 257
 334 364 l 257
 325.333333333 366 316.666666667 367 308 367 c 257
 278 367 252.666666667 356.666666667 232 336 c 128
 211.333333333 315.333333333 201 290 201 260 c 257
 201 230.666666667 211.333333333 205.666666667 232 185 c 128
 252.666666667 164.333333333 278 154 308 154 c 257
 316.666666667 154 325.333333333 155 334 157 c 257
 334 4 l 257
EndSplineSet
EndChar

StartChar: cent
Encoding: 602 162 602
GlifName: cent
Width: 384
VWidth: 0
GlyphClass: 2
Flags: HW
LayerCount: 2
Fore
SplineSet
334 4 m 257
 325.333333333 3.33333333333 316.666666667 3 308 3 c 257
 300 3 292.333333333 3.33333333333 285 4 c 257
 285 -99 l 257
 238 -99 l 257
 238 13 l 257
 183.333333333 27.6666666667 138.333333333 57.8333333333 103 103.5 c 128
 67.6666666667 149.166666667 50 201.333333333 50 260 c 257
 50 318.666666667 67.6666666667 370.833333333 103 416.5 c 128
 138.333333333 462.166666667 183.333333333 492.666666667 238 508 c 257
 238 700 l 257
 285 700 l 257
 285 517 l 257
 292.333333333 517.666666667 300 518 308 518 c 257
 316.666666667 518 325.333333333 517.666666667 334 517 c 257
 334 364 l 257
 325.333333333 366 316.666666667 367 308 367 c 257
 300 367 292.333333333 366.333333333 285 365 c 257
 285 156 l 257
 292.333333333 154.666666667 300 154 308 154 c 257
 316.666666667 154 325.333333333 155 334 157 c 257
 334 4 l 257
238 342 m 257
 213.333333333 320.666666667 201 293.333333333 201 260 c 257
 201 227.333333333 213.333333333 200.333333333 238 179 c 257
 238 342 l 257
EndSplineSet
EndChar

StartChar: colon
Encoding: 610 58 610
GlifName: colon
Width: 252
VWidth: 0
GlyphClass: 2
Flags: HW
LayerCount: 2
Fore
SplineSet
50 -2 m 257
 50 140 l 257
 202 140 l 257
 202 -2 l 257
 50 -2 l 257
50 398 m 257
 50 540 l 257
 202 540 l 257
 202 398 l 257
 50 398 l 257
EndSplineSet
EndChar

StartChar: comma
Encoding: 614 44 614
GlifName: comma
Width: 252
VWidth: 0
GlyphClass: 2
Flags: HW
LayerCount: 2
Fore
SplineSet
50 -2 m 257
 50 140 l 257
 202 140 l 257
 202 -2 l 257
 142 -134 l 257
 84 -130 l 257
 93 -2 l 257
 50 -2 l 257
EndSplineSet
EndChar

StartChar: copyright
Encoding: 618 169 618
GlifName: copyright
Width: 796
VWidth: 0
GlyphClass: 2
Flags: HW
LayerCount: 2
Fore
SplineSet
691 378 m 257
 691 460.666666667 662.5 531.333333333 605.5 590 c 128
 548.5 648.666666667 479.333333333 678 398 678 c 128
 316.666666667 678 247.5 648.666666667 190.5 590 c 128
 133.5 531.333333333 105 460.666666667 105 378 c 257
 105 294.666666667 133.5 223.666666667 190.5 165 c 128
 247.5 106.333333333 316.666666667 77 398 77 c 128
 479.333333333 77 548.5 106.333333333 605.5 165 c 128
 662.5 223.666666667 691 294.666666667 691 378 c 257
746 380 m 257
 746 314.666666667 730.5 254.5 699.5 199.5 c 128
 668.5 144.5 626.333333333 101 573 69 c 128
 519.666666667 37 461.333333333 21 398 21 c 128
 334.666666667 21 276.333333333 37 223 69 c 128
 169.666666667 101 127.5 144.5 96.5 199.5 c 128
 65.5 254.5 50 314.666666667 50 380 c 257
 50 444.666666667 65.5 504.5 96.5 559.5 c 128
 127.5 614.5 169.666666667 658 223 690 c 128
 276.333333333 722 334.666666667 738 398 738 c 128
 461.333333333 738 519.666666667 722 573 690 c 128
 626.333333333 658 668.5 614.5 699.5 559.5 c 128
 730.5 504.5 746 444.666666667 746 380 c 257
459 196 m 257
 453.666666667 195.333333333 448.333333333 195 443 195 c 257
 398.333333333 195 360.333333333 210.666666667 329 242 c 128
 297.666666667 273.333333333 282 311 282 355 c 257
 282 399.666666667 297.666666667 437.833333333 329 469.5 c 128
 360.333333333 501.166666667 398.333333333 517 443 517 c 257
 448.333333333 517 453.666666667 516.666666667 459 516 c 257
 459 420 l 257
 453.666666667 421.333333333 448.333333333 422 443 422 c 257
 424.333333333 422 408.5 415.666666667 395.5 403 c 128
 382.5 390.333333333 376 374.333333333 376 355 c 257
 376 337 382.5 321.5 395.5 308.5 c 128
 408.5 295.5 424.333333333 289 443 289 c 257
 448.333333333 289 453.666666667 289.666666667 459 291 c 257
 459 196 l 257
EndSplineSet
EndChar

StartChar: d
Encoding: 622 100 622
GlifName: d
Width: 534
VWidth: 0
GlyphClass: 2
Flags: HW
LayerCount: 2
Fore
SplineSet
332 157 m 257
 332 364 l 257
 324 366 316 367 308 367 c 257
 278 367 252.666666667 356.666666667 232 336 c 128
 211.333333333 315.333333333 201 290 201 260 c 257
 201 230.666666667 211.333333333 205.666666667 232 185 c 128
 252.666666667 164.333333333 278 154 308 154 c 257
 316 154 324 155 332 157 c 257
332 780 m 257
 484 780 l 257
 484 4 l 257
 332 4 l 257
 324 3.33333333333 316 3 308 3 c 257
 236.666666667 3 175.833333333 28 125.5 78 c 128
 75.1666666667 128 50 188.666666667 50 260 c 128
 50 331.333333333 75.1666666667 392.166666667 125.5 442.5 c 128
 175.833333333 492.833333333 236.666666667 518 308 518 c 257
 316 518 324 517.666666667 332 517 c 257
 332 780 l 257
EndSplineSet
EndChar

StartChar: dcaron
Encoding: 626 271 626
GlifName: dcaron
Width: 718
VWidth: 0
GlyphClass: 2
Flags: HW
LayerCount: 2
Fore
SplineSet
332 157 m 257
 332 364 l 257
 324 366 316 367 308 367 c 257
 278 367 252.666666667 356.666666667 232 336 c 128
 211.333333333 315.333333333 201 290 201 260 c 257
 201 230.666666667 211.333333333 205.666666667 232 185 c 128
 252.666666667 164.333333333 278 154 308 154 c 257
 316 154 324 155 332 157 c 257
332 780 m 257
 484 780 l 257
 484 4 l 257
 332 4 l 257
 324 3.33333333333 316 3 308 3 c 257
 236.666666667 3 175.833333333 28 125.5 78 c 128
 75.1666666667 128 50 188.666666667 50 260 c 128
 50 331.333333333 75.1666666667 392.166666667 125.5 442.5 c 128
 175.833333333 492.833333333 236.666666667 518 308 518 c 257
 316 518 324 517.666666667 332 517 c 257
 332 780 l 257
516 532 m 257
 516 789 l 257
 668 789 l 257
 623 532 l 257
 516 532 l 257
EndSplineSet
EndChar

StartChar: dcroat
Encoding: 630 273 630
GlifName: dcroat
Width: 585
VWidth: 0
GlyphClass: 2
Flags: HW
LayerCount: 2
Fore
SplineSet
332 157 m 257
 332 364 l 257
 324 366 316 367 308 367 c 257
 278 367 252.666666667 356.666666667 232 336 c 128
 211.333333333 315.333333333 201 290 201 260 c 257
 201 230.666666667 211.333333333 205.666666667 232 185 c 128
 252.666666667 164.333333333 278 154 308 154 c 257
 316 154 324 155 332 157 c 257
332 780 m 257
 484 780 l 257
 484 739 l 257
 535 739 l 257
 535 587 l 257
 484 587 l 257
 484 4 l 257
 332 4 l 257
 324 3.33333333333 316 3 308 3 c 257
 236.666666667 3 175.833333333 28 125.5 78 c 128
 75.1666666667 128 50 188.666666667 50 260 c 128
 50 331.333333333 75.1666666667 392.166666667 125.5 442.5 c 128
 175.833333333 492.833333333 236.666666667 518 308 518 c 257
 316 518 324 517.666666667 332 517 c 257
 332 587 l 257
 264 587 l 257
 264 739 l 257
 332 739 l 257
 332 780 l 257
EndSplineSet
EndChar

StartChar: dieresis
Encoding: 638 168 638
GlifName: dieresis
Width: 452
VWidth: 0
GlyphClass: 2
Flags: HW
LayerCount: 2
Fore
SplineSet
50 -2 m 257
 50 140 l 257
 202 140 l 257
 202 -2 l 257
 50 -2 l 257
250 -2 m 257
 250 140 l 257
 402 140 l 257
 402 -2 l 257
 250 -2 l 257
EndSplineSet
EndChar

StartChar: divide
Encoding: 642 247 642
GlifName: divide
Width: 644
VWidth: 0
GlyphClass: 2
Flags: HW
LayerCount: 2
Fore
SplineSet
250 151 m 257
 250 293 l 257
 402 293 l 257
 402 151 l 257
 250 151 l 257
250 551 m 257
 250 693 l 257
 402 693 l 257
 402 551 l 257
 250 551 l 257
594 496 m 257
 594 344 l 257
 50 344 l 257
 50 496 l 257
 594 496 l 257
EndSplineSet
EndChar

StartChar: dollar
Encoding: 646 36 646
GlifName: dollar
Width: 519
VWidth: 0
GlyphClass: 2
Flags: HW
LayerCount: 2
Fore
SplineSet
243 586 m 257
 237 580 231.666666667 573 227 565 c 257
 210.333333333 537.666666667 208.666666667 507.666666667 222 475 c 257
 228 462.333333333 235 451.666666667 243 443 c 257
 243 586 l 257
50 57 m 257
 125 182 l 257
 130.333333333 178 137.666666667 173 147 167 c 257
 172.333333333 152.333333333 199.333333333 148.333333333 228 155 c 257
 233.333333333 156.333333333 238.333333333 158 243 160 c 257
 243 310 l 257
 236.333333333 312 229.333333333 313.666666667 222 315 c 257
 189.333333333 333 161 353 137 375 c 128
 113 397 94 421.666666667 80 449 c 128
 66 476.333333333 60 506.333333333 62 539 c 128
 64 571.666666667 75.3333333333 605 96 639 c 257
 130 695 179 734.666666667 243 758 c 257
 243 1030 l 257
 322 1030 l 257
 322 774 l 257
 369.333333333 776 411.333333333 760.333333333 448 727 c 257
 450 725 453.5 722.5 458.5 719.5 c 128
 463.5 716.5 467 714 469 712 c 257
 394 587 l 257
 386 593.666666667 378.666666667 598.666666667 372 602 c 257
 356 610.666666667 339.333333333 615.333333333 322 616 c 257
 322 401 l 257
 341.333333333 389 358.333333333 377.333333333 373 366 c 257
 395 348 414.166666667 327.333333333 430.5 304 c 128
 446.833333333 280.666666667 454.5 254.333333333 453.5 225 c 128
 452.5 195.666666667 442 164 422 130 c 257
 398.666666667 90.6666666667 365.333333333 58 322 32 c 257
 322 -182 l 257
 243 -182 l 257
 243 0 l 257
 225.666666667 -4 208.666666667 -6 192 -6 c 257
 147.333333333 -6.66666666667 107 9.33333333333 71 42 c 257
 69 44 65.5 46.5 60.5 49.5 c 128
 55.5 52.5 52 55 50 57 c 257
EndSplineSet
EndChar

StartChar: dotbelowcomb
Encoding: 654 803 654
GlifName: dotbelowcomb
Width: 252
VWidth: 0
GlyphClass: 4
Flags: HW
LayerCount: 2
Fore
SplineSet
50 -2 m 257
 50 140 l 257
 202 140 l 257
 202 -2 l 257
 50 -2 l 257
EndSplineSet
EndChar

StartChar: dotlessi
Encoding: 658 305 658
GlifName: dotlessi
Width: 252
VWidth: 0
GlyphClass: 2
Flags: HW
LayerCount: 2
Fore
SplineSet
50 512 m 257
 202 512 l 257
 202 -2 l 257
 50 -2 l 257
 50 512 l 257
EndSplineSet
EndChar

StartChar: e
Encoding: 662 101 662
GlifName: e
Width: 617
VWidth: 0
GlyphClass: 2
Flags: HW
LayerCount: 2
Fore
SplineSet
211 297 m 257
 407 294 l 257
 404.333333333 296.666666667 397.666666667 304.333333333 387 317 c 128
 376.333333333 329.666666667 368 339.166666667 362 345.5 c 128
 356 351.833333333 347.833333333 358.333333333 337.5 365 c 128
 327.166666667 371.666666667 317.333333333 375 308 375 c 257
 298.666666667 375 289 371.833333333 279 365.5 c 128
 269 359.166666667 260.833333333 352.666666667 254.5 346 c 128
 248.166666667 339.333333333 240 330.333333333 230 319 c 128
 220 307.666666667 213.666666667 300.333333333 211 297 c 257
566 260 m 257
 566 253.333333333 566.166666667 244.166666667 566.5 232.5 c 128
 566.833333333 220.833333333 567 212.666666667 567 208 c 257
 216 205 l 257
 225.333333333 189.666666667 238.166666667 177.333333333 254.5 168 c 128
 270.833333333 158.666666667 288.666666667 154 308 154 c 257
 330.666666667 154 376.5 154.833333333 445.5 156.5 c 128
 514.5 158.166666667 551.666666667 160 557 162 c 257
 557 6 l 257
 544.333333333 4 461.333333333 3 308 3 c 257
 236.666666667 3 175.833333333 28 125.5 78 c 128
 75.1666666667 128 50 188.666666667 50 260 c 128
 50 331.333333333 75.1666666667 392.166666667 125.5 442.5 c 128
 175.833333333 492.833333333 236.666666667 518 308 518 c 128
 379.333333333 518 440.166666667 492.833333333 490.5 442.5 c 128
 540.833333333 392.166666667 566 331.333333333 566 260 c 257
EndSplineSet
EndChar

StartChar: eight
Encoding: 694 56 694
GlifName: eight
Width: 558
VWidth: 0
GlyphClass: 2
Flags: HW
LayerCount: 2
Fore
SplineSet
278 3 m 257
 277 3 l 257
 276 3 276 3 274 3 c 257
 269.333333333 3 265.333333333 3.33333333333 262 4 c 257
 202 8 151.666666667 31.6666666667 111 75 c 128
 70.3333333333 118.333333333 50 169.666666667 50 229 c 257
 50 279 64.6666666667 324 94 364 c 257
 64.6666666667 403.333333333 50 448 50 498 c 257
 50 558 70.3333333333 609.666666667 111 653 c 128
 151.666666667 696.333333333 202 720 262 724 c 257
 265.333333333 724.666666667 269.333333333 725 274 725 c 257
 276 725 276 725 277 725 c 257
 278 725 l 257
 279 725 279 725 281 725 c 257
 343.666666667 725 397.166666667 702.833333333 441.5 658.5 c 128
 485.833333333 614.166666667 508 560.666666667 508 498 c 257
 508 448 493.333333333 403.333333333 464 364 c 257
 493.333333333 324 508 279 508 229 c 257
 508 167 485.833333333 113.833333333 441.5 69.5 c 128
 397.166666667 25.1666666667 343.666666667 3 281 3 c 257
 280 3 280 3 279 3 c 258
 278 3 l 257
279 592 m 257
 271.666666667 592 264.666666667 591 258 589 c 257
 258 590 l 257
 236 585.333333333 218 574.5 204 557.5 c 128
 190 540.5 183 520.666666667 183 498 c 257
 183 475.333333333 190 455.5 204 438.5 c 128
 218 421.5 236 410.666666667 258 406 c 257
 258 407 l 257
 264.666666667 405.666666667 271.666666667 404.666666667 279 404 c 257
 286.333333333 404.666666667 293.333333333 405.666666667 300 407 c 257
 300 406 l 257
 322 410.666666667 340 421.5 354 438.5 c 128
 368 455.5 375 475.333333333 375 498 c 257
 375 520.666666667 368 540.5 354 557.5 c 128
 340 574.5 322 585.333333333 300 590 c 257
 300 589 l 257
 293.333333333 591 286.333333333 592 279 592 c 257
279 324 m 257
 271.666666667 323.333333333 264.666666667 322.333333333 258 321 c 257
 258 322 l 257
 236 317.333333333 218 306.5 204 289.5 c 128
 190 272.5 183 252.333333333 183 229 c 257
 183 207 190 187.5 204 170.5 c 128
 218 153.5 236 142.666666667 258 138 c 257
 258 139 l 257
 264.666666667 137 271.666666667 136 279 136 c 257
 286.333333333 136 293.333333333 137 300 139 c 257
 300 138 l 257
 322 142.666666667 340 153.5 354 170.5 c 128
 368 187.5 375 207 375 229 c 257
 375 252.333333333 368 272.5 354 289.5 c 128
 340 306.5 322 317.333333333 300 322 c 257
 300 321 l 257
 293.333333333 322.333333333 286.333333333 323.333333333 279 324 c 257
EndSplineSet
EndChar

StartChar: equal
Encoding: 706 61 706
GlifName: equal
Width: 644
VWidth: 0
GlyphClass: 2
Flags: HW
LayerCount: 2
Fore
SplineSet
594 546 m 257
 594 394 l 257
 50 394 l 257
 50 546 l 257
 594 546 l 257
594 296 m 257
 594 144 l 257
 50 144 l 257
 50 296 l 257
 594 296 l 257
EndSplineSet
EndChar

StartChar: eth
Encoding: 710 240 710
GlifName: eth
Width: 612
VWidth: 0
GlyphClass: 2
Flags: HW
LayerCount: 2
Fore
SplineSet
135 780 m 257
 287 780 l 257
 292.333333333 775.333333333 297.333333333 771 302 767 c 257
 340 805 l 257
 427 729 l 257
 387 689 l 257
 418.333333333 657 445.333333333 625.5 468 594.5 c 128
 490.666666667 563.5 511 526.333333333 529 483 c 128
 547 439.666666667 557.833333333 395.166666667 561.5 349.5 c 128
 565.166666667 303.833333333 561 251.166666667 549 191.5 c 128
 537 131.833333333 515.333333333 69.3333333333 484 4 c 257
 332 4 l 257
 324 3.33333333333 316 3 308 3 c 257
 236.666666667 3 175.833333333 28 125.5 78 c 128
 75.1666666667 128 50 188.666666667 50 260 c 128
 50 331.333333333 75.1666666667 392.166666667 125.5 442.5 c 128
 175.833333333 492.833333333 236.666666667 518 308 518 c 257
 316 518 324 517.666666667 332 517 c 257
 282 584 l 257
 245 547 l 257
 158 623 l 257
 212 677 l 257
 135 780 l 257
310 367 m 257
 301.333333333 367 293.333333333 366 286 364 c 257
 286 365 l 257
 261.333333333 359.666666667 241 347.333333333 225 328 c 128
 209 308.666666667 201 286 201 260 c 257
 201 234.666666667 209 212.333333333 225 193 c 128
 241 173.666666667 261.333333333 161.333333333 286 156 c 257
 286 157 l 257
 293.333333333 155 301.333333333 154 310 154 c 257
 318 154 326 155 334 157 c 257
 334 156 l 257
 358.666666667 161.333333333 379 173.666666667 395 193 c 128
 411 212.333333333 419 234.666666667 419 260 c 257
 419 286 411 308.666666667 395 328 c 128
 379 347.333333333 358.666666667 359.666666667 334 365 c 257
 334 364 l 257
 326 366 318 367 310 367 c 257
EndSplineSet
EndChar

StartChar: exclam
Encoding: 714 33 714
GlifName: exclam
Width: 252
VWidth: 0
GlyphClass: 2
Flags: HW
LayerCount: 2
Fore
SplineSet
50 -2 m 257
 50 140 l 257
 202 140 l 257
 202 -2 l 257
 50 -2 l 257
50 258 m 257
 50 772 l 257
 202 772 l 257
 202 258 l 257
 50 258 l 257
EndSplineSet
EndChar

StartChar: exclamdown
Encoding: 718 161 718
GlifName: exclamdown
Width: 252
VWidth: 0
GlyphClass: 2
Flags: HW
LayerCount: 2
Fore
SplineSet
202 772 m 257
 202 630 l 257
 50 630 l 257
 50 772 l 257
 202 772 l 257
202 512 m 257
 202 -2 l 257
 50 -2 l 257
 50 512 l 257
 202 512 l 257
EndSplineSet
EndChar

StartChar: f
Encoding: 722 102 722
GlifName: f
Width: 514
VWidth: 0
GlyphClass: 2
Flags: HW
LayerCount: 2
Fore
SplineSet
464 752 m 257
 464 584 l 257
 443.333333333 601.333333333 419.666666667 610 393 610 c 257
 360.333333333 610 333.333333333 597.666666667 312 573 c 257
 312 511 l 257
 409 511 l 257
 409 359 l 257
 312 359 l 257
 312 -3 l 257
 145 -3 l 257
 147 359 l 257
 50 359 l 257
 50 511 l 257
 148 511 l 257
 148 574 l 257
 164 629.333333333 194.333333333 674.333333333 239 709 c 128
 283.666666667 743.666666667 335 761 393 761 c 257
 417.666666667 761 441.333333333 758 464 752 c 257
EndSplineSet
EndChar

StartChar: five
Encoding: 726 53 726
GlifName: five
Width: 418
VWidth: 0
GlyphClass: 2
Flags: HW
LayerCount: 2
Fore
SplineSet
50 4 m 257
 50 157 l 257
 58 155 66.6666666667 154 76 154 c 257
 106 154 131.333333333 164.333333333 152 185 c 128
 172.666666667 205.666666667 183 230.666666667 183 260 c 257
 183 290 172.666666667 315.333333333 152 336 c 128
 131.333333333 356.666666667 106 367 76 367 c 257
 66.6666666667 367 58 366 50 364 c 257
 50 397 l 257
 50 517 l 257
 50 773 l 257
 51 773 l 257
 51 774 l 257
 368 774 l 257
 367 622 l 257
 202 622 l 257
 202 485 l 257
 242 462.333333333 274 431.166666667 298 391.5 c 128
 322 351.833333333 334 308 334 260 c 257
 334 188.666666667 308.833333333 128 258.5 78 c 128
 208.166666667 28 147.333333333 3 76 3 c 257
 64.6666666667 3 56 3.33333333333 50 4 c 257
EndSplineSet
EndChar

StartChar: four
Encoding: 730 52 730
GlifName: four
Width: 565
VWidth: 0
GlyphClass: 2
Flags: HW
LayerCount: 2
Fore
SplineSet
378 341 m 257
 378 521 l 257
 280 344 l 257
 378 341 l 257
386 0 m 257
 386 192 l 257
 385 191 l 257
 50 191 l 257
 372 774 l 257
 515 774 l 257
 515 0 l 257
 386 0 l 257
EndSplineSet
EndChar

StartChar: g
Encoding: 734 103 734
GlifName: g
Width: 620
VWidth: 0
GlyphClass: 2
Flags: HW
LayerCount: 2
Fore
SplineSet
309 3 m 257
 308 3 l 257
 306 3 306 3 304 3 c 257
 300 3 l 257
 275.333333333 3 261.666666667 3.33333333333 259 4 c 257
 193.666666667 8.66666666667 142.5 34.8333333333 105.5 82.5 c 128
 68.5 130.166666667 50 189.333333333 50 260 c 257
 50 328 73.1666666667 386.833333333 119.5 436.5 c 128
 165.833333333 486.166666667 222.666666667 513 290 517 c 257
 294 517.666666667 298.666666667 518 304 518 c 257
 306 518 306 518 308 518 c 257
 309 518 l 257
 310 518 310 518 312 518 c 257
 383.333333333 518 444.166666667 493 494.5 443 c 128
 544.833333333 393 570 332.333333333 570 261 c 257
 570 260 l 257
 570 257 570 257 570 253 c 257
 567 -18 l 257
 551 -73.3333333333 521.166666667 -118.333333333 477.5 -153 c 128
 433.833333333 -187.666666667 383 -205 325 -205 c 257
 211 -205 142.666666667 -202 120 -196 c 257
 120 -28 l 257
 128 -34.6666666667 158.333333333 -40.6666666667 211 -46 c 128
 263.666666667 -51.3333333333 301.666666667 -54 325 -54 c 257
 342.333333333 -54 359.833333333 -50.6666666667 377.5 -44 c 128
 395.166666667 -37.3333333333 409 -28.3333333333 419 -17 c 257
 419 26 l 257
 385 10.6666666667 349.333333333 3 312 3 c 257
 311 3 311 3 310 3 c 258
 309 3 l 257
310 367 m 257
 301.333333333 367 293.333333333 366 286 364 c 257
 286 365 l 257
 261.333333333 359.666666667 241 347.333333333 225 328 c 128
 209 308.666666667 201 286 201 260 c 257
 201 234.666666667 209 212.333333333 225 193 c 128
 241 173.666666667 261.333333333 161.333333333 286 156 c 257
 286 157 l 257
 293.333333333 155 301.333333333 154 310 154 c 257
 318 154 326 155 334 157 c 257
 334 156 l 257
 358.666666667 161.333333333 379 173.666666667 395 193 c 128
 411 212.333333333 419 234.666666667 419 260 c 257
 419 286 411 308.666666667 395 328 c 128
 379 347.333333333 358.666666667 359.666666667 334 365 c 257
 334 364 l 257
 326 366 318 367 310 367 c 257
EndSplineSet
EndChar

StartChar: germandbls
Encoding: 750 223 750
GlifName: germandbls
Width: 836
VWidth: 0
GlyphClass: 2
Flags: HW
LayerCount: 2
Fore
SplineSet
283 47 m 257
 350 159 l 257
 354.666666667 154.333333333 362 150.333333333 372 147 c 257
 398.666666667 135.666666667 422.5 131.333333333 443.5 134 c 128
 464.5 136.666666667 481.666666667 146 495 162 c 257
 510.333333333 180 503 193 473 201 c 257
 465 203 447 206.333333333 419 211 c 257
 375 228.333333333 339.666666667 248.5 313 271.5 c 128
 286.333333333 294.5 270.333333333 320 265 348 c 128
 259.666666667 376 269.666666667 404.666666667 295 434 c 257
 300.333333333 440.666666667 308.666666667 451.333333333 320 466 c 128
 331.333333333 480.666666667 340 491.5 346 498.5 c 128
 352 505.5 360.5 514.5 371.5 525.5 c 128
 382.5 536.5 392.666666667 544.166666667 402 548.5 c 128
 411.333333333 552.833333333 422.5 556.833333333 435.5 560.5 c 128
 448.5 564.166666667 462.5 564.833333333 477.5 562.5 c 128
 492.5 560.166666667 508.666666667 555.666666667 526 549 c 257
 527 549 527 549 528 549 c 257
 558 549 583.333333333 559.333333333 604 580 c 128
 624.666666667 600.666666667 635 626 635 656 c 257
 635 676 603.166666667 691.333333333 539.5 702 c 128
 475.833333333 712.666666667 409.666666667 716.166666667 341 712.5 c 128
 272.333333333 708.833333333 231 699 217 683 c 257
 217 2 l 257
 50 2 l 257
 53 684 l 257
 69 739.333333333 99.3333333333 784.333333333 144 819 c 257
 171.333333333 840.333333333 211.333333333 855.166666667 264 863.5 c 128
 316.666666667 871.833333333 372.333333333 872.666666667 431 866 c 128
 489.666666667 859.333333333 545.833333333 847.833333333 599.5 831.5 c 128
 653.166666667 815.166666667 697.666666667 791.333333333 733 760 c 128
 768.333333333 728.666666667 786 694 786 656 c 257
 786 604.666666667 782.166666667 563.333333333 774.5 532 c 128
 766.833333333 500.666666667 756.333333333 478.666666667 743 466 c 128
 729.666666667 453.333333333 714.666666667 445.333333333 698 442 c 128
 681.333333333 438.666666667 662.833333333 438.166666667 642.5 440.5 c 128
 622.166666667 442.833333333 602.333333333 444.666666667 583 446 c 128
 563.666666667 447.333333333 543.666666667 444.5 523 437.5 c 128
 502.333333333 430.5 484.666666667 418 470 400 c 257
 459.333333333 388 452.5 373 449.5 355 c 128
 446.5 337 449.333333333 320 458 304 c 128
 466.666666667 288 481 278.333333333 501 275 c 257
 527 263.666666667 549.666666667 253.166666667 569 243.5 c 128
 588.333333333 233.833333333 606.833333333 222.333333333 624.5 209 c 128
 642.166666667 195.666666667 654.833333333 182.5 662.5 169.5 c 128
 670.166666667 156.5 673.166666667 141.833333333 671.5 125.5 c 128
 669.833333333 109.166666667 661.666666667 92.3333333333 647 75 c 257
 615.666666667 37 566.666666667 13.8333333333 500 5.5 c 128
 433.333333333 -2.83333333333 368.333333333 6.66666666667 305 34 c 257
 299.666666667 35.3333333333 292.333333333 39.6666666667 283 47 c 257
EndSplineSet
EndChar

StartChar: grave
Encoding: 754 96 754
GlifName: grave
Width: 390
VWidth: 0
GlyphClass: 2
Flags: HW
LayerCount: 2
Fore
SplineSet
232 516 m 257
 50 698 l 257
 158 805 l 257
 340 623 l 257
 232 516 l 257
EndSplineSet
EndChar

StartChar: gravecomb
Encoding: 758 768 758
GlifName: gravecomb
Width: 0
VWidth: 0
GlyphClass: 4
Flags: HW
LayerCount: 2
Fore
SplineSet
37 516 m 257
 -145 698 l 257
 -37 805 l 257
 145 623 l 257
 37 516 l 257
EndSplineSet
EndChar

StartChar: greater
Encoding: 762 62 762
GlifName: greater
Width: 644
VWidth: 0
GlyphClass: 2
Flags: HW
LayerCount: 2
Fore
SplineSet
50 546 m 257
 594 403 l 257
 594 402 l 257
 594 251 l 257
 594 250 l 257
 50 144 l 257
 50 296 l 257
 264 338 l 257
 50 394 l 257
 50 546 l 257
EndSplineSet
EndChar

StartChar: guillemotleft
Encoding: 766 171 766
GlifName: guillemotleft
Width: 1244
VWidth: 0
GlyphClass: 2
Flags: HW
LayerCount: 2
Fore
SplineSet
594 663 m 257
 594 511 l 257
 188 338 l 257
 594 158 l 257
 594 6 l 257
 50 250 l 257
 50 251 l 257
 50 402 l 257
 50 403 l 257
 594 663 l 257
1194 663 m 257
 1194 511 l 257
 788 338 l 257
 1194 158 l 257
 1194 6 l 257
 650 250 l 257
 650 251 l 257
 650 402 l 257
 650 403 l 257
 1194 663 l 257
EndSplineSet
EndChar

StartChar: guillemotright
Encoding: 770 187 770
GlifName: guillemotright
Width: 1244
VWidth: 0
GlyphClass: 2
Flags: HW
LayerCount: 2
Fore
SplineSet
650 663 m 257
 1194 403 l 257
 1194 402 l 257
 1194 251 l 257
 1194 250 l 257
 650 6 l 257
 650 158 l 257
 1056 338 l 257
 650 511 l 257
 650 663 l 257
50 663 m 257
 594 403 l 257
 594 402 l 257
 594 251 l 257
 594 250 l 257
 50 6 l 257
 50 158 l 257
 456 338 l 257
 50 511 l 257
 50 663 l 257
EndSplineSet
EndChar

StartChar: h
Encoding: 774 104 774
GlifName: h
Width: 597
VWidth: 0
GlyphClass: 2
Flags: HW
LayerCount: 2
Fore
SplineSet
50 768 m 257
 219 768 l 257
 219 512 l 257
 245 520 271.666666667 524 299 524 c 257
 357 524 408.333333333 506.666666667 453 472 c 128
 497.666666667 437.333333333 528 392.333333333 544 337 c 257
 547 6 l 257
 380 6 l 257
 380 336 l 257
 358.666666667 360.666666667 331.666666667 373 299 373 c 257
 267 373 240.333333333 361.333333333 219 338 c 257
 219 6 l 257
 50 6 l 257
 50 768 l 257
EndSplineSet
EndChar

StartChar: hbar
Encoding: 778 295 778
GlifName: hbar
Width: 658
VWidth: 0
GlyphClass: 2
Flags: HW
LayerCount: 2
Fore
SplineSet
338 731 m 257
 338 579 l 257
 280 579 l 257
 280 512 l 257
 306 520 332.666666667 524 360 524 c 257
 418 524 469.333333333 506.666666667 514 472 c 128
 558.666666667 437.333333333 589 392.333333333 605 337 c 257
 608 6 l 257
 441 6 l 257
 441 336 l 257
 419.666666667 360.666666667 392.666666667 373 360 373 c 257
 328 373 301.333333333 361.333333333 280 338 c 257
 280 6 l 257
 111 6 l 257
 111 579 l 257
 50 579 l 257
 50 731 l 257
 111 731 l 257
 111 768 l 257
 280 768 l 257
 280 731 l 257
 338 731 l 257
EndSplineSet
EndChar

StartChar: hookabovecomb
Encoding: 786 777 786
GlifName: hookabovecomb
Width: 0
VWidth: 0
GlyphClass: 4
Flags: HW
LayerCount: 2
Fore
SplineSet
-71 432 m 257
 -71 509 l 257
 -65.6666666667 507.666666667 -61.3333333333 507 -58 507 c 257
 -42.6666666667 507 -29.8333333333 512.166666667 -19.5 522.5 c 128
 -9.16666666667 532.833333333 -4 545.333333333 -4 560 c 128
 -4 574.666666667 -9.33333333333 587.333333333 -20 598 c 128
 -30.6666666667 608.666666667 -43.3333333333 614 -58 614 c 257
 -61.3333333333 614 -65.6666666667 613.333333333 -71 612 c 257
 -71 689 l 257
 -58 689 l 257
 -22 689 8.5 676.5 33.5 651.5 c 128
 58.5 626.5 71 596 71 560 c 257
 71 524.666666667 58.5 494.5 33.5 469.5 c 128
 8.5 444.5 -22 432 -58 432 c 257
 -71 432 l 257
EndSplineSet
EndChar

StartChar: hyphen
Encoding: 794 45 794
GlifName: hyphen
Width: 644
VWidth: 0
GlyphClass: 2
Flags: HW
LayerCount: 2
Fore
SplineSet
594 496 m 257
 594 344 l 257
 50 344 l 257
 50 496 l 257
 594 496 l 257
EndSplineSet
EndChar

StartChar: i
Encoding: 798 105 798
GlifName: i
Width: 252
VWidth: 0
GlyphClass: 2
Flags: HW
LayerCount: 2
Fore
SplineSet
50 772 m 257
 202 772 l 257
 202 630 l 257
 50 630 l 257
 50 772 l 257
50 512 m 257
 202 512 l 257
 202 -2 l 257
 50 -2 l 257
 50 512 l 257
EndSplineSet
EndChar

StartChar: j
Encoding: 834 106 834
GlifName: j
Width: 419
VWidth: 0
GlyphClass: 2
Flags: HW
LayerCount: 2
Fore
SplineSet
214 772 m 257
 366 772 l 257
 366 630 l 257
 214 630 l 257
 214 772 l 257
50 -195 m 257
 50 -27 l 257
 70.6666666667 -44.3333333333 94.3333333333 -53 121 -53 c 257
 153.666666667 -53 180.666666667 -40.6666666667 202 -16 c 257
 202 517 l 257
 369 517 l 257
 366 -17 l 257
 350 -72.3333333333 319.666666667 -117.333333333 275 -152 c 128
 230.333333333 -186.666666667 179 -204 121 -204 c 257
 96.3333333333 -204 72.6666666667 -201 50 -195 c 257
EndSplineSet
EndChar

StartChar: k
Encoding: 842 107 842
GlifName: k
Width: 688
VWidth: 0
GlyphClass: 2
Flags: HW
LayerCount: 2
Fore
SplineSet
50 752 m 257
 191 752 l 257
 191 317 l 257
 436 514 l 257
 629 512 l 257
 368 284 l 257
 638 -3 l 257
 452 -2 l 257
 248 226 l 257
 191 154 l 257
 191 -2 l 257
 50 -2 l 257
 50 752 l 257
EndSplineSet
EndChar

StartChar: l
Encoding: 846 108 846
GlifName: l
Width: 419
VWidth: 0
GlyphClass: 2
Flags: HW
LayerCount: 2
Fore
SplineSet
369 6 m 257
 346.333333333 0 322.666666667 -3 298 -3 c 257
 240 -3 188.666666667 14.3333333333 144 49 c 128
 99.3333333333 83.6666666667 69 128.666666667 53 184 c 257
 50 761 l 257
 217 761 l 257
 217 185 l 257
 238.333333333 160.333333333 265.333333333 148 298 148 c 257
 324.666666667 148 348.333333333 156.666666667 369 174 c 257
 369 6 l 257
EndSplineSet
EndChar

StartChar: lcaron
Encoding: 854 318 854
GlifName: lcaron
Width: 462
VWidth: 0
GlyphClass: 2
Flags: HW
LayerCount: 2
Fore
SplineSet
369 6 m 257
 346.333333333 0 322.666666667 -3 298 -3 c 257
 240 -3 188.666666667 14.3333333333 144 49 c 128
 99.3333333333 83.6666666667 69 128.666666667 53 184 c 257
 50 761 l 257
 217 761 l 257
 217 185 l 257
 238.333333333 160.333333333 265.333333333 148 298 148 c 257
 324.666666667 148 348.333333333 156.666666667 369 174 c 257
 369 6 l 257
260 504 m 257
 260 761 l 257
 412 761 l 257
 367 504 l 257
 260 504 l 257
EndSplineSet
EndChar

StartChar: less
Encoding: 862 60 862
GlifName: less
Width: 644
VWidth: 0
GlyphClass: 2
Flags: HW
LayerCount: 2
Fore
SplineSet
594 546 m 257
 594 394 l 257
 380 338 l 257
 594 296 l 257
 594 144 l 257
 50 250 l 257
 50 251 l 257
 50 402 l 257
 50 403 l 257
 594 546 l 257
EndSplineSet
EndChar

StartChar: logicalnot
Encoding: 866 172 866
GlifName: logicalnot
Width: 1000
VWidth: 0
GlyphClass: 2
Flags: HW
LayerCount: 2
Fore
SplineSet
185 526 m 257
 697 526 l 257
 697 228 l 257
 565 228 l 257
 565 391 l 257
 185 391 l 257
 185 526 l 257
EndSplineSet
EndChar

StartChar: lslash
Encoding: 870 322 870
GlifName: lslash
Width: 563
VWidth: 0
GlyphClass: 2
Flags: HW
LayerCount: 2
Fore
SplineSet
78 308 m 257
 78 428 l 257
 497 616 l 257
 497 500 l 257
 78 308 l 257
513 6 m 257
 490.333333333 0 466.666666667 -3 442 -3 c 257
 384 -3 332.666666667 14.3333333333 288 49 c 128
 243.333333333 83.6666666667 213 128.666666667 197 184 c 257
 194 761 l 257
 361 761 l 257
 361 185 l 257
 382.333333333 160.333333333 409.333333333 148 442 148 c 257
 468.666666667 148 492.333333333 156.666666667 513 174 c 257
 513 6 l 257
EndSplineSet
EndChar

StartChar: m
Encoding: 874 109 874
GlifName: m
Width: 924
VWidth: 0
GlyphClass: 2
Flags: HW
LayerCount: 2
Fore
SplineSet
50 522 m 257
 219 522 l 257
 219 512 l 257
 245 520 271.666666667 524 299 524 c 257
 359 524 412 505.333333333 458 468 c 257
 546 512 l 257
 572 520 598.666666667 524 626 524 c 257
 684 524 735.333333333 506.666666667 780 472 c 128
 824.666666667 437.333333333 855 392.333333333 871 337 c 257
 874 6 l 257
 707 6 l 257
 707 336 l 257
 685.666666667 360.666666667 658.666666667 373 626 373 c 257
 594 373 567.333333333 361.333333333 546 338 c 257
 546 116 l 257
 547 6 l 257
 546 6 l 257
 380 6 l 257
 377 6 l 257
 380 323 l 257
 380 336 l 257
 358.666666667 360.666666667 331.666666667 373 299 373 c 257
 267 373 240.333333333 361.333333333 219 338 c 257
 219 6 l 257
 50 6 l 257
 50 522 l 257
EndSplineSet
EndChar

StartChar: mu
Encoding: 882 181 882
GlifName: mu
Width: 597
VWidth: 0
GlyphClass: 2
Flags: HW
LayerCount: 2
Fore
SplineSet
50 -189 m 257
 50 524 l 257
 219 524 l 257
 219 192 l 257
 240.333333333 168.666666667 267 157 299 157 c 257
 331.666666667 157 358.666666667 169.333333333 380 194 c 257
 380 524 l 257
 547 524 l 257
 544 193 l 257
 528 137.666666667 497.666666667 92.6666666667 453 58 c 128
 408.333333333 23.3333333333 357 6 299 6 c 257
 271.666666667 6 245 10 219 18 c 257
 219 -189 l 257
 50 -189 l 257
EndSplineSet
EndChar

StartChar: multiply
Encoding: 886 215 886
GlifName: multiply
Width: 724
VWidth: 0
GlyphClass: 2
Flags: HW
LayerCount: 2
Fore
SplineSet
50 713 m 257
 236 711 l 257
 365 560 l 257
 498 712 l 257
 673 711 l 257
 453 458 l 257
 674 200 l 257
 499 198 l 257
 362 355 l 257
 229 202 l 257
 51 199 l 257
 274 456 l 257
 50 713 l 257
EndSplineSet
EndChar

StartChar: n
Encoding: 890 110 890
GlifName: n
Width: 597
VWidth: 0
GlyphClass: 2
Flags: HW
LayerCount: 2
Fore
SplineSet
50 522 m 257
 219 522 l 257
 219 512 l 257
 245 520 271.666666667 524 299 524 c 257
 357 524 408.333333333 506.666666667 453 472 c 128
 497.666666667 437.333333333 528 392.333333333 544 337 c 257
 547 6 l 257
 380 6 l 257
 380 336 l 257
 358.666666667 360.666666667 331.666666667 373 299 373 c 257
 267 373 240.333333333 361.333333333 219 338 c 257
 219 6 l 257
 50 6 l 257
 50 522 l 257
EndSplineSet
EndChar

StartChar: nine
Encoding: 902 57 902
GlifName: nine
Width: 709
VWidth: 0
GlyphClass: 2
Flags: HW
LayerCount: 2
Fore
SplineSet
326 391 m 257
 333.333333333 391 341.333333333 392 350 394 c 257
 350 393 l 257
 374.666666667 398.333333333 395 410.666666667 411 430 c 128
 427 449.333333333 435 472 435 498 c 257
 435 534 420.333333333 562.666666667 391 584 c 257
 381 590 370.333333333 595.333333333 359 600 c 257
 355.666666667 600.666666667 352.666666667 601.333333333 350 602 c 257
 350 601 l 257
 342.666666667 603 334.666666667 604 326 604 c 257
 318 604 310 603 302 601 c 257
 302 602 l 257
 277.333333333 596.666666667 257 584.333333333 241 565 c 128
 225 545.666666667 217 523.333333333 217 498 c 257
 217 472 225 449.333333333 241 430 c 128
 257 410.666666667 277.333333333 398.333333333 302 393 c 257
 302 394 l 257
 310 392 318 391 326 391 c 257
277 146 m 257
 333.666666667 146 383.333333333 164.666666667 426 202 c 128
 468.666666667 239.333333333 494.333333333 286 503 342 c 257
 456.333333333 291.333333333 398.666666667 263.666666667 330 259 c 257
 324.666666667 258.333333333 320 258 316 258 c 257
 313 258 313 258 312 258 c 257
 311 258 l 257
 310 258 310 258 308 258 c 257
 247.333333333 258 193.5 276.833333333 146.5 314.5 c 128
 99.5 352.166666667 69.3333333333 400 56 458 c 257
 52 476.666666667 50 496 50 516 c 257
 50 542.666666667 54 568.666666667 62 594 c 257
 82 656.666666667 120.666666667 704.666666667 178 738 c 257
 210.666666667 760.666666667 243.666666667 772 277 772 c 257
 281 772 281 772 284 772 c 257
 292 772.666666667 300 773 308 773 c 257
 309 773 309 773 310 773 c 258
 311 773 l 257
 312 773 l 257
 314 773 314 773 316 773 c 257
 321.333333333 773 326 772.666666667 330 772 c 257
 383.333333333 768 430.666666667 749.666666667 472 717 c 257
 528.666666667 682.333333333 574 635 608 575 c 128
 642 515 659 449.333333333 659 378 c 257
 659 269.333333333 621.666666667 176.666666667 547 100 c 128
 472.333333333 23.3333333333 382.333333333 -15 277 -15 c 257
 221.666666667 -15 182 -12.6666666667 158 -8 c 257
 158 158 l 257
 168 154.666666667 186.333333333 151.833333333 213 149.5 c 128
 239.666666667 147.166666667 261 146 277 146 c 257
EndSplineSet
EndChar

StartChar: numbersign
Encoding: 911 35 911
GlifName: numbersign
Width: 648
VWidth: 0
GlyphClass: 2
Flags: HW
LayerCount: 2
Fore
SplineSet
406 466 m 257
 258 466 l 257
 241 368 l 257
 389 368 l 257
 406 466 l 257
146 692 m 257
 298 692 l 257
 285 618 l 257
 433 618 l 257
 446 692 l 257
 598 692 l 257
 585 618 l 257
 596 618 l 257
 596 466 l 257
 558 466 l 257
 541 368 l 257
 596 368 l 257
 596 216 l 257
 514 216 l 257
 502 149 l 257
 350 149 l 257
 362 216 l 257
 214 216 l 257
 202 149 l 257
 50 149 l 257
 62 216 l 257
 52 216 l 257
 52 368 l 257
 89 368 l 257
 106 466 l 257
 52 466 l 257
 52 618 l 257
 133 618 l 257
 146 692 l 257
EndSplineSet
EndChar

StartChar: o
Encoding: 915 111 915
GlifName: o
Width: 620
VWidth: 0
GlyphClass: 2
Flags: HW
LayerCount: 2
Fore
SplineSet
310 367 m 257
 301.333333333 367 293.333333333 366 286 364 c 257
 286 365 l 257
 261.333333333 359.666666667 241 347.333333333 225 328 c 128
 209 308.666666667 201 286 201 260 c 257
 201 234.666666667 209 212.333333333 225 193 c 128
 241 173.666666667 261.333333333 161.333333333 286 156 c 257
 286 157 l 257
 293.333333333 155 301.333333333 154 310 154 c 257
 318 154 326 155 334 157 c 257
 334 156 l 257
 358.666666667 161.333333333 379 173.666666667 395 193 c 128
 411 212.333333333 419 234.666666667 419 260 c 257
 419 286 411 308.666666667 395 328 c 128
 379 347.333333333 358.666666667 359.666666667 334 365 c 257
 334 364 l 257
 326 366 318 367 310 367 c 257
309 3 m 257
 308 3 l 257
 306 3 306 3 304 3 c 257
 298.666666667 3 294 3.33333333333 290 4 c 257
 222.666666667 8 165.833333333 34.6666666667 119.5 84 c 128
 73.1666666667 133.333333333 50 192 50 260 c 257
 50 328 73.1666666667 386.833333333 119.5 436.5 c 128
 165.833333333 486.166666667 222.666666667 513 290 517 c 257
 294 517.666666667 298.666666667 518 304 518 c 257
 306 518 306 518 308 518 c 257
 309 518 l 257
 310 518 310 518 312 518 c 257
 383.333333333 518 444.166666667 492.833333333 494.5 442.5 c 128
 544.833333333 392.166666667 570 331.333333333 570 260 c 128
 570 188.666666667 544.833333333 128 494.5 78 c 128
 444.166666667 28 383.333333333 3 312 3 c 257
 311 3 311 3 310 3 c 258
 309 3 l 257
EndSplineSet
EndChar

StartChar: oe
Encoding: 935 339 935
GlifName: oe
Width: 999
VWidth: 0
GlyphClass: 2
Flags: HW
LayerCount: 2
Fore
SplineSet
309 3 m 257
 308 3 l 257
 306 3 306 3 304 3 c 257
 298.666666667 3 294 3.33333333333 290 4 c 257
 222.666666667 8 165.833333333 34.6666666667 119.5 84 c 128
 73.1666666667 133.333333333 50 192 50 260 c 257
 50 328 73.1666666667 386.833333333 119.5 436.5 c 128
 165.833333333 486.166666667 222.666666667 513 290 517 c 257
 294 517.666666667 298.666666667 518 304 518 c 257
 306 518 306 518 308 518 c 257
 309 518 l 257
 310 518 310 518 312 518 c 257
 387.333333333 518 450.333333333 490.666666667 501 436 c 257
 551.666666667 490.666666667 614.666666667 518 690 518 c 257
 761.333333333 518 822.166666667 492.833333333 872.5 442.5 c 128
 922.833333333 392.166666667 948 331.333333333 948 260 c 257
 948 253.333333333 948.166666667 244.166666667 948.5 232.5 c 128
 948.833333333 220.833333333 949 212.666666667 949 208 c 257
 598 205 l 257
 607.333333333 189.666666667 620.166666667 177.333333333 636.5 168 c 128
 652.833333333 158.666666667 670.666666667 154 690 154 c 257
 712.666666667 154 758.5 154.833333333 827.5 156.5 c 128
 896.5 158.166666667 933.666666667 160 939 162 c 257
 939 6 l 257
 926.333333333 4 843.333333333 3 690 3 c 257
 614.666666667 3 551.666666667 30.3333333333 501 85 c 257
 450.333333333 30.3333333333 387.333333333 3 312 3 c 257
 311 3 311 3 310 3 c 258
 309 3 l 257
593 297 m 257
 789 294 l 257
 786.333333333 296.666666667 779.666666667 304.333333333 769 317 c 128
 758.333333333 329.666666667 750 339.166666667 744 345.5 c 128
 738 351.833333333 729.833333333 358.333333333 719.5 365 c 128
 709.166666667 371.666666667 699.333333333 375 690 375 c 257
 680.666666667 375 671 371.833333333 661 365.5 c 128
 651 359.166666667 642.833333333 352.666666667 636.5 346 c 128
 630.166666667 339.333333333 622 330.333333333 612 319 c 128
 602 307.666666667 595.666666667 300.333333333 593 297 c 257
310 367 m 257
 301.333333333 367 293.333333333 366 286 364 c 257
 286 365 l 257
 261.333333333 359.666666667 241 347.333333333 225 328 c 128
 209 308.666666667 201 286 201 260 c 257
 201 234.666666667 209 212.333333333 225 193 c 128
 241 173.666666667 261.333333333 161.333333333 286 156 c 257
 286 157 l 257
 293.333333333 155 301.333333333 154 310 154 c 257
 318 154 326 155 334 157 c 257
 334 156 l 257
 358.666666667 161.333333333 379 173.666666667 395 193 c 128
 411 212.333333333 419 234.666666667 419 260 c 257
 419 286 411 308.666666667 395 328 c 128
 379 347.333333333 358.666666667 359.666666667 334 365 c 257
 334 364 l 257
 326 366 318 367 310 367 c 257
EndSplineSet
EndChar

StartChar: one
Encoding: 955 49 955
GlifName: one
Width: 436
VWidth: 0
GlyphClass: 2
Flags: HW
LayerCount: 2
Fore
SplineSet
158 487 m 257
 50 594 l 257
 232 776 l 257
 234 774 l 257
 386 774 l 257
 386 -2 l 257
 234 -2 l 257
 234 563 l 257
 158 487 l 257
EndSplineSet
EndChar

StartChar: oslash
Encoding: 975 248 975
GlifName: oslash
Width: 620
VWidth: 0
GlyphClass: 2
Flags: HW
LayerCount: 2
Fore
SplineSet
324 155 m 257
 329 156 329 156 334 157 c 257
 334 156 l 257
 358.666666667 161.333333333 379 173.666666667 395 193 c 128
 411 212.333333333 419 234.666666667 419 260 c 257
 419 274.666666667 416 289 410 303 c 257
 324 155 l 257
306 367 m 257
 298.666666667 366.333333333 292 365.333333333 286 364 c 257
 286 365 l 257
 261.333333333 359.666666667 241 347.333333333 225 328 c 128
 209 308.666666667 201 286 201 260 c 257
 201 242 205.333333333 225 214 209 c 257
 306 367 l 257
50 260 m 257
 50 331.333333333 74.8333333333 392.166666667 124.5 442.5 c 128
 174.166666667 492.833333333 235.333333333 518 308 518 c 257
 309 518 l 257
 310 518 310 518 312 518 c 257
 338 518 363.333333333 514.333333333 388 507 c 257
 458 625 l 257
 564 564 l 257
 493 444 l 257
 544.333333333 393.333333333 570 332 570 260 c 257
 570 188.666666667 544.833333333 128 494.5 78 c 128
 444.166666667 28 383.333333333 3 312 3 c 257
 311 3 311 3 310 3 c 258
 309 3 l 257
 308 3 l 257
 284.666666667 3 262 6 240 12 c 257
 184 -83 l 257
 78 -22 l 257
 133 71 l 257
 107 95 86.6666666667 123.333333333 72 156 c 128
 57.3333333333 188.666666667 50 223.333333333 50 260 c 257
EndSplineSet
EndChar

StartChar: otilde.0
Encoding: 980 -1 980
GlifName: otilde.0
Width: 620
VWidth: 0
GlyphClass: 2
Flags: HW
LayerCount: 2
Fore
SplineSet
333 705 m 257
 323 695 l 257
 317 688.333333333 308.333333333 681.666666667 297 675 c 257
 285.666666667 668.333333333 275 665 265 665 c 257
 243 665 243 665 220 665 c 257
 209.333333333 665 196.333333333 669.666666667 181 679 c 257
 165 687.666666667 151.333333333 692 140 692 c 257
 123.333333333 692 104.333333333 682.666666667 83 664 c 257
 83 588 l 257
 92 595 l 257
 98 599.666666667 106 604.333333333 116 609 c 257
 126 613.666666667 134.666666667 616 142 616 c 257
 152.666666667 616 165.666666667 611.333333333 181 602 c 257
 195.666666667 592.666666667 208.333333333 588 219 588 c 257
 269 588 l 257
 279.666666667 588 290.333333333 591.666666667 301 599 c 257
 311.666666667 605.666666667 319.666666667 612 325 618 c 257
 329.666666667 624 332.333333333 627.666666667 333 629 c 257
 333 705 l 257
260 377 m 257
 268 377 276 376 284 374 c 257
 284 375 l 257
 308.666666667 369.666666667 329 357.333333333 345 338 c 257
 361 318.666666667 369 296 369 270 c 257
 369 244.666666667 361 222.333333333 345 203 c 257
 329 183.666666667 308.666666667 171.333333333 284 166 c 257
 284 167 l 257
 276 165 268 164 260 164 c 257
 251.333333333 164 243.333333333 165 236 167 c 257
 236 166 l 257
 211.333333333 171.333333333 191 183.666666667 175 203 c 257
 159 222.333333333 151 244.666666667 151 270 c 257
 151 296 159 318.666666667 175 338 c 257
 191 357.333333333 211.333333333 369.666666667 236 375 c 257
 236 374 l 257
 243.333333333 376 251.333333333 377 260 377 c 257
259 13 m 257
 260 13 l 257
 261 13 261 13 262 13 c 257
 333.333333333 13 394.333333333 38 445 88 c 257
 495 138 520 198.666666667 520 270 c 257
 520 341.333333333 495 402.333333333 445 453 c 257
 394.333333333 503 333.333333333 528 262 528 c 257
 260 528 260 528 259 528 c 257
 258 528 l 257
 256 528 256 528 254 528 c 257
 248.666666667 528 244 527.666666667 240 527 c 257
 172.666666667 523 116 496.333333333 70 447 c 257
 23.3333333333 397 0 338 0 270 c 257
 0 202 23.3333333333 143.333333333 70 94 c 257
 116 44.6666666667 172.666666667 18 240 14 c 257
 244 13.3333333333 248.666666667 13 254 13 c 257
 256 13 256 13 258 13 c 257
 259 13 l 257
EndSplineSet
EndChar

StartChar: otilde.1
Encoding: 981 -1 981
GlifName: otilde.1
Width: 620
VWidth: 0
GlyphClass: 2
Flags: HW
LayerCount: 2
Fore
SplineSet
433 695 m 257
 423 685 l 257
 417 678.333333333 408.333333333 671.666666667 397 665 c 257
 385.666666667 658.333333333 375 655 365 655 c 257
 343 655 343 655 320 655 c 257
 309.333333333 655 296.333333333 659.666666667 281 669 c 257
 265 677.666666667 251.333333333 682 240 682 c 257
 223.333333333 682 204.333333333 672.666666667 183 654 c 257
 183 578 l 257
 192 585 l 257
 198 589.666666667 206 594.333333333 216 599 c 257
 226 603.666666667 234.666666667 606 242 606 c 257
 252.666666667 606 265.666666667 601.333333333 281 592 c 257
 295.666666667 582.666666667 308.333333333 578 319 578 c 257
 369 578 l 257
 379.666666667 578 390.333333333 581.666666667 401 589 c 257
 411.666666667 595.666666667 419.666666667 602 425 608 c 257
 429.666666667 614 432.333333333 617.666666667 433 619 c 257
 433 695 l 257
310 367 m 257
 318 367 326 366 334 364 c 257
 334 365 l 257
 358.666666667 359.666666667 379 347.333333333 395 328 c 257
 411 308.666666667 419 286 419 260 c 257
 419 234.666666667 411 212.333333333 395 193 c 257
 379 173.666666667 358.666666667 161.333333333 334 156 c 257
 334 157 l 257
 326 155 318 154 310 154 c 257
 301.333333333 154 293.333333333 155 286 157 c 257
 286 156 l 257
 261.333333333 161.333333333 241 173.666666667 225 193 c 257
 209 212.333333333 201 234.666666667 201 260 c 257
 201 286 209 308.666666667 225 328 c 257
 241 347.333333333 261.333333333 359.666666667 286 365 c 257
 286 364 l 257
 293.333333333 366 301.333333333 367 310 367 c 257
309 3 m 257
 310 3 l 257
 311 3 311 3 312 3 c 257
 383.333333333 3 444.333333333 28 495 78 c 257
 545 128 570 188.666666667 570 260 c 257
 570 331.333333333 545 392.333333333 495 443 c 257
 444.333333333 493 383.333333333 518 312 518 c 257
 310 518 310 518 309 518 c 257
 308 518 l 257
 306 518 306 518 304 518 c 257
 298.666666667 518 294 517.666666667 290 517 c 257
 222.666666667 513 166 486.333333333 120 437 c 257
 73.3333333333 387 50 328 50 260 c 257
 50 192 73.3333333333 133.333333333 120 84 c 257
 166 34.6666666667 222.666666667 8 290 4 c 257
 294 3.33333333333 298.666666667 3 304 3 c 257
 306 3 306 3 308 3 c 257
 309 3 l 257
EndSplineSet
EndChar

StartChar: p
Encoding: 983 112 983
GlifName: p
Width: 534
VWidth: 0
GlyphClass: 2
Flags: HW
LayerCount: 2
Fore
SplineSet
202 356 m 257
 202 149 l 257
 210 147 218 146 226 146 c 257
 256 146 281.333333333 156.333333333 302 177 c 128
 322.666666667 197.666666667 333 223 333 253 c 257
 333 282.333333333 322.666666667 307.333333333 302 328 c 128
 281.333333333 348.666666667 256 359 226 359 c 257
 218 359 210 358 202 356 c 257
202 -202 m 257
 50 -202 l 257
 50 509 l 257
 202 509 l 257
 207.333333333 509.666666667 215.333333333 510 226 510 c 257
 297.333333333 510 358.166666667 485 408.5 435 c 128
 458.833333333 385 484 324.333333333 484 253 c 128
 484 181.666666667 458.833333333 120.833333333 408.5 70.5 c 128
 358.166666667 20.1666666667 297.333333333 -5 226 -5 c 257
 215.333333333 -5 207.333333333 -4.66666666667 202 -4 c 257
 202 -202 l 257
EndSplineSet
EndChar

StartChar: paragraph
Encoding: 987 182 987
GlifName: paragraph
Width: 752
VWidth: 0
GlyphClass: 2
Flags: HW
LayerCount: 2
Fore
SplineSet
332 3 m 257
 332 266 l 257
 326.666666667 265.333333333 318.666666667 265 308 265 c 257
 236.666666667 265 175.833333333 290.166666667 125.5 340.5 c 128
 75.1666666667 390.833333333 50 451.666666667 50 523 c 128
 50 594.333333333 75.1666666667 655 125.5 705 c 128
 175.833333333 755 236.666666667 780 308 780 c 257
 318.666666667 780 326.666666667 779.666666667 332 779 c 257
 484 779 l 257
 484 3 l 257
 332 3 l 257
550 774 m 257
 702 774 l 257
 702 -2 l 257
 550 -2 l 257
 550 774 l 257
EndSplineSet
EndChar

StartChar: parenleft
Encoding: 991 40 991
GlifName: parenleft
Width: 555
VWidth: 0
GlyphClass: 2
Flags: HW
LayerCount: 2
Fore
SplineSet
432 744 m 257
 365.333333333 744 302.333333333 707.166666667 243 633.5 c 128
 183.666666667 559.833333333 154 474.666666667 154 378 c 257
 154 280.666666667 183.666666667 195.166666667 243 121.5 c 128
 302.333333333 47.8333333333 365.333333333 11 432 11 c 257
 505 -7 l 257
 482.333333333 -11.6666666667 458 -14 432 -14 c 257
 326.666666667 -14 236.666666667 24.5 162 101.5 c 128
 87.3333333333 178.5 50 271.333333333 50 380 c 128
 50 488.666666667 87.3333333333 581.333333333 162 658 c 128
 236.666666667 734.666666667 326.666666667 773 432 773 c 257
 458 773 482.333333333 770.666666667 505 766 c 257
 432 744 l 257
EndSplineSet
EndChar

StartChar: parenright
Encoding: 995 41 995
GlifName: parenright
Width: 555
VWidth: 0
GlyphClass: 2
Flags: HW
LayerCount: 2
Fore
SplineSet
123 744 m 257
 50 766 l 257
 72.6666666667 770.666666667 97 773 123 773 c 257
 228.333333333 773 318.333333333 734.666666667 393 658 c 128
 467.666666667 581.333333333 505 488.666666667 505 380 c 128
 505 271.333333333 467.666666667 178.5 393 101.5 c 128
 318.333333333 24.5 228.333333333 -14 123 -14 c 257
 97 -14 72.6666666667 -11.6666666667 50 -7 c 257
 123 11 l 257
 189.666666667 11 252.666666667 47.8333333333 312 121.5 c 128
 371.333333333 195.166666667 401 280.666666667 401 378 c 257
 401 474.666666667 371.333333333 559.833333333 312 633.5 c 128
 252.666666667 707.166666667 189.666666667 744 123 744 c 257
EndSplineSet
EndChar

StartChar: percent
Encoding: 999 37 999
GlifName: percent
Width: 691
VWidth: 0
GlyphClass: 2
Flags: HW
LayerCount: 2
Fore
SplineSet
535 818 m 257
 641 757 l 257
 156 -83 l 257
 50 -22 l 257
 535 818 l 257
498 262 m 257
 498 263 l 257
 498 263 l 257
 485.333333333 260.333333333 475.166666667 254.166666667 467.5 244.5 c 128
 459.833333333 234.833333333 456 223.333333333 456 210 c 257
 456 197.333333333 459.833333333 186.166666667 467.5 176.5 c 128
 475.166666667 166.833333333 485.333333333 160.666666667 498 158 c 257
 498 159 l 257
 503.333333333 157.666666667 507.333333333 157 510 157 c 128
 512.666666667 157 516.666666667 157.666666667 522 159 c 257
 522 158 l 257
 534.666666667 160.666666667 544.833333333 166.833333333 552.5 176.5 c 128
 560.166666667 186.166666667 564 197.333333333 564 210 c 257
 564 223.333333333 560.166666667 234.833333333 552.5 244.5 c 128
 544.833333333 254.166666667 534.666666667 260.333333333 522 263 c 257
 522 262 l 257
 516.666666667 263.333333333 512.666666667 264 510 264 c 128
 507.333333333 264 503.333333333 263.333333333 498 262 c 257
509 82 m 257
 507 82 l 257
 500 82 l 257
 466 84.6666666667 437.5 98.1666666667 414.5 122.5 c 128
 391.5 146.833333333 380 176 380 210 c 128
 380 244 391.666666667 273.333333333 415 298 c 128
 438.333333333 322.666666667 466.666666667 336.333333333 500 339 c 257
 507 339 l 257
 509 339 l 257
 511 339 l 257
 547 339 577.5 326.5 602.5 301.5 c 128
 627.5 276.5 640 246 640 210 c 257
 640 174.666666667 627.5 144.5 602.5 119.5 c 128
 577.5 94.5 547 82 511 82 c 257
 509 82 l 257
193 663 m 257
 193 664 l 257
 193 664 l 257
 180.333333333 661.333333333 170.166666667 655.166666667 162.5 645.5 c 128
 154.833333333 635.833333333 151 624.333333333 151 611 c 257
 151 598.333333333 154.833333333 587.166666667 162.5 577.5 c 128
 170.166666667 567.833333333 180.333333333 561.666666667 193 559 c 257
 193 560 l 257
 198.333333333 558.666666667 202.333333333 558 205 558 c 128
 207.666666667 558 211.666666667 558.666666667 217 560 c 257
 217 559 l 257
 229.666666667 561.666666667 239.833333333 567.833333333 247.5 577.5 c 128
 255.166666667 587.166666667 259 598.333333333 259 611 c 257
 259 624.333333333 255.166666667 635.833333333 247.5 645.5 c 128
 239.833333333 655.166666667 229.666666667 661.333333333 217 664 c 257
 217 663 l 257
 211.666666667 664.333333333 207.666666667 665 205 665 c 128
 202.333333333 665 198.333333333 664.333333333 193 663 c 257
204 483 m 257
 202 483 l 257
 195 483 l 257
 161 485.666666667 132.5 499.166666667 109.5 523.5 c 128
 86.5 547.833333333 75 577 75 611 c 128
 75 645 86.6666666667 674.333333333 110 699 c 128
 133.333333333 723.666666667 161.666666667 737.333333333 195 740 c 257
 202 740 l 257
 204 740 l 257
 206 740 l 257
 242 740 272.5 727.5 297.5 702.5 c 128
 322.5 677.5 335 647 335 611 c 257
 335 575.666666667 322.5 545.5 297.5 520.5 c 128
 272.5 495.5 242 483 206 483 c 257
 204 483 l 257
EndSplineSet
EndChar

StartChar: period
Encoding: 1003 46 1003
GlifName: period
Width: 252
VWidth: 0
GlyphClass: 2
Flags: HW
LayerCount: 2
Fore
SplineSet
50 -2 m 257
 50 140 l 257
 202 140 l 257
 202 -2 l 257
 50 -2 l 257
EndSplineSet
EndChar

StartChar: periodcentered
Encoding: 1007 183 1007
GlifName: periodcentered
Width: 252
VWidth: 0
GlyphClass: 2
Flags: HW
LayerCount: 2
Fore
SplineSet
50 398 m 257
 50 540 l 257
 202 540 l 257
 202 398 l 257
 50 398 l 257
EndSplineSet
EndChar

StartChar: plus
Encoding: 1011 43 1011
GlifName: plus
Width: 644
VWidth: 0
GlyphClass: 2
Flags: HW
LayerCount: 2
Fore
SplineSet
246 692 m 257
 398 692 l 257
 398 496 l 257
 594 496 l 257
 594 344 l 257
 398 344 l 257
 398 149 l 257
 246 149 l 257
 246 344 l 257
 50 344 l 257
 50 496 l 257
 246 496 l 257
 246 692 l 257
EndSplineSet
EndChar

StartChar: plusminus
Encoding: 1015 177 1015
GlifName: plusminus
Width: 644
VWidth: 0
GlyphClass: 2
Flags: HW
LayerCount: 2
Fore
SplineSet
246 692 m 257
 398 692 l 257
 398 496 l 257
 594 496 l 257
 594 344 l 257
 398 344 l 257
 398 149 l 257
 246 149 l 257
 246 344 l 257
 50 344 l 257
 50 496 l 257
 246 496 l 257
 246 692 l 257
594 122 m 257
 594 -30 l 257
 50 -30 l 257
 50 122 l 257
 594 122 l 257
EndSplineSet
EndChar

StartChar: q
Encoding: 1019 113 1019
GlifName: q
Width: 534
VWidth: 0
GlyphClass: 2
Flags: HW
LayerCount: 2
Fore
SplineSet
332 356 m 257
 324 358 316 359 308 359 c 257
 278 359 252.666666667 348.666666667 232 328 c 128
 211.333333333 307.333333333 201 282.333333333 201 253 c 257
 201 223 211.333333333 197.666666667 232 177 c 128
 252.666666667 156.333333333 278 146 308 146 c 257
 316 146 324 147 332 149 c 257
 332 356 l 257
332 -202 m 257
 332 -4 l 257
 326.666666667 -4.66666666667 318.666666667 -5 308 -5 c 257
 236.666666667 -5 175.833333333 20.1666666667 125.5 70.5 c 128
 75.1666666667 120.833333333 50 181.666666667 50 253 c 128
 50 324.333333333 75.1666666667 385 125.5 435 c 128
 175.833333333 485 236.666666667 510 308 510 c 257
 318.666666667 510 326.666666667 509.666666667 332 509 c 257
 484 509 l 257
 484 -202 l 257
 332 -202 l 257
EndSplineSet
EndChar

StartChar: question
Encoding: 1023 63 1023
GlifName: question
Width: 384
VWidth: 0
GlyphClass: 2
Flags: HW
LayerCount: 2
Fore
SplineSet
50 828 m 257
 56 828.666666667 64.6666666667 829 76 829 c 257
 147.333333333 829 208.166666667 804 258.5 754 c 128
 308.833333333 704 334 643.333333333 334 572 c 257
 334 524 322 480 298 440 c 128
 274 400 242 369 202 347 c 257
 202 230 l 257
 50 230 l 257
 50 315 l 257
 50 440 l 257
 50 468 l 257
 58 466 66.6666666667 465 76 465 c 257
 106 465 131.333333333 475.333333333 152 496 c 128
 172.666666667 516.666666667 183 542 183 572 c 257
 183 601.333333333 172.666666667 626.333333333 152 647 c 128
 131.333333333 667.666666667 106 678 76 678 c 257
 66.6666666667 678 58 677 50 675 c 257
 50 828 l 257
50 -2 m 257
 50 140 l 257
 202 140 l 257
 202 -2 l 257
 50 -2 l 257
EndSplineSet
EndChar

StartChar: questiondown
Encoding: 1027 191 1027
GlifName: questiondown
Width: 384
VWidth: 0
GlyphClass: 2
Flags: HW
LayerCount: 2
Fore
SplineSet
334 -1 m 257
 328 -1.66666666667 319.333333333 -2 308 -2 c 257
 236.666666667 -2 175.833333333 23 125.5 73 c 128
 75.1666666667 123 50 183.666666667 50 255 c 257
 50 303 62 347 86 387 c 128
 110 427 142 458 182 480 c 257
 182 597 l 257
 334 597 l 257
 334 512 l 257
 334 387 l 257
 334 359 l 257
 326 361 317.333333333 362 308 362 c 257
 278 362 252.666666667 351.666666667 232 331 c 128
 211.333333333 310.333333333 201 285 201 255 c 257
 201 225.666666667 211.333333333 200.666666667 232 180 c 128
 252.666666667 159.333333333 278 149 308 149 c 257
 317.333333333 149 326 150 334 152 c 257
 334 -1 l 257
334 829 m 257
 334 687 l 257
 182 687 l 257
 182 829 l 257
 334 829 l 257
EndSplineSet
EndChar

StartChar: quotedbl
Encoding: 1031 34 1031
GlifName: quotedbl
Width: 452
VWidth: 0
GlyphClass: 2
Flags: HW
LayerCount: 2
Fore
SplineSet
50 532 m 257
 50 789 l 257
 202 789 l 257
 202 532 l 257
 50 532 l 257
250 532 m 257
 250 789 l 257
 402 789 l 257
 402 532 l 257
 250 532 l 257
EndSplineSet
EndChar

StartChar: quotesingle
Encoding: 1035 39 1035
GlifName: quotesingle
Width: 252
VWidth: 0
GlyphClass: 2
Flags: HW
LayerCount: 2
Fore
SplineSet
50 532 m 257
 50 789 l 257
 202 789 l 257
 202 532 l 257
 50 532 l 257
EndSplineSet
EndChar

StartChar: r
Encoding: 1039 114 1039
GlifName: r
Width: 587
VWidth: 0
GlyphClass: 2
Flags: HW
LayerCount: 2
Fore
SplineSet
50 522 m 257
 219 522 l 257
 219 512 l 257
 245 520 271.666666667 524 299 524 c 257
 352.333333333 524 400.5 507 443.5 473 c 128
 486.5 439 517.666666667 396.333333333 537 345 c 257
 372 345 l 257
 372 344 l 257
 351.333333333 363.333333333 327 373 299 373 c 257
 267 373 240.333333333 361.333333333 219 338 c 257
 219 6 l 257
 50 6 l 257
 50 522 l 257
EndSplineSet
EndChar

StartChar: registered
Encoding: 1051 174 1051
GlifName: registered
Width: 656
VWidth: 0
GlyphClass: 2
Flags: HW
LayerCount: 2
Fore
SplineSet
563 379 m 257
 563 445 540.166666667 501.333333333 494.5 548 c 128
 448.833333333 594.666666667 393.333333333 618 328 618 c 128
 262.666666667 618 207.166666667 594.666666667 161.5 548 c 128
 115.833333333 501.333333333 93 445 93 379 c 257
 93 312.333333333 115.833333333 255.5 161.5 208.5 c 128
 207.166666667 161.5 262.666666667 138 328 138 c 128
 393.333333333 138 448.833333333 161.5 494.5 208.5 c 128
 540.166666667 255.5 563 312.333333333 563 379 c 257
606 380 m 257
 606 300.666666667 578.833333333 233 524.5 177 c 128
 470.166666667 121 404.666666667 93 328 93 c 128
 251.333333333 93 185.833333333 121 131.5 177 c 128
 77.1666666667 233 50 300.666666667 50 380 c 257
 50 459.333333333 77.1666666667 526.833333333 131.5 582.5 c 128
 185.833333333 638.166666667 251.333333333 666 328 666 c 128
 404.666666667 666 470.166666667 638.166666667 524.5 582.5 c 128
 578.833333333 526.833333333 606 459.333333333 606 380 c 257
291 246 m 257
 236 246 l 257
 236 528 l 257
 291 528 l 257
 293 528.666666667 296 529 300 529 c 257
 326 529 348.166666667 519.833333333 366.5 501.5 c 128
 384.833333333 483.166666667 394 461 394 435 c 257
 394 415 388.166666667 396.833333333 376.5 380.5 c 128
 364.833333333 364.166666667 350 353 332 347 c 257
 404 243 l 257
 353 243 l 257
 293 341 l 257
 292 341 292 341 291 341 c 257
 291 246 l 257
291 473 m 257
 291 397 l 257
 294.333333333 396.333333333 297.333333333 396 300 396 c 257
 310.666666667 396 319.833333333 399.833333333 327.5 407.5 c 128
 335.166666667 415.166666667 339 424.333333333 339 435 c 257
 339 445.666666667 335.166666667 454.833333333 327.5 462.5 c 128
 319.833333333 470.166666667 310.666666667 474 300 474 c 257
 297.333333333 474 294.333333333 473.666666667 291 473 c 257
EndSplineSet
EndChar

StartChar: s
Encoding: 1059 115 1059
GlifName: s
Width: 508
VWidth: 0
GlyphClass: 2
Flags: HW
LayerCount: 2
Fore
SplineSet
69.3916 47 m 257
 136.392 159 l 257
 141.058666667 154.333333333 148.392 150.333333333 158.392 147 c 257
 185.058666667 135.666666667 208.892 131.333333333 229.892 134 c 128
 250.892 136.666666667 268.058666667 146 281.392 162 c 257
 296.725333333 180 289.392 193 259.392 201 c 257
 251.392 203 233.392 206.333333333 205.392 211 c 257
 161.392 228.333333333 126.0586 248.5 99.3918 271.5 c 128
 72.725 294.5 56.7249333333 320 51.3916 348 c 128
 46.0582666667 376 56.0582666667 404.666666667 81.3916 434 c 257
 112.7252 472 161.725333333 494.833333333 228.392 502.5 c 128
 295.058666667 510.166666667 360.392 500.333333333 424.392 473 c 257
 436.392 467.666666667 443.725333333 464 446.392 462 c 257
 379.392 332 l 257
 370.058666667 338 362.725333333 342 357.392 344 c 257
 330.058666667 354.666666667 309.725333333 358.666666667 296.392 356 c 128
 283.058666667 353.333333333 269.725333333 344 256.392 328 c 257
 239.725333333 310.666666667 232.892 298.833333333 235.892 292.5 c 128
 238.892 286.166666667 256.058666667 280.333333333 287.392 275 c 257
 313.392 263.666666667 336.058666667 253.166666667 355.392 243.5 c 128
 374.725333333 233.833333333 393.225333333 222.333333333 410.892 209 c 128
 428.558666667 195.666666667 441.225333333 182.5 448.892 169.5 c 128
 456.558666667 156.5 459.558666667 141.833333333 457.892 125.5 c 128
 456.225333333 109.166666667 448.058666667 92.3333333333 433.392 75 c 257
 402.058666667 37 353.058666667 13.8333333333 286.392 5.5 c 128
 219.725333333 -2.83333333333 154.7252 6.66666666667 91.3916 34 c 257
 86.0582666667 35.3333333333 78.7249333333 39.6666666667 69.3916 47 c 257
EndSplineSet
EndChar

StartChar: section
Encoding: 1079 167 1079
GlifName: section
Width: 599
VWidth: 0
GlyphClass: 2
Flags: HW
LayerCount: 2
Fore
SplineSet
50 108 m 257
 125 233 l 257
 133 226.333333333 140.333333333 221.333333333 147 218 c 257
 172.333333333 203.333333333 199 199.5 227 206.5 c 128
 255 213.5 276.666666667 229 292 253 c 257
 306.666666667 279 305.833333333 303.166666667 289.5 325.5 c 128
 273.166666667 347.833333333 250.666666667 361.333333333 222 366 c 257
 177.333333333 390 141.5 417.666666667 114.5 449 c 128
 87.5 480.333333333 70.5 516.833333333 63.5 558.5 c 128
 56.5 600.166666667 67.3333333333 644 96 690 c 257
 122 732.666666667 158.333333333 764.666666667 205 786 c 257
 183 809.333333333 166.5 833.666666667 155.5 859 c 128
 144.5 884.333333333 140.333333333 912.666666667 143 944 c 128
 145.666666667 975.333333333 156.666666667 1007 176 1039 c 257
 210.666666667 1097 262.333333333 1134.5 331 1151.5 c 128
 399.666666667 1168.5 465.333333333 1160.33333333 528 1127 c 257
 530 1125 533.5 1122.5 538.5 1119.5 c 128
 543.5 1116.5 547 1114 549 1112 c 257
 474 987 l 257
 466 993.666666667 458.666666667 998.666666667 452 1002 c 257
 426.666666667 1016 399.833333333 1019.5 371.5 1012.5 c 128
 343.166666667 1005.5 321.666666667 989.666666667 307 965 c 257
 290.333333333 937.666666667 288.833333333 907.666666667 302.5 875 c 128
 316.166666667 842.333333333 339 823.333333333 371 818 c 257
 386.333333333 810 400.333333333 802 413 794 c 257
 425 789.333333333 436.666666667 784 448 778 c 257
 450 776 453.5 773.5 458.5 770.5 c 128
 463.5 767.5 467 765 469 763 c 257
 465 756 l 257
 541.666666667 690.666666667 554 615.333333333 502 530 c 257
 471.333333333 478 426 442 366 422 c 257
 458.666666667 352.666666667 477.333333333 272.333333333 422 181 c 257
 387.333333333 122.333333333 335.833333333 84.5 267.5 67.5 c 128
 199.166666667 50.5 133.666666667 59 71 93 c 257
 69 95 65.5 97.5 60.5 100.5 c 128
 55.5 103.5 52 106 50 108 c 257
214 575 m 257
 218 571.666666667 222.333333333 569 227 567 c 257
 252.333333333 552.333333333 279 548.5 307 555.5 c 128
 335 562.5 356.666666667 578 372 602 c 257
 380.666666667 617.333333333 383.666666667 632.666666667 381 648 c 257
 378.333333333 650 375.333333333 651.666666667 372 653 c 257
 346.666666667 667 319.833333333 670.5 291.5 663.5 c 128
 263.166666667 656.5 241.666666667 640.666666667 227 616 c 257
 219.666666667 603.333333333 215.333333333 589.666666667 214 575 c 257
EndSplineSet
EndChar

StartChar: semicolon
Encoding: 1083 59 1083
GlifName: semicolon
Width: 252
VWidth: 0
GlyphClass: 2
Flags: HW
LayerCount: 2
Fore
SplineSet
50 398 m 257
 50 540 l 257
 202 540 l 257
 202 398 l 257
 50 398 l 257
50 -2 m 257
 50 140 l 257
 202 140 l 257
 202 -2 l 257
 142 -134 l 257
 84 -130 l 257
 93 -2 l 257
 50 -2 l 257
EndSplineSet
EndChar

StartChar: seven
Encoding: 1087 55 1087
GlifName: seven
Width: 610
VWidth: 0
GlyphClass: 2
Flags: HW
LayerCount: 2
Fore
SplineSet
213 0 m 257
 51 0 l 257
 389 610 l 257
 50 610 l 257
 50 762 l 257
 560 762 l 257
 560 610 l 257
 213 0 l 257
EndSplineSet
EndChar

StartChar: six
Encoding: 1091 54 1091
GlifName: six
Width: 709
VWidth: 0
GlyphClass: 2
Flags: HW
LayerCount: 2
Fore
SplineSet
383 367 m 257
 375.666666667 367 367.666666667 366 359 364 c 257
 359 365 l 257
 334.333333333 359.666666667 314 347.333333333 298 328 c 128
 282 308.666666667 274 286 274 260 c 257
 274 224 288.666666667 195.333333333 318 174 c 257
 328 168 338.666666667 162.666666667 350 158 c 257
 353.333333333 157.333333333 356.333333333 156.666666667 359 156 c 257
 359 157 l 257
 366.333333333 155 374.333333333 154 383 154 c 257
 391 154 399 155 407 157 c 257
 407 156 l 257
 431.666666667 161.333333333 452 173.666666667 468 193 c 128
 484 212.333333333 492 234.666666667 492 260 c 257
 492 286 484 308.666666667 468 328 c 128
 452 347.333333333 431.666666667 359.666666667 407 365 c 257
 407 364 l 257
 399 366 391 367 383 367 c 257
432 612 m 257
 375.333333333 612 325.666666667 593.333333333 283 556 c 128
 240.333333333 518.666666667 214.666666667 472 206 416 c 257
 252.666666667 466.666666667 310.333333333 494.333333333 379 499 c 257
 384.333333333 499.666666667 389 500 393 500 c 257
 396 500 396 500 397 500 c 257
 398 500 l 257
 399 500 399 500 401 500 c 257
 461.666666667 500 515.5 481.166666667 562.5 443.5 c 128
 609.5 405.833333333 639.666666667 358 653 300 c 257
 657 281.333333333 659 262 659 242 c 257
 659 215.333333333 655 189.333333333 647 164 c 257
 627 101.333333333 588.333333333 53.3333333333 531 20 c 257
 498.333333333 -2.66666666667 465.333333333 -14 432 -14 c 257
 428 -14 428 -14 425 -14 c 257
 417 -14.6666666667 409 -15 401 -15 c 257
 400 -15 400 -15 399 -15 c 258
 398 -15 l 257
 397 -15 l 257
 395 -15 395 -15 393 -15 c 257
 387.666666667 -15 383 -14.6666666667 379 -14 c 257
 325.666666667 -10 278.333333333 8.33333333333 237 41 c 257
 180.333333333 75.6666666667 135 123 101 183 c 128
 67 243 50 308.666666667 50 380 c 257
 50 488.666666667 87.3333333333 581.333333333 162 658 c 128
 236.666666667 734.666666667 326.666666667 773 432 773 c 257
 487.333333333 773 527 770.666666667 551 766 c 257
 551 600 l 257
 541 603.333333333 522.666666667 606.166666667 496 608.5 c 128
 469.333333333 610.833333333 448 612 432 612 c 257
EndSplineSet
EndChar

StartChar: slash
Encoding: 1095 47 1095
GlifName: slash
Width: 691
VWidth: 0
GlyphClass: 2
Flags: HW
LayerCount: 2
Fore
SplineSet
535 818 m 257
 641 757 l 257
 156 -83 l 257
 50 -22 l 257
 535 818 l 257
EndSplineSet
EndChar

StartChar: sterling
Encoding: 1099 163 1099
GlifName: sterling
Width: 864
VWidth: 0
GlyphClass: 2
Flags: HW
LayerCount: 2
Fore
SplineSet
512 752 m 257
 512 584 l 257
 491.333333333 601.333333333 467.666666667 610 441 610 c 257
 408.333333333 610 381.333333333 597.666666667 360 573 c 257
 360 511 l 257
 457 511 l 257
 457 359 l 257
 360 359 l 257
 360 166 l 257
 626 166 l 257
 651.333333333 187.333333333 664 214.666666667 664 248 c 257
 664 274.666666667 655.333333333 298 638 318 c 257
 806 318 l 257
 811.333333333 295.333333333 814 272 814 248 c 257
 814 189.333333333 796.666666667 137.666666667 762 93 c 128
 727.333333333 48.3333333333 682.666666667 18 628 2 c 257
 360 1 l 257
 360 -3 l 257
 193 -3 l 257
 193 0 l 257
 50 0 l 257
 50 166 l 257
 194 166 l 257
 195 359 l 257
 98 359 l 257
 98 511 l 257
 196 511 l 257
 196 574 l 257
 212 629.333333333 242.333333333 674.333333333 287 709 c 128
 331.666666667 743.666666667 383 761 441 761 c 257
 465.666666667 761 489.333333333 758 512 752 c 257
EndSplineSet
EndChar

StartChar: t
Encoding: 1103 116 1103
GlifName: t
Width: 514
VWidth: 0
GlyphClass: 2
Flags: HW
LayerCount: 2
Fore
SplineSet
464 6 m 257
 441.333333333 0 417.666666667 -3 393 -3 c 257
 335 -3 283.666666667 14.3333333333 239 49 c 128
 194.333333333 83.6666666667 164 128.666666667 148 184 c 257
 147 364 l 257
 50 364 l 257
 50 516 l 257
 146 516 l 257
 145 761 l 257
 312 761 l 257
 312 516 l 257
 409 516 l 257
 409 364 l 257
 312 364 l 257
 312 185 l 257
 333.333333333 160.333333333 360.333333333 148 393 148 c 257
 419.666666667 148 443.333333333 156.666666667 464 174 c 257
 464 6 l 257
EndSplineSet
EndChar

StartChar: tcaron
Encoding: 1107 357 1107
GlifName: tcaron
Width: 643
VWidth: 0
GlyphClass: 2
Flags: HW
LayerCount: 2
Fore
SplineSet
464 6 m 257
 441.333333333 0 417.666666667 -3 393 -3 c 257
 335 -3 283.666666667 14.3333333333 239 49 c 128
 194.333333333 83.6666666667 164 128.666666667 148 184 c 257
 147 364 l 257
 50 364 l 257
 50 516 l 257
 146 516 l 257
 145 761 l 257
 312 761 l 257
 312 516 l 257
 409 516 l 257
 409 364 l 257
 312 364 l 257
 312 185 l 257
 333.333333333 160.333333333 360.333333333 148 393 148 c 257
 419.666666667 148 443.333333333 156.666666667 464 174 c 257
 464 6 l 257
441 504 m 257
 441 761 l 257
 593 761 l 257
 548 504 l 257
 441 504 l 257
EndSplineSet
EndChar

StartChar: thorn
Encoding: 1111 254 1111
GlifName: thorn
Width: 534
VWidth: 0
GlyphClass: 2
Flags: HW
LayerCount: 2
Fore
SplineSet
202 359 m 257
 202 152 l 257
 210 150 218 149 226 149 c 257
 256 149 281.333333333 159.333333333 302 180 c 128
 322.666666667 200.666666667 333 226 333 256 c 257
 333 285.333333333 322.666666667 310.333333333 302 331 c 128
 281.333333333 351.666666667 256 362 226 362 c 257
 218 362 210 361 202 359 c 257
202 -199 m 257
 50 -199 l 257
 50 701 l 257
 197 701 l 257
 202 512 l 257
 207.333333333 512.666666667 215.333333333 513 226 513 c 257
 297.333333333 513 358.166666667 488 408.5 438 c 128
 458.833333333 388 484 327.333333333 484 256 c 128
 484 184.666666667 458.833333333 123.833333333 408.5 73.5 c 128
 358.166666667 23.1666666667 297.333333333 -2 226 -2 c 257
 215.333333333 -2 207.333333333 -1.66666666667 202 -1 c 257
 202 -199 l 257
EndSplineSet
EndChar

StartChar: three
Encoding: 1115 51 1115
GlifName: three
Width: 435
VWidth: 0
GlyphClass: 2
Flags: HW
LayerCount: 2
Fore
SplineSet
50 -5 m 257
 50 119 l 257
 58.6666666667 117 67.3333333333 116 76 116 c 257
 120 116 157.333333333 124.333333333 188 141 c 128
 218.666666667 157.666666667 234 178 234 202 c 257
 234 224.666666667 225 244 207 260 c 128
 189 276 166.666666667 285.333333333 140 288 c 257
 133 288 133 288 127 288 c 128
 121 288 121 288 115 288 c 257
 110.333333333 288 105.666666667 287.333333333 101 286 c 257
 101 289 l 257
 101 410 l 257
 101 413 l 257
 105.666666667 411.666666667 110.333333333 411 115 411 c 257
 121 411 121 411 127 411 c 128
 133 411 133 411 140 411 c 257
 166.666666667 413 189 422.166666667 207 438.5 c 128
 225 454.833333333 234 474 234 496 c 257
 234 520.666666667 219.333333333 541.333333333 190 558 c 128
 160.666666667 574.666666667 124.666666667 583 82 583 c 257
 73.3333333333 583 64.6666666667 582 56 580 c 257
 56 704 l 257
 64.6666666667 704.666666667 73.3333333333 705 82 705 c 257
 166 705 237.5 684.666666667 296.5 644 c 128
 355.5 603.333333333 385 554 385 496 c 257
 385 438.666666667 360 389.666666667 310 349 c 257
 360 308.333333333 385 259.333333333 385 202 c 128
 385 144.666666667 354.833333333 95.6666666667 294.5 55 c 128
 234.166666667 14.3333333333 161.333333333 -6 76 -6 c 257
 67.3333333333 -6 58.6666666667 -5.66666666667 50 -5 c 257
EndSplineSet
EndChar

StartChar: tildecomb
Encoding: 1127 771 1127
GlifName: tildecomb
Width: 0
VWidth: 0
GlyphClass: 4
Flags: HW
LayerCount: 2
Fore
SplineSet
125 919 m 257
 125 843 l 257
 124.333333333 841.666666667 121.5 838 116.5 832 c 128
 111.5 826 103.666666667 819.5 93 812.5 c 128
 82.3333333333 805.5 71.6666666667 802 61 802 c 257
 11 802 l 257
 0.333333333333 802 -12.5 806.666666667 -27.5 816 c 128
 -42.5 825.333333333 -55.3333333333 830 -66 830 c 257
 -73.3333333333 830 -82 827.666666667 -92 823 c 128
 -102 818.333333333 -110 813.666666667 -116 809 c 257
 -125 802 l 257
 -125 878 l 257
 -103.666666667 896.666666667 -84.6666666667 906 -68 906 c 257
 -56.6666666667 906 -43.1666666667 901.5 -27.5 892.5 c 128
 -11.8333333333 883.5 1.33333333333 879 12 879 c 257
 35 879 35 879 57 879 c 257
 67 879 77.6666666667 882.333333333 89 889 c 128
 100.333333333 895.666666667 109 902.333333333 115 909 c 257
 125 919 l 257
EndSplineSet
EndChar

StartChar: two
Encoding: 1131 50 1131
GlifName: two
Width: 603
VWidth: 0
GlyphClass: 2
Flags: HW
LayerCount: 2
Fore
SplineSet
126 586 m 257
 100.666666667 586 76.3333333333 582.666666667 53 576 c 257
 53 709 l 257
 77 713 101.333333333 715 126 715 c 257
 195.333333333 715 259.333333333 701 318 673 c 128
 376.666666667 645 423 606.833333333 457 558.5 c 128
 491 510.166666667 508 457.333333333 508 400 c 257
 508 336.666666667 487 280.5 445 231.5 c 128
 403 182.5 347.333333333 146.666666667 278 124 c 257
 553 126 l 257
 553 5 l 257
 50 0 l 257
 53 236 l 257
 76.3333333333 229.333333333 100.666666667 226 126 226 c 257
 190.666666667 226 245 242 289 274 c 128
 333 306 355 347.666666667 355 399 c 257
 355 450.333333333 332.666666667 494.333333333 288 531 c 128
 243.333333333 567.666666667 189.333333333 586 126 586 c 257
EndSplineSet
EndChar

StartChar: u
Encoding: 1135 117 1135
GlifName: u
Width: 597
VWidth: 0
GlyphClass: 2
Flags: HW
LayerCount: 2
Fore
SplineSet
547 2 m 257
 378 2 l 257
 378 12 l 257
 352 4 325.333333333 0 298 0 c 257
 240 0 188.666666667 17.3333333333 144 52 c 128
 99.3333333333 86.6666666667 69 131.666666667 53 187 c 257
 50 518 l 257
 217 518 l 257
 217 188 l 257
 238.333333333 163.333333333 265.333333333 151 298 151 c 257
 330 151 356.666666667 162.666666667 378 186 c 257
 378 518 l 257
 547 518 l 257
 547 2 l 257
EndSplineSet
EndChar

StartChar: underscore
Encoding: 1167 95 1167
GlifName: underscore
Width: 644
VWidth: 0
GlyphClass: 2
Flags: HW
LayerCount: 2
Fore
SplineSet
594 196 m 257
 594 44 l 257
 50 44 l 257
 50 196 l 257
 594 196 l 257
EndSplineSet
EndChar

StartChar: uni0237
Encoding: 1248 567 1248
GlifName: uni0237
Width: 419
VWidth: 0
GlyphClass: 2
Flags: HW
LayerCount: 2
Fore
SplineSet
50 -195 m 257
 50 -27 l 257
 70.6666666667 -44.3333333333 94.3333333333 -53 121 -53 c 257
 153.666666667 -53 180.666666667 -40.6666666667 202 -16 c 257
 202 517 l 257
 369 517 l 257
 366 -17 l 257
 350 -72.3333333333 319.666666667 -117.333333333 275 -152 c 128
 230.333333333 -186.666666667 179 -204 121 -204 c 257
 96.3333333333 -204 72.6666666667 -201 50 -195 c 257
EndSplineSet
EndChar

StartChar: uni0302
Encoding: 1252 770 1252
GlifName: uni0302
Width: 0
VWidth: 0
GlyphClass: 4
Flags: HW
LayerCount: 2
Fore
SplineSet
-100 766 m 257
 -29 934 l 257
 -28 934 l 257
 47 934 l 257
 48 934 l 257
 100 766 l 257
 24 766 l 257
 4 874 l 257
 -24 766 l 257
 -100 766 l 257
EndSplineSet
EndChar

StartChar: uni0304
Encoding: 1256 772 1256
GlifName: uni0304
Width: 0
VWidth: 0
GlyphClass: 4
Flags: HW
LayerCount: 2
Fore
SplineSet
136 858 m 257
 136 782 l 257
 -136 782 l 257
 -136 858 l 257
 136 858 l 257
EndSplineSet
EndChar

StartChar: uni0306
Encoding: 1260 774 1260
GlifName: uni0306
Width: 0
VWidth: 0
GlyphClass: 4
Flags: HW
LayerCount: 2
Fore
SplineSet
128 932 m 257
 128 918 l 257
 128 882.666666667 115.666666667 852.5 91 827.5 c 128
 66.3333333333 802.5 36 790 0 790 c 257
 -36 790 -66.3333333333 802.333333333 -91 827 c 128
 -115.666666667 851.666666667 -128 882 -128 918 c 257
 -128 932 l 257
 -52 932 l 257
 -53.3333333333 926.666666667 -54 922 -54 918 c 257
 -54 903.333333333 -48.6666666667 890.666666667 -38 880 c 128
 -27.3333333333 869.333333333 -14.5 864 0.5 864 c 128
 15.5 864 28.1666666667 869.333333333 38.5 880 c 128
 48.8333333333 890.666666667 54 903.333333333 54 918 c 257
 54 922 53.3333333333 926.666666667 52 932 c 257
 128 932 l 257
EndSplineSet
EndChar

StartChar: uni0307
Encoding: 1264 775 1264
GlifName: uni0307
Width: 0
VWidth: 0
GlyphClass: 4
Flags: HW
LayerCount: 2
Fore
SplineSet
-76 498 m 257
 -76 640 l 257
 76 640 l 257
 76 498 l 257
 -76 498 l 257
EndSplineSet
EndChar

StartChar: uni0308
Encoding: 1268 776 1268
GlifName: uni0308
Width: 0
VWidth: 0
GlyphClass: 4
Flags: HW
LayerCount: 2
Fore
SplineSet
-176 498 m 257
 -176 640 l 257
 -24 640 l 257
 -24 498 l 257
 -176 498 l 257
24 498 m 257
 24 640 l 257
 176 640 l 257
 176 498 l 257
 24 498 l 257
EndSplineSet
EndChar

StartChar: uni030A
Encoding: 1272 778 1272
GlifName: uni030A_
Width: 0
VWidth: 0
GlyphClass: 4
Flags: HW
LayerCount: 2
Fore
SplineSet
-12 612 m 257
 -12 613 l 257
 -12 613 l 257
 -24.6666666667 610.333333333 -34.8333333333 604.166666667 -42.5 594.5 c 128
 -50.1666666667 584.833333333 -54 573.333333333 -54 560 c 257
 -54 547.333333333 -50.1666666667 536.166666667 -42.5 526.5 c 128
 -34.8333333333 516.833333333 -24.6666666667 510.666666667 -12 508 c 257
 -12 509 l 257
 -6.66666666667 507.666666667 -2.66666666667 507 0 507 c 128
 2.66666666667 507 6.66666666667 507.666666667 12 509 c 257
 12 508 l 257
 24.6666666667 510.666666667 34.8333333333 516.833333333 42.5 526.5 c 128
 50.1666666667 536.166666667 54 547.333333333 54 560 c 257
 54 573.333333333 50.1666666667 584.833333333 42.5 594.5 c 128
 34.8333333333 604.166666667 24.6666666667 610.333333333 12 613 c 257
 12 612 l 257
 6.66666666667 613.333333333 2.66666666667 614 0 614 c 128
 -2.66666666667 614 -6.66666666667 613.333333333 -12 612 c 257
-1 432 m 257
 -3 432 l 257
 -10 432 l 257
 -44 434.666666667 -72.5 448.166666667 -95.5 472.5 c 128
 -118.5 496.833333333 -130 526 -130 560 c 128
 -130 594 -118.333333333 623.333333333 -95 648 c 128
 -71.6666666667 672.666666667 -43.3333333333 686.333333333 -10 689 c 257
 -3 689 l 257
 -1 689 l 257
 1 689 l 257
 37 689 67.5 676.5 92.5 651.5 c 128
 117.5 626.5 130 596 130 560 c 257
 130 524.666666667 117.5 494.5 92.5 469.5 c 128
 67.5 444.5 37 432 1 432 c 257
 -1 432 l 257
EndSplineSet
EndChar

StartChar: uni030B
Encoding: 1276 779 1276
GlifName: uni030B_
Width: 0
VWidth: 0
GlyphClass: 4
Flags: HW
LayerCount: 2
Fore
SplineSet
-180 516 m 257
 -288 623 l 257
 -106 805 l 257
 2 698 l 257
 -180 516 l 257
106 514 m 257
 -2 621 l 257
 180 803 l 257
 288 696 l 257
 106 514 l 257
EndSplineSet
EndChar

StartChar: uni030C
Encoding: 1280 780 1280
GlifName: uni030C_
Width: 0
VWidth: 0
GlyphClass: 4
Flags: HW
LayerCount: 2
Fore
SplineSet
-100 934 m 257
 -24 934 l 257
 4 826 l 257
 24 934 l 257
 100 934 l 257
 48 766 l 257
 47 766 l 257
 -28 766 l 257
 -29 766 l 257
 -100 934 l 257
EndSplineSet
EndChar

StartChar: uni030F
Encoding: 1284 783 1284
GlifName: uni030F_
Width: 0
VWidth: 0
GlyphClass: 4
Flags: HW
LayerCount: 2
Fore
SplineSet
180 516 m 257
 -2 698 l 257
 106 805 l 257
 288 623 l 257
 180 516 l 257
-106 514 m 257
 -288 696 l 257
 -180 803 l 257
 2 621 l 257
 -106 514 l 257
EndSplineSet
EndChar

StartChar: uni0312
Encoding: 1288 786 1288
GlifName: uni0312
Width: 0
VWidth: 0
GlyphClass: 4
Flags: HW
LayerCount: 2
Fore
SplineSet
76 408 m 257
 76 266 l 257
 -76 266 l 257
 -76 408 l 257
 -16 540 l 257
 42 536 l 257
 33 408 l 257
 76 408 l 257
EndSplineSet
EndChar

StartChar: uni0313
Encoding: 1292 787 1292
GlifName: uni0313
Width: 0
VWidth: 0
GlyphClass: 4
Flags: HW
LayerCount: 2
Fore
SplineSet
-76 398 m 257
 -76 540 l 257
 76 540 l 257
 76 398 l 257
 16 266 l 257
 -42 270 l 257
 -33 398 l 257
 -76 398 l 257
EndSplineSet
EndChar

StartChar: uni0326
Encoding: 1296 806 1296
GlifName: uni0326
Width: 0
VWidth: 0
GlyphClass: 4
Flags: HW
LayerCount: 2
Fore
SplineSet
-126 98 m 257
 -126 240 l 257
 26 240 l 257
 26 98 l 257
 -34 -34 l 257
 -92 -30 l 257
 -83 98 l 257
 -126 98 l 257
EndSplineSet
EndChar

StartChar: uni0327
Encoding: 1300 807 1300
GlifName: uni0327
Width: 0
VWidth: 0
GlyphClass: 4
Flags: HW
LayerCount: 2
Fore
SplineSet
-121 -68 m 257
 -121 9 l 257
 -115.666666667 7.66666666667 -111.333333333 7 -108 7 c 257
 -92.6666666667 7 -79.8333333333 12.1666666667 -69.5 22.5 c 128
 -59.1666666667 32.8333333333 -54 45.3333333333 -54 60 c 128
 -54 74.6666666667 -59.3333333333 87.3333333333 -70 98 c 128
 -80.6666666667 108.666666667 -93.3333333333 114 -108 114 c 257
 -111.333333333 114 -115.666666667 113.333333333 -121 112 c 257
 -121 189 l 257
 -108 189 l 257
 -72 189 -41.5 176.5 -16.5 151.5 c 128
 8.5 126.5 21 96 21 60 c 257
 21 24.6666666667 8.5 -5.5 -16.5 -30.5 c 128
 -41.5 -55.5 -72 -68 -108 -68 c 257
 -121 -68 l 257
EndSplineSet
EndChar

StartChar: uni0328
Encoding: 1304 808 1304
GlifName: uni0328
Width: 0
VWidth: 0
GlyphClass: 4
Flags: HW
LayerCount: 2
Fore
SplineSet
21 -68 m 257
 8 -68 l 257
 -28 -68 -58.5 -55.5 -83.5 -30.5 c 128
 -108.5 -5.5 -121 24.6666666667 -121 60 c 257
 -121 96 -108.5 126.5 -83.5 151.5 c 128
 -58.5 176.5 -28 189 8 189 c 257
 21 189 l 257
 21 112 l 257
 15.6666666667 113.333333333 11.3333333333 114 8 114 c 257
 -6.66666666667 114 -19.3333333333 108.666666667 -30 98 c 128
 -40.6666666667 87.3333333333 -46 74.6666666667 -46 60 c 128
 -46 45.3333333333 -40.8333333333 32.8333333333 -30.5 22.5 c 128
 -20.1666666667 12.1666666667 -7.33333333333 7 8 7 c 257
 11.3333333333 7 15.6666666667 7.66666666667 21 9 c 257
 21 -68 l 257
EndSplineSet
EndChar

StartChar: u0964
Encoding: 1308 2404 1308
GlifName: u0964
Width: 252
VWidth: 0
GlyphClass: 2
Flags: HW
LayerCount: 2
Fore
SplineSet
202 370 m 257
 202 -30 l 257
 50 -30 l 257
 50 370 l 257
 202 370 l 257
EndSplineSet
EndChar

StartChar: u0980
Encoding: 1316 2432 1316
GlifName: u0980
Width: 534
VWidth: 0
GlyphClass: 2
Flags: HW
LayerCount: 2
Fore
SplineSet
210 343 m 257
 210 265 l 257
 141.333333333 265 89.1666666667 289.166666667 53.5 337.5 c 128
 17.8333333333 385.833333333 0 447.666666667 0 523 c 257
 0 594.333333333 25.1666666667 655 75.5 705 c 128
 125.833333333 755 186.666666667 780 258 780 c 257
 264 780 l 257
 268 780 272.166666667 780.166666667 276.5 780.5 c 128
 280.833333333 780.833333333 286.5 780.833333333 293.5 780.5 c 128
 300.5 780.166666667 307.333333333 779.666666667 314 779 c 128
 320.666666667 778.333333333 327.833333333 777.333333333 335.5 776 c 128
 343.166666667 774.666666667 350.333333333 773 357 771 c 128
 363.666666667 769 370.333333333 766.333333333 377 763 c 128
 383.666666667 759.666666667 389.666666667 756 395 752 c 257
 406.333333333 742.666666667 415.166666667 727.833333333 421.5 707.5 c 128
 427.833333333 687.166666667 431.333333333 669.333333333 432 654 c 257
 434 631 l 257
 434 3 l 257
 282 3 l 257
 282 266 l 257
 280.666666667 266 280.333333333 276.5 281 297.5 c 128
 281.666666667 318.5 282.666666667 338.166666667 284 356.5 c 128
 285.333333333 374.833333333 285 385.333333333 283 388 c 257
 282 419 l 257
 282 626 l 257
 274 628 266 629 258 629 c 257
 228 629 202.666666667 618.666666667 182 598 c 128
 161.333333333 577.333333333 151 552.333333333 151 523 c 257
 151 506.333333333 151.166666667 494.666666667 151.5 488 c 128
 151.833333333 481.333333333 152.833333333 472.166666667 154.5 460.5 c 128
 156.166666667 448.833333333 159 440.5 163 435.5 c 128
 167 430.5 173 426 181 422 c 128
 189 418 198.666666667 416 210 416 c 257
 210 397 l 257
 210 384.333333333 209.833333333 372.666666667 209.5 362 c 128
 209.166666667 351.333333333 209.333333333 345 210 343 c 257
EndSplineSet
EndChar

StartChar: u0981
Encoding: 1320 2433 1320
GlifName: u0981
Width: 0
VWidth: 0
GlyphClass: 2
Flags: HW
LayerCount: 2
Fore
SplineSet
-61 658 m 257
 -61 772 l 257
 61 772 l 257
 61 658 l 257
 -61 658 l 257
193 619 m 257
 193 600 l 257
 193 546 174.333333333 500.166666667 137 462.5 c 128
 99.6666666667 424.833333333 54.3333333333 406 1 406 c 257
 -53 406 -98.8333333333 424.833333333 -136.5 462.5 c 128
 -174.166666667 500.166666667 -193 546 -193 600 c 257
 -193 619 l 257
 -77 619 l 257
 -79 613 -80 606.666666667 -80 600 c 257
 -80 577.333333333 -72.1666666667 558.166666667 -56.5 542.5 c 128
 -40.8333333333 526.833333333 -21.6666666667 519 1 519 c 128
 23.6666666667 519 42.5 526.833333333 57.5 542.5 c 128
 72.5 558.166666667 80 577.333333333 80 600 c 257
 80 606.666666667 79 613 77 619 c 257
 193 619 l 257
EndSplineSet
EndChar

StartChar: u0982
Encoding: 1324 2434 1324
GlifName: u0982
Width: 445
VWidth: 0
GlyphClass: 2
Flags: HW
LayerCount: 2
Fore
SplineSet
159 427 m 257
 392 69 l 257
 286 8 l 257
 53 366 l 257
 159 427 l 257
194 663 m 257
 194 664 l 257
 194 664 l 257
 181.333333333 661.333333333 171.166666667 655.166666667 163.5 645.5 c 128
 155.833333333 635.833333333 152 624.333333333 152 611 c 257
 152 598.333333333 155.833333333 587.166666667 163.5 577.5 c 128
 171.166666667 567.833333333 181.333333333 561.666666667 194 559 c 257
 194 560 l 257
 199.333333333 558.666666667 203.333333333 558 206 558 c 128
 208.666666667 558 212.666666667 558.666666667 218 560 c 257
 218 559 l 257
 230.666666667 561.666666667 240.833333333 567.833333333 248.5 577.5 c 128
 256.166666667 587.166666667 260 598.333333333 260 611 c 257
 260 624.333333333 256.166666667 635.833333333 248.5 645.5 c 128
 240.833333333 655.166666667 230.666666667 661.333333333 218 664 c 257
 218 663 l 257
 212.666666667 664.333333333 208.666666667 665 206 665 c 128
 203.333333333 665 199.333333333 664.333333333 194 663 c 257
205 483 m 257
 203 483 l 257
 196 483 l 257
 162 485.666666667 133.5 499.166666667 110.5 523.5 c 128
 87.5 547.833333333 76 577 76 611 c 128
 76 645 87.6666666667 674.333333333 111 699 c 128
 134.333333333 723.666666667 162.666666667 737.333333333 196 740 c 257
 203 740 l 257
 205 740 l 257
 207 740 l 257
 243 740 273.5 727.5 298.5 702.5 c 128
 323.5 677.5 336 647 336 611 c 257
 336 575.666666667 323.5 545.5 298.5 520.5 c 128
 273.5 495.5 243 483 207 483 c 257
 205 483 l 257
EndSplineSet
EndChar

StartChar: u0983
Encoding: 1328 2435 1328
GlifName: u0983
Width: 445
VWidth: 0
GlyphClass: 2
Flags: HW
LayerCount: 2
Fore
SplineSet
210.5 663 m 257
 210.5 664 l 256
 210.5 664 l 257
 210.5 664 l 257
 210.5 664 l 257
 210.5 664 l 257
 197.833333333 661.333333333 187.666666667 655.166666667 180 645.5 c 128
 172.333333333 635.833333333 168.5 624.333333333 168.5 611 c 257
 168.5 598.333333333 172.333333333 587.166666667 180 577.5 c 128
 187.666666667 567.833333333 197.833333333 561.666666667 210.5 559 c 257
 210.5 560 l 257
 215.833333333 558.666666667 219.833333333 558 222.5 558 c 128
 225.166666667 558 229.166666667 558.666666667 234.5 560 c 257
 234.5 559 l 257
 247.166666667 561.666666667 257.333333333 567.833333333 265 577.5 c 128
 272.666666667 587.166666667 276.5 598.333333333 276.5 611 c 257
 276.5 624.333333333 272.666666667 635.833333333 265 645.5 c 128
 257.333333333 655.166666667 247.166666667 661.333333333 234.5 664 c 257
 234.5 663 l 257
 229.166666667 664.333333333 225.166666667 665 222.5 665 c 128
 219.833333333 665 215.833333333 664.333333333 210.5 663 c 257
221.5 483 m 257
 219.5 483 l 257
 212.5 483 l 257
 178.5 485.666666667 150 499.166666667 127 523.5 c 128
 104 547.833333333 92.5 577 92.5 611 c 128
 92.5 645 104.166666667 674.333333333 127.5 699 c 128
 150.833333333 723.666666667 179.166666667 737.333333333 212.5 740 c 257
 219.5 740 l 257
 221.5 740 l 257
 223.5 740 l 257
 259.5 740 290 727.5 315 702.5 c 128
 340 677.5 352.5 647 352.5 611 c 257
 352.5 575.666666667 340 545.5 315 520.5 c 128
 290 495.5 259.5 483 223.5 483 c 257
 221.5 483 l 257
210.5 263 m 257
 210.5 264 l 256
 210.5 264 l 257
 210.5 264 l 257
 210.5 264 l 257
 210.5 264 l 257
 197.833333333 261.333333333 187.666666667 255.166666667 180 245.5 c 128
 172.333333333 235.833333333 168.5 224.333333333 168.5 211 c 257
 168.5 198.333333333 172.333333333 187.166666667 180 177.5 c 128
 187.666666667 167.833333333 197.833333333 161.666666667 210.5 159 c 257
 210.5 160 l 257
 215.833333333 158.666666667 219.833333333 158 222.5 158 c 128
 225.166666667 158 229.166666667 158.666666667 234.5 160 c 257
 234.5 159 l 257
 247.166666667 161.666666667 257.333333333 167.833333333 265 177.5 c 128
 272.666666667 187.166666667 276.5 198.333333333 276.5 211 c 257
 276.5 224.333333333 272.666666667 235.833333333 265 245.5 c 128
 257.333333333 255.166666667 247.166666667 261.333333333 234.5 264 c 257
 234.5 263 l 257
 229.166666667 264.333333333 225.166666667 265 222.5 265 c 128
 219.833333333 265 215.833333333 264.333333333 210.5 263 c 257
221.5 83 m 257
 219.5 83 l 257
 212.5 83 l 257
 178.5 85.6666666667 150 99.1666666667 127 123.5 c 128
 104 147.833333333 92.5 177 92.5 211 c 128
 92.5 245 104.166666667 274.333333333 127.5 299 c 128
 150.833333333 323.666666667 179.166666667 337.333333333 212.5 340 c 257
 219.5 340 l 257
 221.5 340 l 257
 223.5 340 l 257
 259.5 340 290 327.5 315 302.5 c 128
 340 277.5 352.5 247 352.5 211 c 257
 352.5 175.666666667 340 145.5 315 120.5 c 128
 290 95.5 259.5 83 223.5 83 c 257
 221.5 83 l 257
EndSplineSet
EndChar

StartChar: u0985
Encoding: 1332 2437 1332
GlifName: u0985
Width: 946
VWidth: 0
GlyphClass: 2
Flags: HW
LayerCount: 2
Fore
SplineSet
401 505 m 257
 396 634 l 257
 397 634 397 634 398 634 c 257
 482.666666667 634 554.833333333 603.333333333 614.5 542 c 128
 674.166666667 480.666666667 704 406.666666667 704 320 c 257
 704 307.333333333 703 295 701 283 c 257
 773 211 l 257
 773 671 l 257
 0 671 l 257
 0 803 l 257
 946 803 l 257
 946 671 l 257
 925 671 l 257
 925 0 l 257
 773 0 l 257
 771 -2 l 257
 641 128 l 257
 612.333333333 90 576.833333333 60 534.5 38 c 128
 492.166666667 16 446.666666667 5 398 5 c 257
 313.333333333 5 241.166666667 35.6666666667 181.5 97 c 128
 121.833333333 158.333333333 92 232.666666667 92 320 c 257
 153.5 321.5 l 258
 194.5 322.5 215 323.333333333 215 324 c 257
 215 321 215 321 215 318 c 257
 215 266 232.833333333 221.666666667 268.5 185 c 128
 304.166666667 148.333333333 347.333333333 130 398 130 c 128
 448.666666667 130 491.833333333 148.333333333 527.5 185 c 128
 563.166666667 221.666666667 581 266 581 318 c 257
 581 369.333333333 563.5 413.166666667 528.5 449.5 c 128
 493.5 485.833333333 451 504.333333333 401 505 c 257
EndSplineSet
EndChar

StartChar: u0986
Encoding: 1336 2438 1336
GlifName: u0986
Width: 1261
VWidth: 0
GlyphClass: 2
Flags: HW
LayerCount: 2
Fore
SplineSet
1061 850 m 257
 1213 850 l 257
 1213 803 l 257
 1261 803 l 257
 1261 671 l 257
 1213 671 l 257
 1213 -2 l 257
 1061 -2 l 257
 1061 489 l 257
 1059 487 l 257
 925 625 l 257
 925 0 l 257
 773 0 l 257
 771 -2 l 257
 641 128 l 257
 612.333333333 90 576.833333333 60 534.5 38 c 128
 492.166666667 16 446.666666667 5 398 5 c 257
 313.333333333 5 241.166666667 35.6666666667 181.5 97 c 128
 121.833333333 158.333333333 92 232.666666667 92 320 c 257
 153.5 321.5 l 258
 194.5 322.5 215 323.333333333 215 324 c 257
 215 321 215 321 215 318 c 257
 215 266 232.833333333 221.666666667 268.5 185 c 128
 304.166666667 148.333333333 347.333333333 130 398 130 c 128
 448.666666667 130 491.833333333 148.333333333 527.5 185 c 128
 563.166666667 221.666666667 581 266 581 318 c 257
 581 369.333333333 563.5 413.166666667 528.5 449.5 c 128
 493.5 485.833333333 451 504.333333333 401 505 c 257
 396 634 l 257
 397 634 397 634 398 634 c 257
 482.666666667 634 554.833333333 603.333333333 614.5 542 c 128
 674.166666667 480.666666667 704 406.666666667 704 320 c 257
 704 307.333333333 703 295 701 283 c 257
 773 211 l 257
 773 671 l 257
 0 671 l 257
 0 800 l 257
 754 800 l 257
 946 800 l 257
 955 800 l 257
 1061 697 l 257
 1061 850 l 257
EndSplineSet
EndChar

StartChar: u0987
Encoding: 1340 2439 1340
GlifName: u0987
Width: 689
VWidth: 0
GlyphClass: 2
Flags: HW
LayerCount: 2
Fore
SplineSet
689 803 m 257
 689 671 l 257
 0 671 l 257
 0 803 l 257
 333 803 l 257
 327 833.666666667 316 857 300 873 c 257
 278.666666667 893.666666667 257.666666667 914.333333333 237 935 c 257
 221 951 195.5 963.5 160.5 972.5 c 128
 125.5 981.5 100.333333333 994 85 1010 c 257
 74.3333333333 1020 65.5 1035 58.5 1055 c 128
 51.5 1075 47.3333333333 1092.66666667 46 1108 c 257
 44 1130 l 257
 132 1197 l 257
 132.666666667 1191 133.666666667 1186.33333333 135 1183 c 128
 136.333333333 1179.66666667 140.833333333 1166.83333333 148.5 1144.5 c 128
 156.166666667 1122.16666667 165.333333333 1105.66666667 176 1095 c 257
 190.666666667 1080.33333333 215.166666667 1069 249.5 1061 c 128
 283.833333333 1053 308.666666667 1041.66666667 324 1027 c 257
 394 956 l 257
 403.333333333 946.666666667 410.833333333 935.166666667 416.5 921.5 c 128
 422.166666667 907.833333333 425.666666667 894.666666667 427 882 c 128
 428.333333333 869.333333333 429 857.333333333 429 846 c 128
 429 834.666666667 428.666666667 825.5 428 818.5 c 258
 427 808 l 257
 422 803 l 257
 689 803 l 257
236 472 m 257
 128 578 l 257
 179.333333333 629.333333333 240.5 655.333333333 311.5 656 c 128
 382.5 656.666666667 443.666666667 631.333333333 495 580 c 257
 545.666666667 528.666666667 570.666666667 467.666666667 570 397 c 128
 569.333333333 326.333333333 543.333333333 265.333333333 492 214 c 257
 467.333333333 188.666666667 440.666666667 169.333333333 412 156 c 257
 593 -1 l 257
 434 -1 l 257
 226 153 l 257
 190.666666667 167.666666667 159 189 131 217 c 257
 233 320 l 257
 234 319 l 257
 255.333333333 297.666666667 280.333333333 287.166666667 309 287.5 c 128
 337.666666667 287.833333333 363.333333333 299 386 321 c 257
 408 343.666666667 419.166666667 369.333333333 419.5 398 c 128
 419.833333333 426.666666667 409.333333333 451.666666667 388 473 c 257
 366.666666667 494.333333333 341.666666667 505 313 505 c 128
 284.333333333 505 258.666666667 494 236 472 c 257
EndSplineSet
EndChar

StartChar: u0988
Encoding: 1344 2440 1344
GlifName: u0988
Width: 1077
VWidth: 0
GlyphClass: 2
Flags: HW
LayerCount: 2
Fore
SplineSet
236 472 m 257
 128 578 l 257
 179.333333333 629.333333333 240.5 655.333333333 311.5 656 c 128
 382.5 656.666666667 443.666666667 631.333333333 495 580 c 257
 526.333333333 548.666666667 548 512 560 470 c 257
 639 535 l 257
 649 551 661 566 675 580 c 257
 701.666666667 606.666666667 732.666666667 626.666666667 768 640 c 257
 778 648 l 257
 777 643 l 257
 821 658.333333333 867.166666667 660.333333333 915.5 649 c 128
 963.833333333 637.666666667 1006 614 1042 578 c 257
 934 472 l 257
 911.333333333 494 885.666666667 505 857 505 c 128
 828.333333333 505 803.333333333 494.333333333 782 473 c 257
 760.666666667 451.666666667 750.166666667 426.666666667 750.5 398 c 128
 750.833333333 369.333333333 762 343.666666667 784 321 c 257
 806.666666667 299 832.333333333 287.833333333 861 287.5 c 128
 889.666666667 287.166666667 914.666666667 297.666666667 936 319 c 257
 937 320 l 257
 1039 217 l 257
 1007.66666667 185 972.166666667 161.833333333 932.5 147.5 c 128
 892.833333333 133.166666667 850 131 804 141 c 128
 758 151 716 175.333333333 678 214 c 257
 642 250 618.333333333 292.333333333 607 341 c 257
 534 265 l 257
 533 266 l 257
 521.666666667 246.666666667 508 229.333333333 492 214 c 257
 454 175.333333333 412 151 366 141 c 128
 320 131 277.166666667 133.166666667 237.5 147.5 c 128
 197.833333333 161.833333333 162.333333333 185 131 217 c 257
 233 320 l 257
 234 319 l 257
 255.333333333 297.666666667 280.333333333 287.166666667 309 287.5 c 128
 337.666666667 287.833333333 363.333333333 299 386 321 c 257
 388.666666667 323.666666667 391 326.333333333 393 329 c 257
 389 331 l 257
 403 342 l 257
 416.333333333 363.333333333 421.666666667 386 419 410 c 128
 416.333333333 434 406 455 388 473 c 257
 366.666666667 494.333333333 341.666666667 505 313 505 c 128
 284.333333333 505 258.666666667 494 236 472 c 257
1077 803 m 257
 1077 671 l 257
 0 671 l 257
 0 803 l 257
 538 803 l 257
 532 833.666666667 521 857 505 873 c 257
 483.666666667 893.666666667 462.666666667 914.333333333 442 935 c 257
 426 951 400.5 963.5 365.5 972.5 c 128
 330.5 981.5 305.333333333 994 290 1010 c 257
 279.333333333 1020 270.5 1035 263.5 1055 c 128
 256.5 1075 252.333333333 1092.66666667 251 1108 c 257
 249 1130 l 257
 337 1198 l 257
 337.666666667 1192 338.666666667 1187.16666667 340 1183.5 c 128
 341.333333333 1179.83333333 345.833333333 1166.83333333 353.5 1144.5 c 128
 361.166666667 1122.16666667 370.333333333 1105.66666667 381 1095 c 257
 395.666666667 1080.33333333 420.166666667 1069 454.5 1061 c 128
 488.833333333 1053 513.666666667 1041.66666667 529 1027 c 257
 599 956 l 257
 608.333333333 946.666666667 615.833333333 935.166666667 621.5 921.5 c 128
 627.166666667 907.833333333 630.666666667 894.666666667 632 882 c 128
 633.333333333 869.333333333 634 857.333333333 634 846 c 128
 634 834.666666667 633.666666667 825.5 633 818.5 c 258
 632 808 l 257
 627 803 l 257
 1077 803 l 257
EndSplineSet
EndChar

StartChar: u0989
Encoding: 1348 2441 1348
GlifName: u0989
Width: 616
VWidth: 0
GlyphClass: 2
Flags: HW
LayerCount: 2
Fore
SplineSet
616 803 m 257
 616 671 l 257
 441 671 l 257
 441 484 l 257
 481 461.333333333 512.833333333 430.166666667 536.5 390.5 c 128
 560.166666667 350.833333333 571.333333333 307.333333333 570 260 c 257
 568 187.333333333 542 126.333333333 492 77 c 128
 442 27.6666666667 381 3 309 3 c 257
 267.666666667 3 230.666666667 10.3333333333 198 25 c 128
 165.333333333 39.6666666667 138.833333333 59.3333333333 118.5 84 c 128
 98.1666666667 108.666666667 82.6666666667 136.166666667 72 166.5 c 128
 61.3333333333 196.833333333 56 228.333333333 56 261 c 257
 201 261 l 257
 201 260 l 257
 201 230 211.333333333 205 232 185 c 128
 252.666666667 165 278.666666667 154.666666667 310 154 c 257
 341.333333333 154.666666667 367.333333333 165 388 185 c 128
 408.666666667 205 419 230 419 260 c 257
 419 288 410.166666667 311.833333333 392.5 331.5 c 128
 374.833333333 351.166666667 352 362.666666667 324 366 c 257
 309 366 l 257
 309 518 l 257
 309 518 l 257
 309 671 l 257
 0 671 l 257
 0 803 l 257
 299 803 l 257
 292.333333333 834.333333333 281 858.333333333 265 875 c 257
 234 906 234 906 202 938 c 257
 186 953.333333333 160.5 965.666666667 125.5 975 c 128
 90.5 984.333333333 65.3333333333 996.666666667 50 1012 c 257
 39.3333333333 1022.66666667 30.6666666667 1038 24 1058 c 128
 17.3333333333 1078 13 1095.33333333 11 1110 c 257
 9 1132 l 257
 97 1195 l 257
 97.6666666667 1189 98.8333333333 1185 100.5 1183 c 128
 102.166666667 1181 106.666666667 1168.83333333 114 1146.5 c 128
 121.333333333 1124.16666667 130.333333333 1107.66666667 141 1097 c 257
 156.333333333 1082.33333333 181 1071 215 1063 c 256
 249.934 1054.94 274.600666667 1043.60666667 289 1029 c 258
 359 958 l 258
 368.333333333 948.666666667 375.833333333 937.166666667 381.5 923.5 c 128
 387.166666667 909.833333333 390.666666667 896.666666667 392 884 c 256
 393.345333333 860.456666667 394.012 848.456666667 394 848 c 258
 393 810 l 257
 385 803 l 257
 616 803 l 257
EndSplineSet
EndChar

StartChar: u098A
Encoding: 1352 2442 1352
GlifName: u098A_
Width: 616
VWidth: 0
GlyphClass: 2
Flags: HW
LayerCount: 2
Fore
SplineSet
616 803 m 257
 616 671 l 257
 441 671 l 257
 441 484 l 257
 481 461.333333333 512.833333333 430.166666667 536.5 390.5 c 128
 560.166666667 350.833333333 571.333333333 307.333333333 570 260 c 256
 568 187.333333333 542 126.333333333 492 77 c 256
 442.666666667 28.3333333333 382.465 3.66971 311.395 3.00913 c 257
 172 -50 l 257
 8 -1 l 257
 20 120 l 257
 131.375 69.8647 l 257
 127.125 74.6215666667 122.833333333 79.3333333333 118.5 84 c 256
 98.1666666667 108.666666667 82.6666666667 136.166666667 72 166.5 c 128
 61.3333333333 196.833333333 56 228.333333333 56 261 c 257
 201 261 l 257
 201 260 l 258
 201 230 211.333333333 205 232 185 c 256
 254 163.666666667 280 153.333333333 310 154 c 256
 341.333333333 154.666666667 367.333333333 165 388 185 c 128
 408.666666667 205 419 230 419 260 c 256
 419 288 410.166666667 311.833333333 392.5 331.5 c 128
 374.833333333 351.166666667 352 362.666666667 324 366 c 257
 309 366 l 257
 309 518 l 257
 309 671 l 257
 0 671 l 257
 0 803 l 257
 299 803 l 257
 292.333333333 834.333333333 281 858.333333333 265 875 c 256
 234 906 234 906 202 938 c 256
 186 953.333333333 160.5 965.666666667 125.5 975 c 128
 90.5 984.333333333 65.3333333333 996.666666667 50 1012 c 256
 39.3333333333 1022.66666667 30.6666666667 1038 24 1058 c 256
 16.4166666667 1080.74666667 12.0833333333 1098.08 11 1110 c 258
 9 1132 l 257
 97 1195 l 257
 97.6666666667 1189 98.8333333333 1185 100.5 1183 c 128
 102.166666667 1181 106.666666667 1168.83333333 114 1146.5 c 128
 121.333333333 1124.16666667 130.333333333 1107.66666667 141 1097 c 256
 156.333333333 1082.33333333 181 1071 215 1063 c 256
 249.934 1054.94 274.600666667 1043.60666667 289 1029 c 258
 359 958 l 258
 368.333333333 948.666666667 375.833333333 937.166666667 381.5 923.5 c 128
 387.166666667 909.833333333 390.666666667 896.666666667 392 884 c 128
 393.333333333 871.333333333 394 859.333333333 394 848 c 128
 394 836.666666667 393.666666667 827.5 393 820.5 c 128
 392.333333333 813.5 392.333333333 810 393 810 c 257
 385 803 l 257
 616 803 l 257
EndSplineSet
EndChar

StartChar: u098B
Encoding: 1356 2443 1356
GlifName: u098B_
Width: 1344
VWidth: 0
GlyphClass: 2
Flags: HW
LayerCount: 2
Fore
SplineSet
897 777 m 257
 1043 777 l 257
 1043 286 l 257
 1117 211 l 257
 1117 776 l 257
 1119 776 l 257
 1119 795 l 257
 1319 795 l 257
 1319 663 l 257
 1269 663 l 257
 1269 0 l 257
 1118 0 l 257
 1115 -2 l 257
 1043 70 l 257
 1043 1 l 257
 897 1 l 257
 896 1 l 257
 443 180 l 257
 443 332 l 257
 690 562 l 257
 700 629 l 257
 686.666666667 591 663.5 560 630.5 536 c 128
 597.5 512 560.333333333 500 519 500 c 257
 489 500 460.833333333 506.333333333 434.5 519 c 128
 408.166666667 531.666666667 386 549 368 571 c 257
 350 549 328 531.666666667 302 519 c 128
 276 506.333333333 248.333333333 500 219 500 c 257
 165 500 119.166666667 518.833333333 81.5 556.5 c 128
 43.8333333333 594.166666667 25 640 25 694 c 257
 25 713 l 257
 141 713 l 257
 139 707 138 700.666666667 138 694 c 257
 138 671.333333333 145.833333333 652.166666667 161.5 636.5 c 128
 177.166666667 620.833333333 196.333333333 613 219 613 c 128
 241.666666667 613 260.5 620.833333333 275.5 636.5 c 128
 290.5 652.166666667 298 671.333333333 298 694 c 257
 298 700.666666667 297 707 295 713 c 257
 325 713 l 257
 411 713 l 257
 441 713 l 257
 439 707 438 700.666666667 438 694 c 257
 438 671.333333333 445.833333333 652.166666667 461.5 636.5 c 128
 477.166666667 620.833333333 496.333333333 613 519 613 c 128
 541.666666667 613 560.5 620.833333333 575.5 636.5 c 128
 590.5 652.166666667 598 671.333333333 598 694 c 257
 598 700.666666667 597 707 595 713 c 257
 711 713 l 257
 711 701 l 257
 713 714 l 257
 897 714 l 257
 897 777 l 257
896 160 m 257
 896 709 l 257
 729 444 l 257
 728 445 l 257
 587 274 l 257
 896 160 l 257
EndSplineSet
EndChar

StartChar: u098B.0
Encoding: 1357 -1 1357
GlifName: u098B_.0
Width: 1344
VWidth: 0
GlyphClass: 2
Flags: HW
LayerCount: 2
Fore
SplineSet
822 787 m 257
 822 724 l 257
 638 724 l 257
 636 711 l 257
 636 723 l 257
 520 723 l 257
 522 717 523 710.666666667 523 704 c 257
 523 681.333333333 515.666666667 662.333333333 501 647 c 257
 485.666666667 631 466.666666667 623 444 623 c 257
 421.333333333 623 402.333333333 631 387 647 c 257
 371 662.333333333 363 681.333333333 363 704 c 257
 363 710.666666667 364 717 366 723 c 257
 336 723 l 257
 250 723 l 257
 220 723 l 257
 222 717 223 710.666666667 223 704 c 257
 223 681.333333333 215.666666667 662.333333333 201 647 c 257
 185.666666667 631 166.666666667 623 144 623 c 257
 121.333333333 623 102.333333333 631 87 647 c 257
 71 662.333333333 63 681.333333333 63 704 c 257
 63 710.666666667 64 717 66 723 c 257
 -50 723 l 257
 -50 704 l 257
 -50 650 -31 604.333333333 7 567 c 257
 44.3333333333 529 90 510 144 510 c 257
 173.333333333 510 201 516.333333333 227 529 c 257
 253 541.666666667 275 559 293 581 c 257
 311 559 333.333333333 541.666666667 360 529 c 257
 386 516.333333333 414 510 444 510 c 257
 485.333333333 510 522.666666667 522 556 546 c 257
 588.666666667 570 611.666666667 601 625 639 c 257
 615 572 l 257
 368 342 l 257
 368 190 l 257
 821 11 l 257
 822 11 l 257
 968 11 l 257
 968 80 l 257
 1040 8 l 257
 1043 10 l 257
 1194 10 l 257
 1194 673 l 257
 1244 673 l 257
 1244 805 l 257
 1044 805 l 257
 1044 786 l 257
 1042 786 l 257
 1042 221 l 257
 968 296 l 257
 968 787 l 257
 822 787 l 257
821 170 m 257
 512 284 l 257
 653 455 l 257
 654 454 l 257
 821 719 l 257
 821 170 l 257
EndSplineSet
EndChar

StartChar: u098C
Encoding: 1360 2444 1360
GlifName: u098C_
Width: 779
VWidth: 0
GlyphClass: 2
Flags: HW
LayerCount: 2
Fore
SplineSet
103.604 104 m 257
 102.937333333 112.666666667 102.604 121.333333333 102.604 130 c 257
 102.604 201.333333333 127.604 262.166666667 177.604 312.5 c 128
 227.604 362.833333333 288.270666667 388 359.604 388 c 257
 406.270666667 388 449.270666667 376.5 488.604 353.5 c 128
 527.937333333 330.5 558.937333333 299.666666667 581.604 261 c 257
 590.937333333 300.333333333 590.270666667 339.666666667 579.604 379 c 128
 568.937333333 418.333333333 548.604 453 518.604 483 c 257
 472.604 529 417.604 552.5 353.604 553.5 c 128
 289.604 554.5 235.270666667 532.333333333 190.604 487 c 257
 172.604 469.666666667 158.270666667 449.666666667 147.604 427 c 257
 32.6035 542 l 257
 46.6035 562 62.2701666667 580.666666667 79.6035 598 c 257
 128.2705 647.333333333 185.770666667 680.333333333 252.104 697 c 128
 318.437333333 713.666666667 385.104 712.666666667 452.104 694 c 128
 519.104 675.333333333 577.937333333 640.666666667 628.604 590 c 257
 678.604 539.333333333 712.937333333 480.666666667 731.604 414 c 128
 750.270666667 347.333333333 751.270666667 280.833333333 734.604 214.5 c 128
 717.937333333 148.166666667 684.937333333 90.6666666667 635.604 42 c 257
 618.270666667 24.6666666667 599.604 9 579.604 -5 c 257
 470.604 104 l 257
 463.604 104 l 257
 463.604 106 463.937333333 108 464.604 110 c 257
 461.604 113 l 257
 462.937333333 113 464.270666667 113.333333333 465.604 114 c 257
 466.270666667 119.333333333 466.604 124.666666667 466.604 130 c 257
 466.604 160 456.270666667 185.333333333 435.604 206 c 128
 414.937333333 226.666666667 389.604 237 359.604 237 c 257
 330.270666667 237 305.270666667 226.666666667 284.604 206 c 128
 263.937333333 185.333333333 253.604 160 253.604 130 c 257
 253.604 121.333333333 254.604 112.666666667 256.604 104 c 257
 103.604 104 l 257
EndSplineSet
EndChar

StartChar: u098F
Encoding: 1364 2447 1364
GlifName: u098F_
Width: 697
VWidth: 0
GlyphClass: 2
Flags: HW
LayerCount: 2
Fore
SplineSet
47.5 318 m 257
 215.5 318 l 257
 198.166666667 297.333333333 189.5 274 189.5 248 c 257
 189.5 214.666666667 201.5 187.333333333 225.5 166 c 257
 492.5 166 l 257
 492.5 573 l 257
 471.166666667 597.666666667 444.166666667 610 411.5 610 c 257
 384.833333333 610 361.166666667 601.333333333 340.5 584 c 257
 340.5 752 l 257
 363.166666667 758 386.833333333 761 411.5 761 c 257
 469.5 761 520.833333333 743.666666667 565.5 709 c 128
 610.166666667 674.333333333 640.5 629.333333333 656.5 574 c 257
 659.5 -3 l 257
 610.833333333 -3.66666666667 538.666666667 -2.83333333333 443 -0.5 c 128
 347.333333333 1.83333333333 274.833333333 2.66666666667 225.5 2 c 257
 170.166666667 18 125 48.5 90 93.5 c 128
 55 138.5 37.5 190 37.5 248 c 257
 37.5 272.666666667 40.8333333333 296 47.5 318 c 257
EndSplineSet
EndChar

StartChar: u0990
Encoding: 1368 2448 1368
GlifName: u0990
Width: 956
VWidth: 0
GlyphClass: 2
Flags: HW
LayerCount: 2
Fore
SplineSet
325.663 752 m 257
 348.329666667 758 371.996333333 761 396.663 761 c 257
 454.663 761 505.996333333 743.666666667 550.663 709 c 128
 595.329666667 674.333333333 625.663 629.333333333 641.663 574 c 257
 642.663 439 l 257
 689.996333333 421.666666667 727.996333333 413.333333333 756.663 414 c 257
 776.663 414 789.663 427 795.663 453 c 257
 807.663 504.333333333 802.329666667 557.833333333 779.663 613.5 c 128
 756.996333333 669.166666667 724.996333333 717.666666667 683.663 759 c 257
 667.663 775 642.163 787.5 607.163 796.5 c 128
 572.163 805.5 546.996333333 818 531.663 834 c 257
 520.996333333 844 512.163 859 505.163 879 c 128
 498.163 899 493.996333333 916.666666667 492.663 932 c 257
 490.663 954 l 257
 578.663 1042 l 257
 579.329666667 1036 580.329666667 1027.83333333 581.663 1017.5 c 128
 582.996333333 1007.16666667 587.496333333 990.833333333 595.163 968.5 c 128
 602.829666667 946.166666667 611.996333333 929.666666667 622.663 919 c 257
 637.329666667 904.333333333 661.829666667 893 696.163 885 c 128
 730.496333333 877 755.329666667 865.666666667 770.663 851 c 257
 840.663 780 l 257
 851.329666667 769.333333333 863.163 749.833333333 876.163 721.5 c 128
 889.163 693.166666667 900.663 660.166666667 910.663 622.5 c 128
 920.663 584.833333333 927.663 547.5 931.663 510.5 c 128
 935.663 473.5 932.496333333 439.333333333 922.163 408 c 128
 911.829666667 376.666666667 893.663 354.666666667 867.663 342 c 257
 824.996333333 322 783.996333333 312 744.663 312 c 257
 719.329666667 312 685.329666667 318.333333333 642.663 331 c 257
 644.663 -3 l 257
 595.996333333 -3.66666666667 523.829666667 -2.83333333333 428.163 -0.5 c 128
 332.496333333 1.83333333333 259.996333333 2.66666666667 210.663 2 c 257
 155.329666667 18 110.163016667 48.5 75.16305 93.5 c 128
 40.1630833333 138.5 22.6631 190 22.6631 248 c 257
 22.6631 272.666666667 25.9964333333 296 32.6631 318 c 257
 200.663 318 l 257
 183.329666667 297.333333333 174.663 274 174.663 248 c 257
 174.663 214.666666667 186.663 187.333333333 210.663 166 c 257
 477.663 166 l 257
 477.663 573 l 257
 456.329666667 597.666666667 429.329666667 610 396.663 610 c 257
 369.996333333 610 346.329666667 601.333333333 325.663 584 c 257
 325.663 752 l 257
EndSplineSet
EndChar

StartChar: u0993
Encoding: 1372 2451 1372
GlifName: u0993
Width: 616
VWidth: 0
GlyphClass: 2
Flags: HW
LayerCount: 2
Fore
SplineSet
285 682 m 257
 253 680 232.333333333 678 223 676 c 257
 223.666666667 676 222.333333333 683 219 697 c 128
 214 718 214 718 209 739 c 128
 205.666666667 753 204.333333333 760 205 760 c 257
 207.666666667 760 215.666666667 763.333333333 229 770 c 128
 242.333333333 776.666666667 258.5 784.166666667 277.5 792.5 c 128
 296.5 800.833333333 313.666666667 806 329 808 c 257
 399.666666667 818 457.5 799.333333333 502.5 752 c 128
 547.5 704.666666667 569.333333333 642.333333333 568 565 c 257
 566.666666667 507 550 456.333333333 518 413 c 257
 551.333333333 367.666666667 568 316.666666667 568 260 c 257
 568 188.666666667 542.833333333 128 492.5 78 c 128
 442.166666667 28 381.333333333 3 310 3 c 257
 309 3 309 3 308 3 c 258
 307 3 l 257
 306 3 l 257
 304 3 304 3 302 3 c 257
 296.666666667 3 292 3.33333333333 288 4 c 257
 220.666666667 8 163.833333333 34.6666666667 117.5 84 c 128
 71.1666666667 133.333333333 48 192 48 260 c 257
 48 314.666666667 63.3333333333 364 94 408 c 257
 106 412 l 257
 173.333333333 393.333333333 208 383.666666667 210 383 c 257
 218.666666667 379 221.333333333 371.666666667 218 361 c 257
 207.333333333 329 201.333333333 303.666666667 200 285 c 257
 199.333333333 277 199 268.666666667 199 260 c 257
 199 230 209.333333333 205 230 185 c 128
 250.666666667 165 276.666666667 154.666666667 308 154 c 257
 339.333333333 154.666666667 365.333333333 165 386 185 c 128
 406.666666667 205 417 230 417 260 c 257
 417 286 409 308.666666667 393 328 c 128
 377 347.333333333 356.666666667 359.666666667 332 365 c 257
 332 364 l 257
 308 459 l 257
 316 459 324 460 332 462 c 257
 332 461 l 257
 356.666666667 466.333333333 377 478.666666667 393 498 c 128
 409 517.333333333 417 539.666666667 417 565 c 257
 417 603.666666667 405 633.333333333 381 654 c 128
 357 674.666666667 325 684 285 682 c 257
EndSplineSet
EndChar

StartChar: u0994
Encoding: 1376 2452 1376
GlifName: u0994
Width: 884
VWidth: 0
GlyphClass: 2
Flags: HW
LayerCount: 2
Fore
SplineSet
285 682 m 257
 253 680 232.333333333 678 223 676 c 257
 223.666666667 676 222.333333333 683 219 697 c 128
 214 718 214 718 209 739 c 128
 205.666666667 753 204.333333333 760 205 760 c 257
 207.666666667 760 215.666666667 763.333333333 229 770 c 128
 242.333333333 776.666666667 258.5 784.166666667 277.5 792.5 c 128
 296.5 800.833333333 313.666666667 806 329 808 c 257
 399.666666667 818 457.5 799.333333333 502.5 752 c 128
 547.5 704.666666667 569.333333333 642.333333333 568 565 c 257
 567.333333333 520.333333333 557 479.333333333 537 442 c 257
 587.666666667 422.666666667 628.666666667 413.333333333 660 414 c 257
 680 414 693 427 699 453 c 257
 711 504.333333333 705.666666667 557.833333333 683 613.5 c 128
 660.333333333 669.166666667 628.333333333 717.666666667 587 759 c 257
 571 775 545.5 787.5 510.5 796.5 c 128
 475.5 805.5 450.333333333 818 435 834 c 257
 424.333333333 844 415.5 859 408.5 879 c 128
 401.5 899 397.333333333 916.666666667 396 932 c 257
 394 954 l 257
 482 1042 l 257
 482.666666667 1036 483.666666667 1027.83333333 485 1017.5 c 128
 486.333333333 1007.16666667 490.833333333 990.833333333 498.5 968.5 c 128
 506.166666667 946.166666667 515.333333333 929.666666667 526 919 c 257
 540.666666667 904.333333333 565.166666667 893 599.5 885 c 128
 633.833333333 877 658.666666667 865.666666667 674 851 c 257
 744 780 l 257
 754.666666667 769.333333333 766.5 749.833333333 779.5 721.5 c 128
 792.5 693.166666667 804 660.166666667 814 622.5 c 128
 824 584.833333333 831 547.5 835 510.5 c 128
 839 473.5 835.833333333 439.333333333 825.5 408 c 128
 815.166666667 376.666666667 797 354.666666667 771 342 c 257
 728.333333333 322 687.333333333 312 648 312 c 257
 625.333333333 312 595.666666667 317 559 327 c 257
 565 305 568 282.666666667 568 260 c 257
 568 188.666666667 542.833333333 128 492.5 78 c 128
 442.166666667 28 381.333333333 3 310 3 c 257
 309 3 309 3 308 3 c 258
 307 3 l 257
 306 3 l 257
 304 3 304 3 302 3 c 257
 296.666666667 3 292 3.33333333333 288 4 c 257
 220.666666667 8 163.833333333 34.6666666667 117.5 84 c 128
 71.1666666667 133.333333333 48 192 48 260 c 257
 48 314.666666667 63.3333333333 364 94 408 c 257
 106 412 l 257
 173.333333333 393.333333333 208 383.666666667 210 383 c 257
 218.666666667 379 221.333333333 371.666666667 218 361 c 257
 207.333333333 329 201.333333333 303.666666667 200 285 c 257
 199.333333333 277 199 268.666666667 199 260 c 257
 199 230 209.333333333 205 230 185 c 128
 250.666666667 165 276.666666667 154.666666667 308 154 c 257
 339.333333333 154.666666667 365.333333333 165 386 185 c 128
 406.666666667 205 417 230 417 260 c 257
 417 286 409 308.666666667 393 328 c 128
 377 347.333333333 356.666666667 359.666666667 332 365 c 257
 332 364 l 257
 308 459 l 257
 316 459 324 460 332 462 c 257
 332 461 l 257
 356.666666667 466.333333333 377 478.666666667 393 498 c 128
 409 517.333333333 417 539.666666667 417 565 c 257
 417 603.666666667 405 633.333333333 381 654 c 128
 357 674.666666667 325 684 285 682 c 257
EndSplineSet
EndChar

StartChar: u0995
Encoding: 1380 2453 1380
GlifName: u0995
Width: 1098
VWidth: 0
GlyphClass: 2
Flags: HW
LayerCount: 2
Fore
SplineSet
1098 803 m 257
 1098 671 l 257
 670 671 l 257
 670 478 l 257
 704.666666667 494 741.333333333 502 780 502 c 257
 852 502 913 477 963 427 c 128
 1013 377 1038 316 1038 244 c 257
 1038 235.333333333 1037.66666667 226.666666667 1037 218 c 257
 884 218 l 257
 886.666666667 226.666666667 888 235.333333333 888 244 c 257
 888 274.666666667 877.666666667 300.333333333 857 321 c 128
 836.333333333 341.666666667 810.666666667 352 780 352 c 257
 750.666666667 352 725.666666667 341.5 705 320.5 c 128
 684.333333333 299.5 674 274 674 244 c 257
 674 235.333333333 675.333333333 226.666666667 678 218 c 257
 670 218 l 257
 670 1 l 257
 527 1 l 257
 70 274 l 257
 70 426 l 257
 524 603 l 257
 524 671 l 257
 0 671 l 257
 0 803 l 257
 1098 803 l 257
525 155 m 257
 524.333333333 353 524 452.666666667 524 454 c 257
 214 350 l 257
 525 155 l 257
EndSplineSet
EndChar

StartChar: u0996
Encoding: 1384 2454 1384
GlifName: u0996
Width: 674
VWidth: 0
GlyphClass: 2
Flags: HW
LayerCount: 2
Fore
SplineSet
674 803 m 257
 674 671 l 257
 600 671 l 257
 600 1 l 257
 454 1 l 257
 454 777 l 257
 476 777 l 257
 476 803 l 257
 674 803 l 257
270 714 m 257
 402 714 l 257
 286 444 l 257
 285 445 l 257
 144 274 l 257
 453 160 l 257
 453 2 l 257
 0 180 l 257
 0 332 l 257
 246 562 l 257
 257 629 l 257
 243.666666667 591 220.5 560 187.5 536 c 128
 154.5 512 117.333333333 500 76 500 c 257
 21.3333333333 500 -24.6666666667 518.833333333 -62 556.5 c 128
 -99.3333333333 594.166666667 -118 640 -118 694 c 257
 -118 713 l 257
 -2 713 l 257
 -4.66666666667 707 -6 700.666666667 -6 694 c 257
 -6 671.333333333 2 652.166666667 18 636.5 c 128
 34 620.833333333 53.1666666667 613 75.5 613 c 128
 97.8333333333 613 116.5 620.833333333 131.5 636.5 c 128
 146.5 652.166666667 154 671.333333333 154 694 c 257
 154 700.666666667 153.333333333 707 152 713 c 257
 268 713 l 257
 268 701 l 257
 270 714 l 257
EndSplineSet
EndChar

StartChar: u0997
Encoding: 1388 2455 1388
GlifName: u0997
Width: 638
VWidth: 0
GlyphClass: 2
Flags: HW
LayerCount: 2
Fore
SplineSet
19 383 m 257
 86 495 l 257
 90.6666666667 490.333333333 98 486.333333333 108 483 c 257
 134.666666667 471.666666667 158.5 467.333333333 179.5 470 c 128
 200.5 472.666666667 217.666666667 482 231 498 c 257
 246.333333333 516 239 529 209 537 c 257
 201 539 183 542.333333333 155 547 c 257
 111 564.333333333 75.6666666667 584.5 49 607.5 c 128
 22.3333333333 630.5 6.33333333333 656 1 684 c 128
 -4.33333333333 712 5.66666666667 740.666666667 31 770 c 257
 62.3333333333 808 111.333333333 830.833333333 178 838.5 c 128
 244.666666667 846.166666667 310 836.333333333 374 809 c 257
 379.333333333 806.333333333 400.666666667 796 438 778 c 257
 438 850 l 257
 590 850 l 257
 590 803 l 257
 638 803 l 257
 638 671 l 257
 590 671 l 257
 590 -2 l 257
 438 -2 l 257
 438 613 l 257
 428 618.333333333 404.5 630.5 367.5 649.5 c 128
 330.5 668.5 310.333333333 678.666666667 307 680 c 257
 279.666666667 690.666666667 259.333333333 694.666666667 246 692 c 128
 232.666666667 689.333333333 219.333333333 680 206 664 c 257
 189.333333333 646.666666667 182.5 634.833333333 185.5 628.5 c 128
 188.5 622.166666667 205.666666667 616.333333333 237 611 c 257
 263 599.666666667 285.666666667 589.166666667 305 579.5 c 128
 324.333333333 569.833333333 342.833333333 558.333333333 360.5 545 c 128
 378.166666667 531.666666667 390.833333333 518.5 398.5 505.5 c 128
 406.166666667 492.5 409.166666667 477.833333333 407.5 461.5 c 128
 405.833333333 445.166666667 397.666666667 428.333333333 383 411 c 257
 351.666666667 373 302.666666667 349.833333333 236 341.5 c 128
 169.333333333 333.166666667 104.333333333 342.666666667 41 370 c 257
 35.6666666667 371.333333333 28.3333333333 375.666666667 19 383 c 257
EndSplineSet
EndChar

StartChar: u0998
Encoding: 1392 2456 1392
GlifName: u0998
Width: 776
VWidth: 0
GlyphClass: 2
Flags: HW
LayerCount: 2
Fore
SplineSet
86 672 m 257
 0 671 l 257
 0 803 l 257
 776 803 l 257
 776 671 l 257
 755 671 l 257
 755 0 l 257
 365 19 l 257
 279.666666667 19 206.833333333 41.3333333333 146.5 86 c 128
 86.1666666667 130.666666667 56 184.666666667 56 248 c 128
 56 311.333333333 81 365.333333333 131 410 c 257
 81 454.666666667 56 508.666666667 56 572 c 257
 56 607.333333333 66 640.666666667 86 672 c 257
603 671 m 257
 359 667 l 257
 316.333333333 667 280.333333333 657.833333333 251 639.5 c 128
 221.666666667 621.166666667 207 598.666666667 207 572 c 257
 207 547.333333333 216 526.166666667 234 508.5 c 128
 252 490.833333333 274.333333333 480.666666667 301 478 c 257
 308 478 308 478 314 478 c 128
 320 478 320 478 326 478 c 257
 333 479 333 479 340 480 c 257
 340 477 l 257
 340 344 l 257
 340 341 l 257
 333 342 333 342 326 343 c 257
 320 343 320 343 314 343 c 128
 308 343 308 343 301 343 c 257
 274.333333333 340.333333333 252 330 234 312 c 128
 216 294 207 272.666666667 207 248 c 257
 207 222 222.333333333 199.833333333 253 181.5 c 128
 283.666666667 163.166666667 321 154 365 154 c 257
 606 160 l 257
 603 671 l 257
EndSplineSet
EndChar

StartChar: u0999
Encoding: 1396 2457 1396
GlifName: u0999
Width: 521
VWidth: 0
GlyphClass: 2
Flags: HW
LayerCount: 2
Fore
SplineSet
-40 700 m 257
 80 796 l 257
 262 691 l 257
 264.666666667 721.666666667 277.333333333 748 300 770 c 128
 322.666666667 792 349.666666667 804.333333333 381 807 c 257
 388 807 l 257
 390 807 l 257
 392 807 l 257
 428 807 458.5 794.5 483.5 769.5 c 128
 508.5 744.5 521 714 521 678 c 257
 521 656.666666667 508 632.833333333 482 606.5 c 128
 456 580.166666667 430.333333333 560 405 546 c 257
 353 448 l 257
 377.666666667 434 394.166666667 424.666666667 402.5 420 c 128
 410.833333333 415.333333333 425 405.833333333 445 391.5 c 128
 465 377.166666667 478.833333333 364.833333333 486.5 354.5 c 128
 494.166666667 344.166666667 501.833333333 330.5 509.5 313.5 c 128
 517.166666667 296.5 520.666666667 278.666666667 520 260 c 257
 518 187.333333333 492 126.333333333 442 77 c 128
 392 27.6666666667 331 3 259 3 c 257
 217.666666667 3 180.666666667 10.3333333333 148 25 c 128
 115.333333333 39.6666666667 88.8333333333 59.3333333333 68.5 84 c 128
 48.1666666667 108.666666667 32.6666666667 136.166666667 22 166.5 c 128
 11.3333333333 196.833333333 6 228.333333333 6 261 c 257
 151 261 l 257
 151 260 l 257
 151 230 161.333333333 205 182 185 c 128
 202.666666667 165 228.666666667 154.666666667 260 154 c 257
 291.333333333 154.666666667 317.333333333 165 338 185 c 128
 358.666666667 205 369 230 369 260 c 257
 369 288 360.166666667 311.833333333 342.5 331.5 c 128
 324.833333333 351.166666667 302 362.666666667 274 366 c 257
 259 366 l 257
 268 518 l 257
 268 518 l 257
 277 544 l 257
 271 567 l 257
 261 572.333333333 252 579 244 587 c 257
 -40 700 l 257
379 730 m 257
 379 731 l 257
 379 731 l 257
 366.333333333 728.333333333 356.166666667 722.166666667 348.5 712.5 c 128
 340.833333333 702.833333333 337 691.333333333 337 678 c 257
 337 659.333333333 344 645 358 635 c 257
 367 630 l 257
 371 628 375 626.666666667 379 626 c 257
 379 627 l 257
 384.333333333 625.666666667 388.333333333 625 391 625 c 128
 393.666666667 625 397.666666667 625.666666667 403 627 c 257
 403 626 l 257
 415.666666667 628.666666667 425.833333333 634.833333333 433.5 644.5 c 128
 441.166666667 654.166666667 445 665.333333333 445 678 c 257
 445 691.333333333 441.166666667 702.833333333 433.5 712.5 c 128
 425.833333333 722.166666667 415.666666667 728.333333333 403 731 c 257
 403 730 l 257
 397.666666667 731.333333333 393.666666667 732 391 732 c 128
 388.333333333 732 384.333333333 731.333333333 379 730 c 257
EndSplineSet
EndChar

StartChar: u099A
Encoding: 1400 2458 1400
GlifName: u099A_
Width: 530
VWidth: 0
GlyphClass: 2
Flags: HW
LayerCount: 2
Fore
SplineSet
202 158 m 257
 210 156 218 155 226 155 c 257
 256 155 281.333333333 165.166666667 302 185.5 c 128
 322.666666667 205.833333333 333 231 333 261 c 257
 333 291 322.666666667 316.333333333 302 337 c 128
 281.333333333 357.666666667 256 368 226 368 c 257
 218 368 210 367 202 365 c 257
 202 158 l 257
530 803 m 257
 530 671 l 257
 202 671 l 257
 202 518 l 257
 207.333333333 518.666666667 215.333333333 519 226 519 c 257
 297.333333333 519 358.166666667 493.833333333 408.5 443.5 c 128
 458.833333333 393.166666667 484 332.333333333 484 261 c 257
 484 189.666666667 458.833333333 129 408.5 79 c 128
 358.166666667 29 297.333333333 4 226 4 c 257
 220 3.5 l 258
 216 3.16666666667 211.833333333 3 207.5 3 c 128
 203.166666667 3 197.5 3.16666666667 190.5 3.5 c 128
 183.5 3.83333333333 176.666666667 4.16666666667 170 4.5 c 128
 163.333333333 4.83333333333 156.166666667 5.66666666667 148.5 7 c 128
 140.833333333 8.33333333333 133.666666667 10 127 12 c 128
 120.333333333 14 113.666666667 16.6666666667 107 20 c 128
 100.333333333 23.3333333333 94.3333333333 27.3333333333 89 32 c 257
 77.6666666667 41.3333333333 68.8333333333 56 62.5 76 c 128
 56.1666666667 96 52.3333333333 113.666666667 51 129 c 257
 50 153 l 257
 50 671 l 257
 0 671 l 257
 0 803 l 257
 530 803 l 257
EndSplineSet
EndChar

StartChar: u099B
Encoding: 1404 2459 1404
GlifName: u099B_
Width: 726
VWidth: 0
GlyphClass: 2
Flags: HW
LayerCount: 2
Fore
SplineSet
726 803 m 257
 726 671 l 257
 215 671 l 257
 215 571 l 257
 219 571.666666667 225.333333333 572 234 572 c 257
 268 572 299.833333333 564.333333333 329.5 549 c 128
 359.166666667 533.666666667 383.333333333 512.666666667 402 486 c 257
 413.333333333 487.333333333 424.666666667 488 436 488 c 257
 503.333333333 488 561 468.333333333 609 429 c 128
 657 389.666666667 681 342.333333333 681 287 c 257
 681 246.333333333 667.5 210.333333333 640.5 179 c 128
 613.5 147.666666667 577.666666667 124.666666667 533 110 c 257
 709 112 l 257
 709 34 l 257
 388 31 l 257
 389 182 l 257
 404.333333333 177.333333333 420 175 436 175 c 257
 477.333333333 175 512.166666667 185.333333333 540.5 206 c 128
 568.833333333 226.666666667 583 253.333333333 583 286 c 257
 583 318.666666667 568.666666667 346.833333333 540 370.5 c 128
 511.333333333 394.166666667 477 406 437 406 c 257
 439.666666667 392.666666667 441 379.333333333 441 366 c 257
 441 309.333333333 420.833333333 260.833333333 380.5 220.5 c 128
 340.166666667 180.166666667 291.333333333 160 234 160 c 257
 225.333333333 160 219 160.333333333 215 161 c 257
 93 161 l 257
 93 671 l 257
 0 671 l 257
 0 803 l 257
 726 803 l 257
215 283 m 257
 221.666666667 281.666666667 228 281 234 281 c 257
 258 281 278.333333333 289.166666667 295 305.5 c 128
 311.666666667 321.833333333 320 342 320 366 c 257
 320 390 311.666666667 410.166666667 295 426.5 c 128
 278.333333333 442.833333333 258 451 234 451 c 257
 228 451 221.666666667 450.333333333 215 449 c 257
 215 283 l 257
EndSplineSet
EndChar

StartChar: u099C
Encoding: 1408 2460 1408
GlifName: u099C_
Width: 996
VWidth: 0
GlyphClass: 2
Flags: HW
LayerCount: 2
Fore
SplineSet
996 803 m 257
 996 671 l 257
 441 671 l 257
 441 624.611 l 257
 990.7 628.5 l 257
 988.3 408.7 l 257
 969.433333333 414.233333333 949.966666667 416.9 929.9 416.7 c 256
 877.966666667 416.9 834.5 404.1 799.5 378.3 c 256
 764.5 352.766666667 746.9 319.433333333 746.7 278.3 c 256
 746.9 237.433333333 764.766666667 202.233333333 800.3 172.7 c 256
 836.1 143.566666667 879.3 128.9 929.9 128.7 c 256
 949.966666667 128.9 969.433333333 131.566666667 988.3 136.7 c 257
 988.3 30.2998 l 257
 969.433333333 27.4332666667 949.966666667 25.8333333333 929.9 25.5 c 256
 874.633333333 25.8333333333 823.433333333 37.0332 776.3 59.0996 c 256
 729.433333333 81.6998666667 692.366666667 112.233333333 665.1 150.7 c 256
 637.7 189.566666667 624.1 231.833333333 624.3 277.5 c 256
 624.1 328.5 640.9 373.433333333 674.7 412.3 c 256
 708.233333333 451.433333333 752.766666667 480.1 808.3 498.3 c 257
 441 496.766 l 257
 441 484 l 257
 481 461.333333333 512.833333333 430.166666667 536.5 390.5 c 128
 560.166666667 350.833333333 571.333333333 307.333333333 570 260 c 256
 568 187.333333333 542 126.333333333 492 77 c 128
 442 27.6666666667 381 3 309 3 c 256
 267.666666667 3 230.666666667 10.3333333333 198 25 c 128
 165.333333333 39.6666666667 138.833333333 59.3333333333 118.5 84 c 128
 98.1666666667 108.666666667 82.6666666667 136.166666667 72 166.5 c 128
 61.3333333333 196.833333333 56 228.333333333 56 261 c 257
 201 261 l 257
 201 260 l 258
 201 230 211.333333333 205 232 185 c 128
 252.666666667 165 278.666666667 154.666666667 310 154 c 256
 341.333333333 154.666666667 367.333333333 165 388 185 c 128
 408.666666667 205 419 230 419 260 c 256
 419 288 410.166666667 311.833333333 392.5 331.5 c 128
 374.833333333 351.166666667 352 362.666666667 324 366 c 257
 309 366 l 257
 309 518 l 257
 309 671 l 257
 0 671 l 257
 0 803 l 257
 996 803 l 257
EndSplineSet
EndChar

StartChar: u099D
Encoding: 1412 2461 1412
GlifName: u099D_
Width: 944
VWidth: 0
GlyphClass: 2
Flags: HW
LayerCount: 2
Fore
SplineSet
670 671 m 257
 670 284 l 257
 673 287 l 257
 749 211 l 257
 749 671 l 257
 670 671 l 257
944 803 m 257
 944 671 l 257
 901 671 l 257
 901 0 l 257
 749 0 l 257
 747 -2 l 257
 670 75 l 257
 670 1 l 257
 526 1 l 257
 526 0 l 257
 70 274 l 257
 70 426 l 257
 524 603 l 257
 524 671 l 257
 0 671 l 257
 0 803 l 257
 944 803 l 257
524 153 m 257
 524 454 l 257
 214 350 l 257
 524 153 l 257
EndSplineSet
EndChar

StartChar: u099E
Encoding: 1416 2462 1416
GlifName: u099E_
Width: 730
VWidth: 0
GlyphClass: 2
Flags: HW
LayerCount: 2
Fore
SplineSet
-37 318 m 257
 131 318 l 257
 113.666666667 297.333333333 105 274 105 248 c 257
 105 214.666666667 117 187.333333333 141 166 c 257
 408 166 l 257
 408 573 l 257
 386.666666667 597.666666667 359.666666667 610 327 610 c 257
 300.333333333 610 276.666666667 601.333333333 256 584 c 257
 256 752 l 257
 278.666666667 758 302.333333333 761 327 761 c 257
 382.333333333 761 431.5 745.333333333 474.5 714 c 128
 517.5 682.666666667 548.333333333 641.666666667 567 591 c 257
 585 600.333333333 599.666666667 605.666666667 611 607 c 257
 646.333333333 611.666666667 675.166666667 602.166666667 697.5 578.5 c 128
 719.833333333 554.833333333 730.666666667 523.666666667 730 485 c 257
 729.333333333 456.333333333 721 431 705 409 c 257
 721.666666667 386.333333333 730 361 730 333 c 257
 730 297 717.5 266.5 692.5 241.5 c 128
 667.5 216.5 637 204 601 204 c 257
 600.5 204 l 258
 600 204 600 204 599 204 c 257
 598 204 598 204 597 204 c 257
 594.333333333 204 592 204.333333333 590 205 c 257
 584.666666667 205 579.333333333 205.666666667 574 207 c 257
 575 -3 l 257
 408 -3 l 257
 408 0 l 257
 141 2 l 257
 85.6666666667 18 40.5 48.5 5.5 93.5 c 128
 -29.5 138.5 -47 190 -47 248 c 257
 -47 272.666666667 -43.6666666667 296 -37 318 c 257
573 286 m 257
 581 282 590 280 600 280 c 257
 616 280 629.166666667 285 639.5 295 c 128
 649.833333333 305 655 317.666666667 655 333 c 257
 655 345.666666667 651 356.833333333 643 366.5 c 128
 635 376.166666667 624.666666667 382.333333333 612 385 c 257
 600 432 l 257
 604 432 608 432.666666667 612 434 c 257
 612 433 l 257
 624.666666667 435.666666667 635 441.833333333 643 451.5 c 128
 651 461.166666667 655 472.333333333 655 485 c 257
 655 504.333333333 648.833333333 519.166666667 636.5 529.5 c 128
 624.166666667 539.833333333 608.333333333 544.666666667 589 544 c 257
 585.666666667 544 580 543.333333333 572 542 c 257
 573 286 l 257
EndSplineSet
EndChar

StartChar: u099F
Encoding: 1420 2463 1420
GlifName: u099F_
Width: 639
VWidth: 0
GlyphClass: 2
Flags: HW
LayerCount: 2
Fore
SplineSet
616 184 m 257
 605.333333333 145.333333333 585.166666667 112.166666667 555.5 84.5 c 128
 525.833333333 56.8333333333 492.333333333 36.5 455 23.5 c 128
 417.666666667 10.5 377.666666667 3.83333333333 335 3.5 c 128
 292.333333333 3.16666666667 252.166666667 9.33333333333 214.5 22 c 128
 176.833333333 34.6666666667 143.333333333 55 114 83 c 128
 84.6666666667 111 64.3333333333 144.666666667 53 184 c 257
 50 671 l 257
 0 671 l 257
 0 803 l 257
 252 803 l 257
 237 818 l 257
 221.666666667 833.333333333 210.166666667 858 202.5 892 c 128
 194.833333333 926 183.333333333 950.666666667 168 966 c 257
 157.333333333 976.666666667 141.833333333 985.666666667 121.5 993 c 128
 101.166666667 1000.33333333 83.3333333333 1005 68 1007 c 257
 45 1010 l 257
 134 1098 l 257
 140 1097.33333333 148 1096.5 158 1095.5 c 128
 168 1094.5 183.833333333 1090.5 205.5 1083.5 c 128
 227.166666667 1076.5 243.333333333 1067.66666667 254 1057 c 257
 269.333333333 1041.66666667 281.666666667 1016.33333333 291 981 c 128
 300.333333333 945.666666667 312.666666667 920.333333333 328 905 c 257
 360 873 360 873 391 842 c 257
 413 820 447.333333333 807 494 803 c 257
 639 803 l 257
 639 671 l 257
 217 671 l 257
 217 185 l 257
 236.333333333 163 275.666666667 151.833333333 335 151.5 c 128
 394.333333333 151.166666667 433.333333333 162.333333333 452 185 c 257
 452 373 l 257
 619 373 l 257
 616 184 l 257
EndSplineSet
EndChar

StartChar: u09A0
Encoding: 1424 2464 1424
GlifName: u09A_0
Width: 751
VWidth: 0
GlyphClass: 2
Flags: HW
LayerCount: 2
Fore
SplineSet
374 536 m 257
 374 536 l 257
726 803 m 257
 726 671 l 257
 615 671 l 257
 671 623 710.333333333 562.666666667 733 490 c 128
 755.666666667 417.333333333 757 343.333333333 737 268 c 257
 718.333333333 199.333333333 684.666666667 140.166666667 636 90.5 c 128
 587.333333333 40.8333333333 530.166666667 6.66666666667 464.5 -12 c 128
 398.833333333 -30.6666666667 332.666666667 -31 266 -13 c 257
 242 -6.33333333333 219 2.33333333333 197 13 c 257
 237 161 l 257
 233 168 l 257
 236 169 236 169 239 170 c 257
 240 173 l 257
 241.333333333 172.333333333 242.333333333 171.666666667 243 171 c 257
 247.666666667 173 252.333333333 175.333333333 257 178 c 257
 273 187.333333333 282.166666667 228 284.5 300 c 128
 286.833333333 372 284 444.833333333 276 518.5 c 128
 268 592.166666667 259 637.666666667 249 655 c 257
 245.666666667 661 242 666.333333333 238 671 c 257
 0 671 l 257
 0 803 l 257
 252 803 l 257
 237 818 l 257
 221.666666667 833.333333333 210.166666667 858 202.5 892 c 128
 194.833333333 926 183.333333333 950.666666667 168 966 c 257
 157.333333333 976.666666667 141.833333333 985.666666667 121.5 993 c 128
 101.166666667 1000.33333333 83.3333333333 1005 68 1007 c 257
 45 1010 l 257
 134 1098 l 257
 140 1097.33333333 148 1096.5 158 1095.5 c 128
 168 1094.5 183.833333333 1090.5 205.5 1083.5 c 128
 227.166666667 1076.5 243.333333333 1067.66666667 254 1057 c 257
 269.333333333 1041.66666667 281.666666667 1016.33333333 291 981 c 128
 300.333333333 945.666666667 312.666666667 920.333333333 328 905 c 257
 360 873 360 873 391 842 c 257
 413 820 447.333333333 807 494 803 c 257
 726 803 l 257
386 616 m 257
 396 596.666666667 405.666666667 564.333333333 415 519 c 128
 424.333333333 473.666666667 431.833333333 426.5 437.5 377.5 c 128
 443.166666667 328.5 445.5 281.666666667 444.5 237 c 128
 443.5 192.333333333 438.333333333 161.333333333 429 144 c 257
 467 155.333333333 500.5 175.5 529.5 204.5 c 128
 558.5 233.5 578.333333333 268.333333333 589 309 c 257
 597.666666667 341.666666667 584.166666667 397.5 548.5 476.5 c 128
 512.833333333 555.5 480.666666667 614 452 652 c 257
 386 616 l 257
EndSplineSet
EndChar

StartChar: u09A1
Encoding: 1428 2465 1428
GlifName: u09A_1
Width: 616
VWidth: 0
GlyphClass: 2
Flags: HW
LayerCount: 2
Fore
SplineSet
616 803 m 257
 616 671 l 257
 441 671 l 257
 441 484 l 257
 481 461.333333333 512.833333333 430.166666667 536.5 390.5 c 128
 560.166666667 350.833333333 571.333333333 307.333333333 570 260 c 257
 568 187.333333333 542 126.333333333 492 77 c 128
 442 27.6666666667 381 3 309 3 c 257
 267.666666667 3 230.666666667 10.3333333333 198 25 c 128
 165.333333333 39.6666666667 138.833333333 59.3333333333 118.5 84 c 128
 98.1666666667 108.666666667 82.6666666667 136.166666667 72 166.5 c 128
 61.3333333333 196.833333333 56 228.333333333 56 261 c 257
 201 261 l 257
 201 260 l 257
 201 230 211.333333333 205 232 185 c 128
 252.666666667 165 278.666666667 154.666666667 310 154 c 257
 341.333333333 154.666666667 367.333333333 165 388 185 c 128
 408.666666667 205 419 230 419 260 c 257
 419 288 410.166666667 311.833333333 392.5 331.5 c 128
 374.833333333 351.166666667 352 362.666666667 324 366 c 257
 309 366 l 257
 309 518 l 257
 309 518 l 257
 309 671 l 257
 0 671 l 257
 0 803 l 257
 616 803 l 257
EndSplineSet
EndChar

StartChar: u09A2
Encoding: 1432 2466 1432
GlifName: u09A_2
Width: 639
VWidth: 0
GlyphClass: 2
Flags: HW
LayerCount: 2
Fore
SplineSet
616 184 m 257
 605.333333333 145.333333333 585.166666667 112.166666667 555.5 84.5 c 128
 525.833333333 56.8333333333 492.333333333 36.5 455 23.5 c 128
 417.666666667 10.5 377.666666667 3.83333333333 335 3.5 c 128
 292.333333333 3.16666666667 252.166666667 9.33333333333 214.5 22 c 128
 176.833333333 34.6666666667 143.333333333 55 114 83 c 128
 84.6666666667 111 64.3333333333 144.666666667 53 184 c 257
 50 671 l 257
 0 671 l 257
 0 803 l 257
 639 803 l 257
 639 671 l 257
 217 671 l 257
 217 185 l 257
 236.333333333 163 275.666666667 151.833333333 335 151.5 c 128
 394.333333333 151.166666667 433.333333333 162.333333333 452 185 c 257
 452 373 l 257
 619 373 l 257
 616 184 l 257
EndSplineSet
EndChar

StartChar: u09A3
Encoding: 1436 2467 1436
GlifName: u09A_3
Width: 562
VWidth: 0
GlyphClass: 2
Flags: HW
LayerCount: 2
Fore
SplineSet
362 850 m 257
 514 850 l 257
 514 803 l 257
 562 803 l 257
 562 671 l 257
 514 671 l 257
 514 523 l 257
 514.666666667 513.666666667 515 504 515 494 c 257
 515 485.333333333 514.666666667 476.666666667 514 468 c 257
 514 -2 l 257
 362 -2 l 257
 362 468 l 257
 361 468 l 257
 361 469.333333333 361.333333333 470.333333333 362 471 c 257
 362 518 l 257
 356.666666667 542.666666667 344.333333333 562.833333333 325 578.5 c 128
 305.666666667 594.166666667 283 602 257 602 c 257
 227.666666667 602 202.666666667 591.5 182 570.5 c 128
 161.333333333 549.5 151 524 151 494 c 257
 151 485.333333333 152 476.666666667 154 468 c 257
 1 468 l 257
 0.333333333333 476.666666667 0 485.333333333 0 494 c 257
 0 566 25 627 75 677 c 128
 125 727 185.666666667 752 257 752 c 257
 293.666666667 752 328.666666667 745 362 731 c 257
 362 850 l 257
EndSplineSet
EndChar

StartChar: u09A4
Encoding: 1440 2468 1440
GlifName: u09a4
Width: 726
VWidth: 0
GlyphClass: 2
Flags: HW
LayerCount: 2
Fore
SplineSet
390 513 m 257
 396 634 l 257
 397 634 397 634 398 634 c 257
 482.666666667 634 554.833333333 603.333333333 614.5 542 c 128
 674.166666667 480.666666667 704 406.666666667 704 320 c 257
 704 232.666666667 674.166666667 158.333333333 614.5 97 c 128
 554.833333333 35.6666666667 482.666666667 5 398 5 c 128
 313.333333333 5 241.166666667 35.6666666667 181.5 97 c 128
 121.833333333 158.333333333 92 232.666666667 92 320 c 257
 148 325.5 l 258
 185.333333333 329.166666667 204 331.333333333 204 332 c 257
 204 329 204 329 204 326 c 257
 204 274 221.833333333 229.666666667 257.5 193 c 128
 293.166666667 156.333333333 336.333333333 138 387 138 c 128
 437.666666667 138 480.833333333 156.333333333 516.5 193 c 128
 552.166666667 229.666666667 570 274 570 326 c 257
 570 377.333333333 552.5 421.166666667 517.5 457.5 c 128
 482.5 493.833333333 440 512.333333333 390 513 c 257
726 803 m 257
 726 671 l 257
 0 671 l 257
 0 803 l 257
 726 803 l 257
EndSplineSet
EndChar

StartChar: u09A5
Encoding: 1444 2469 1444
GlifName: u09A_5
Width: 635
VWidth: 0
GlyphClass: 2
Flags: HW
LayerCount: 2
Fore
SplineSet
86 766 m 257
 93.3333333333 767.333333333 99.6666666667 768 105 768 c 257
 145 767.333333333 185.166666667 759.833333333 225.5 745.5 c 128
 265.833333333 731.166666667 301 709.166666667 331 679.5 c 128
 361 649.833333333 377.333333333 616.333333333 380 579 c 257
 381.333333333 553.666666667 377.333333333 529.5 368 506.5 c 128
 358.666666667 483.5 346.833333333 463.666666667 332.5 447 c 128
 318.166666667 430.333333333 299.5 413.166666667 276.5 395.5 c 128
 253.5 377.833333333 232.833333333 363.833333333 214.5 353.5 c 128
 196.166666667 343.166666667 174.166666667 330.666666667 148.5 316 c 128
 122.833333333 301.333333333 104 290.333333333 92 283 c 257
 436 167 l 257
 436 671 l 257
 436 777 l 257
 436 803 l 257
 635 803 l 257
 635 671 l 257
 582 671 l 257
 582 1 l 257
 436 1 l 257
 436 16 l 257
 0 197 l 257
 0 349 l 257
 94 413.666666667 168.333333333 470 223 518 c 257
 229 523.333333333 235.166666667 531 241.5 541 c 128
 247.833333333 551 252.666666667 560 256 568 c 257
 261 579 l 257
 261 593.666666667 251.166666667 606.333333333 231.5 617 c 128
 211.833333333 627.666666667 190.833333333 635.333333333 168.5 640 c 128
 146.166666667 644.666666667 125.666666667 647 107 647 c 257
 100.333333333 647 93.3333333333 646 86 644 c 257
 86 766 l 257
EndSplineSet
EndChar

StartChar: u09A6
Encoding: 1448 2470 1448
GlifName: u09A_6
Width: 726
VWidth: 0
GlyphClass: 2
Flags: HW
LayerCount: 2
Fore
SplineSet
662 582 m 257
 662 2 l 257
 510 2 l 257
 510 400 l 257
 244 114 l 257
 92 114 l 257
 91 671 l 257
 0 671 l 257
 0 803 l 257
 726 803 l 257
 726 671 l 257
 243 671 l 257
 244 296 l 257
 510 582 l 257
 662 582 l 257
EndSplineSet
EndChar

StartChar: u09A7
Encoding: 1452 2471 1452
GlifName: u09A_7
Width: 652
VWidth: 0
GlyphClass: 2
Flags: HW
LayerCount: 2
Fore
SplineSet
652 803 m 257
 652 671 l 257
 600 671 l 257
 600 1 l 257
 454 1 l 257
 454 3 l 257
 0 274 l 257
 0 426 l 257
 139 480 l 257
 107.666666667 516 92 558 92 606 c 257
 92 659.333333333 110.833333333 705 148.5 743 c 128
 186.166666667 781 232 800 286 800 c 257
 305 800 l 257
 305 684 l 257
 299 685.333333333 292.666666667 686 286 686 c 257
 263.333333333 686 244.166666667 678.166666667 228.5 662.5 c 128
 212.833333333 646.833333333 205 628 205 606 c 257
 205 587.333333333 210.5 571 221.5 557 c 128
 232.5 543 247 533.666666667 265 529 c 257
 454 603 l 257
 454 777 l 257
 454 803 l 257
 652 803 l 257
454 155 m 257
 454 454 l 257
 144 350 l 257
 454 155 l 257
EndSplineSet
EndChar

StartChar: u09A8
Encoding: 1456 2472 1456
GlifName: u09A_8
Width: 661
VWidth: 0
GlyphClass: 2
Flags: HW
LayerCount: 2
Fore
SplineSet
661 803 m 257
 661 671 l 257
 616 671 l 257
 616 123 l 257
 620 105.666666667 622 88 622 70 c 257
 622 60.6666666667 621.333333333 52 620 44 c 257
 616 44 l 257
 616 -2 l 257
 464 -2 l 257
 464 107 l 257
 456.666666667 127.666666667 443.833333333 144.333333333 425.5 157 c 128
 407.166666667 169.666666667 386.666666667 176 364 176 c 257
 334 176 308.833333333 165.666666667 288.5 145 c 128
 268.166666667 124.333333333 258 99.3333333333 258 70 c 257
 258 60.6666666667 259 52 261 44 c 257
 108 44 l 257
 106.666666667 52 106 60.6666666667 106 70 c 257
 106 141.333333333 131.166666667 202.166666667 181.5 252.5 c 128
 231.833333333 302.833333333 292.666666667 328 364 328 c 257
 398.666666667 328 432 321 464 307 c 257
 464 671 l 257
 0 671 l 257
 0 803 l 257
 464 803 l 257
 616 803 l 257
 661 803 l 257
EndSplineSet
EndChar

StartChar: u09AA
Encoding: 1460 2474 1460
GlifName: u09A_A_
Width: 569
VWidth: 0
GlyphClass: 2
Flags: HW
LayerCount: 2
Fore
SplineSet
175 576 m 257
 183.666666667 601.333333333 197.666666667 623.166666667 217 641.5 c 128
 236.333333333 659.833333333 258.666666667 672.666666667 284 680 c 257
 262.666666667 692 239 697.833333333 213 697.5 c 128
 187 697.166666667 162.666666667 690.333333333 140 677 c 257
 98 653 73.6666666667 617.333333333 67 570 c 257
 175 576 l 257
302 365 m 257
 294 367 294 367 286 369 c 257
 281.333333333 370.333333333 276.666666667 372.166666667 272 374.5 c 128
 267.333333333 376.833333333 262.833333333 379.833333333 258.5 383.5 c 128
 254.166666667 387.166666667 250.333333333 390.5 247 393.5 c 128
 243.666666667 396.5 240 400.666666667 236 406 c 128
 232 411.333333333 228.833333333 415.5 226.5 418.5 c 128
 224.166666667 421.5 221 426.5 217 433.5 c 128
 213 440.5 210.166666667 445.166666667 208.5 447.5 c 128
 206.833333333 449.833333333 204.166666667 454.5 200.5 461.5 c 128
 196.833333333 468.5 194.666666667 472.666666667 194 474 c 257
 93 467 l 257
 99 459 106 451.333333333 114 444 c 257
 26 394 l 257
 16 405.333333333 7 417.666666667 -1 431 c 257
 -33.6666666667 488.333333333 -40.8333333333 549.166666667 -22.5 613.5 c 128
 -4.16666666667 677.833333333 34.3333333333 727 93 761 c 257
 139 786.333333333 187 797.166666667 237 793.5 c 128
 287 789.833333333 331 772.666666667 369 742 c 257
 369 845 l 257
 521 845 l 257
 521 801 l 257
 569 801 l 257
 569 669 l 257
 521 669 l 257
 521 -4 l 257
 369 -4 l 257
 369 487 l 257
 367 485 l 257
 368 591 l 257
 361 587 l 257
 360 583 l 257
 358.666666667 583 357.333333333 583.333333333 356 584 c 257
 354 583 l 257
 354 584 354 584 354 585 c 257
 350.666666667 586.333333333 347.666666667 587.666666667 345 589 c 257
 327 593.666666667 310 591.5 294 582.5 c 128
 278 573.5 267.666666667 559.666666667 263 541 c 257
 258.333333333 523.666666667 260.5 507 269.5 491 c 128
 278.5 475 292 464.666666667 310 460 c 257
 315.333333333 458.666666667 320.666666667 458 326 458 c 257
 302 365 l 257
175 576 m 257
 175 576 l 257
EndSplineSet
EndChar

StartChar: u09AB
Encoding: 1464 2475 1464
GlifName: u09A_B_
Width: 1167
VWidth: 0
GlyphClass: 2
Flags: HW
LayerCount: 2
Fore
SplineSet
77 180 m 257
 108 327 l 257
 379 487 l 257
 118 671 l 257
 0 671 l 257
 0 803 l 257
 1167 803 l 257
 1167 671 l 257
 357 671 l 257
 540 569 l 257
 509 422 l 257
 302 262 l 257
 644 157 l 257
 644 323 l 257
 645 323 l 257
 645.666666667 393.666666667 671 453.833333333 721 503.5 c 128
 771 553.166666667 831.333333333 578 902 578 c 257
 973.333333333 578 1034.16666667 553 1084.5 503 c 128
 1134.83333333 453 1160 392 1160 320 c 257
 1160 311.333333333 1159.33333333 302.666666667 1158 294 c 257
 1005 294 l 257
 1007 302.666666667 1008 311.333333333 1008 320 c 257
 1008 350.666666667 997.666666667 376.333333333 977 397 c 128
 956.333333333 417.666666667 931.333333333 428 902 428 c 257
 872.666666667 428 847.666666667 417.833333333 827 397.5 c 128
 806.333333333 377.166666667 796 352.333333333 796 323 c 257
 796 310 l 257
 796.666666667 304.666666667 797.666666667 299.333333333 799 294 c 257
 796 294 l 257
 796 -2 l 257
 644 -2 l 257
 644 0 l 257
 77 180 l 257
EndSplineSet
EndChar

StartChar: u09AC
Encoding: 1468 2476 1468
GlifName: u09A_C_
Width: 723
VWidth: 0
GlyphClass: 2
Flags: HW
LayerCount: 2
Fore
SplineSet
723 803 m 257
 723 671 l 257
 670 671 l 257
 670 1 l 257
 524 1 l 257
 524 3 l 257
 70 274 l 257
 70 426 l 257
 524 603 l 257
 524 671 l 257
 0 671 l 257
 0 803 l 257
 723 803 l 257
524 155 m 257
 524 454 l 257
 214 350 l 257
 524 155 l 257
EndSplineSet
EndChar

StartChar: u09AD
Encoding: 1472 2477 1472
GlifName: u09A_D_
Width: 726
VWidth: 0
GlyphClass: 2
Flags: HW
LayerCount: 2
Fore
SplineSet
726 803 m 257
 726 671 l 257
 0 671 l 257
 0 803 l 257
 726 803 l 257
395 617 m 257
 396 634 l 257
 397 634 397 634 398 634 c 257
 432.666666667 634 466 628.333333333 498 617 c 257
 509 617 l 257
 509 613 l 257
 567 589.666666667 614 551.5 650 498.5 c 128
 686 445.5 704 386 704 320 c 257
 704 232.666666667 674.166666667 158.333333333 614.5 97 c 128
 554.833333333 35.6666666667 482.666666667 5 398 5 c 128
 313.333333333 5 241.166666667 35.6666666667 181.5 97 c 128
 121.833333333 158.333333333 92 232.666666667 92 320 c 257
 148 325.5 l 258
 185.333333333 329.166666667 204 331.333333333 204 332 c 257
 204 329 204 329 204 326 c 257
 204 274 221.833333333 229.666666667 257.5 193 c 128
 293.166666667 156.333333333 336.333333333 138 387 138 c 128
 437.666666667 138 480.833333333 156.333333333 516.5 193 c 128
 552.166666667 229.666666667 570 274 570 326 c 257
 570 360.666666667 561.5 392.5 544.5 421.5 c 128
 527.5 450.5 505 473.333333333 477 490 c 257
 459 463.333333333 436 442.333333333 408 427 c 128
 380 411.666666667 349.666666667 404 317 404 c 257
 263 404 217.166666667 422.833333333 179.5 460.5 c 128
 141.833333333 498.166666667 123 544 123 598 c 257
 123 617 l 257
 239 617 l 257
 237 611 236 604.666666667 236 598 c 257
 236 575.333333333 243.833333333 556.166666667 259.5 540.5 c 128
 275.166666667 524.833333333 294.333333333 517 317 517 c 257
 335 517 351 522.333333333 365 533 c 128
 379 543.666666667 388.333333333 557.666666667 393 575 c 257
 395 610 l 257
 394.333333333 612.666666667 393.666666667 615 393 617 c 257
 395 617 l 257
EndSplineSet
EndChar

StartChar: u09AE
Encoding: 1476 2478 1476
GlifName: u09A_E_
Width: 776
VWidth: 0
GlyphClass: 2
Flags: HW
LayerCount: 2
Fore
SplineSet
313 446 m 257
 313 446 l 257
776 803 m 257
 776 671 l 257
 755 671 l 257
 755 0 l 257
 603 0 l 257
 601 -2 l 257
 485 114 l 257
 461.666666667 80 431.333333333 53 394 33 c 128
 356.666666667 13 316.333333333 3 273 3 c 257
 272 3 272 3 271 3 c 258
 270 3 l 257
 269 3 l 257
 267 3 267 3 265 3 c 257
 259.666666667 3 255 3.33333333333 251 4 c 257
 183.666666667 8 126.833333333 34.6666666667 80.5 84 c 128
 34.1666666667 133.333333333 11 192 11 260 c 257
 11 299.333333333 19.1666666667 336 35.5 370 c 128
 51.8333333333 404 74.3333333333 433.333333333 103 458 c 257
 56.3333333333 524.666666667 54.3333333333 595.666666667 97 671 c 257
 0 671 l 257
 0 803 l 257
 776 803 l 257
271 367 m 257
 262.333333333 367 254.333333333 366 247 364 c 257
 247 365 l 257
 222.333333333 359.666666667 202 347.333333333 186 328 c 128
 170 308.666666667 162 286 162 260 c 257
 162 234.666666667 170 212.333333333 186 193 c 128
 202 173.666666667 222.333333333 161.333333333 247 156 c 257
 247 157 l 257
 254.333333333 155 262.333333333 154 271 154 c 257
 279 154 287 155 295 157 c 257
 295 156 l 257
 319.666666667 161.333333333 340 173.666666667 356 193 c 128
 372 212.333333333 380 234.666666667 380 260 c 257
 380 286 372 308.666666667 356 328 c 128
 340 347.333333333 319.666666667 359.666666667 295 365 c 257
 295 364 l 257
 287 366 279 367 271 367 c 257
603 195 m 257
 603 671 l 257
 356 671 l 257
 349.333333333 666.333333333 344.666666667 664.666666667 342 666 c 257
 338.666666667 668 335 669.666666667 331 671 c 257
 292 671 l 257
 274.666666667 663.666666667 254.666666667 641 232 603 c 257
 216 575.666666667 214.333333333 546.333333333 227 515 c 257
 235 516.333333333 243 517 251 517 c 257
 255 517.666666667 259.666666667 518 265 518 c 257
 267 518 267 518 269 518 c 257
 270 518 l 257
 271 518 271 518 273 518 c 257
 344.333333333 518 405.166666667 492.833333333 455.5 442.5 c 128
 505.833333333 392.166666667 531 331.333333333 531 260 c 257
 531 258 531 258 531 256 c 257
 603 195 l 257
EndSplineSet
EndChar

StartChar: u09AF
Encoding: 1480 2479 1480
GlifName: u09A_F_
Width: 841
VWidth: 0
GlyphClass: 2
Flags: HW
LayerCount: 2
Fore
SplineSet
77 180 m 257
 108 327 l 257
 379 487 l 257
 118 671 l 257
 0 671 l 257
 0 803 l 257
 644 803 l 257
 796 803 l 257
 841 803 l 257
 841 671 l 257
 796 671 l 257
 796 -2 l 257
 644 -2 l 257
 644 0 l 257
 77 180 l 257
644 157 m 257
 644 671 l 257
 357 671 l 257
 540 569 l 257
 509 422 l 257
 302 262 l 257
 644 157 l 257
EndSplineSet
EndChar

StartChar: u09B0
Encoding: 1484 2480 1484
GlifName: u09B_0
Width: 723
VWidth: 0
GlyphClass: 2
Flags: HW
LayerCount: 2
Fore
SplineSet
723 803 m 257
 723 671 l 257
 670 671 l 257
 670 1 l 257
 523 1 l 257
 523 3 l 257
 70 274 l 257
 70 426 l 257
 524 603 l 257
 524 671 l 257
 0 671 l 257
 0 803 l 257
 723 803 l 257
94 -2 m 257
 94 140 l 257
 246 140 l 257
 246 -2 l 257
 94 -2 l 257
523 155 m 257
 523 454 l 257
 214 350 l 257
 523 155 l 257
EndSplineSet
EndChar

StartChar: u09B2
Encoding: 1488 2482 1488
GlifName: u09B_2
Width: 943
VWidth: 0
GlyphClass: 2
Flags: HW
LayerCount: 2
Fore
SplineSet
943 803 m 257
 943 671 l 257
 895 671 l 257
 895 47 l 257
 895 45 895 45 895 44 c 257
 895 -2 l 257
 743 -2 l 257
 743 44 l 257
 742 44 l 257
 742.666666667 44.6666666667 743 45.3333333333 743 46 c 257
 743 93 l 257
 737.666666667 117.666666667 725.333333333 137.666666667 706 153 c 128
 686.666666667 168.333333333 664 176 638 176 c 257
 612.666666667 176 590.333333333 168.166666667 571 152.5 c 128
 551.666666667 136.833333333 539.666666667 116.666666667 535 92 c 257
 535.666666667 83.3333333333 536 74.6666666667 536 66 c 257
 536 59.3333333333 535.666666667 52.3333333333 535 45 c 257
 535 44.3333333333 535.333333333 44 536 44 c 257
 535 44 l 257
 535 42 535 42 535 40 c 257
 382 40 l 257
 382 41.3333333333 382.333333333 42.6666666667 383 44 c 257
 382.333333333 52.6666666667 382 61.3333333333 382 70 c 257
 382 80 382 80 382 91 c 257
 376.666666667 115 364.333333333 134.666666667 345 150 c 128
 325.666666667 165.333333333 303.333333333 173 278 173 c 257
 248.666666667 173 223.666666667 162.666666667 203 142 c 128
 182.333333333 121.333333333 172 96 172 66 c 257
 172 57.3333333333 173 48.6666666667 175 40 c 257
 22 40 l 257
 21.3333333333 48.6666666667 21 57.3333333333 21 66 c 257
 21 137.333333333 46 198.166666667 96 248.5 c 128
 146 298.833333333 206.666666667 324 278 324 c 257
 346 324 404.666666667 301 454 255 c 257
 500.666666667 303.666666667 558 328 626 328 c 257
 667.333333333 328 706.333333333 318.666666667 743 300 c 257
 743 671 l 257
 0 671 l 257
 0 803 l 257
 743 803 l 257
 895 803 l 257
 943 803 l 257
EndSplineSet
EndChar

StartChar: u09B6
Encoding: 1492 2486 1492
GlifName: u09B_6
Width: 592
VWidth: 0
GlyphClass: 2
Flags: HW
LayerCount: 2
Fore
SplineSet
-50 706 m 257
 -31 706 l 257
 18.3333333333 706 61.3333333333 689.833333333 98 657.5 c 128
 134.666666667 625.166666667 156 585.333333333 162 538 c 257
 167.333333333 585.333333333 188.333333333 625.166666667 225 657.5 c 128
 261.666666667 689.833333333 304.666666667 706 354 706 c 257
 373 706 l 257
 373 701 l 257
 392 684 l 257
 392 847 l 257
 544 847 l 257
 544 803 l 257
 592 803 l 257
 592 671 l 257
 544 671 l 257
 544 -2 l 257
 392 -2 l 257
 392 575 l 257
 373 594 l 257
 373 590 l 257
 367 591.333333333 360.666666667 592 354 592 c 257
 331.333333333 592 312.166666667 584.5 296.5 569.5 c 128
 280.833333333 554.5 273 535.833333333 273 513.5 c 128
 273 491.166666667 280.833333333 472 296.5 456 c 128
 312.166666667 440 331.333333333 432 354 432 c 257
 360.666666667 432 367 433.333333333 373 436 c 257
 373 320 l 257
 354 320 l 257
 304.666666667 320 261.666666667 336 225 368 c 128
 188.333333333 400 167.333333333 440.333333333 162 489 c 257
 156 440.333333333 134.666666667 400 98 368 c 128
 61.3333333333 336 18.3333333333 320 -31 320 c 257
 -50 320 l 257
 -50 436 l 257
 -44 433.333333333 -37.6666666667 432 -31 432 c 257
 -8.33333333333 432 10.8333333333 440 26.5 456 c 128
 42.1666666667 472 50 491.166666667 50 513.5 c 128
 50 535.833333333 42.1666666667 554.5 26.5 569.5 c 128
 10.8333333333 584.5 -8.33333333333 592 -31 592 c 257
 -37.6666666667 592 -44 591.333333333 -50 590 c 257
 -50 706 l 257
EndSplineSet
EndChar

StartChar: u09B7
Encoding: 1496 2487 1496
GlifName: u09B_7
Width: 841
VWidth: 0
GlyphClass: 2
Flags: HW
LayerCount: 2
Fore
SplineSet
644 671 m 257
 357 671 l 257
 644 529 l 257
 644 671 l 257
644 157 m 257
 644 382 l 257
 512 437 l 257
 302 262 l 257
 644 157 l 257
77 180 m 257
 108 327 l 257
 379 487 l 257
 118 671 l 257
 0 671 l 257
 0 803 l 257
 841 803 l 257
 841 671 l 257
 796 671 l 257
 796 -2 l 257
 644 -2 l 257
 644 0 l 257
 77 180 l 257
EndSplineSet
EndChar

StartChar: u09B8
Encoding: 1500 2488 1500
GlifName: u09B_8
Width: 776
VWidth: 0
GlyphClass: 2
Flags: HW
LayerCount: 2
Fore
SplineSet
55 95 m 257
 130 220 l 257
 138 213.333333333 145.333333333 208.333333333 152 205 c 257
 177.333333333 190.333333333 204 186.5 232 193.5 c 128
 260 200.5 281.666666667 216 297 240 c 257
 311.666666667 266 310.833333333 290.166666667 294.5 312.5 c 128
 278.166666667 334.833333333 255.666666667 348.333333333 227 353 c 257
 195 370.333333333 167.166666667 390 143.5 412 c 128
 119.833333333 434 100.833333333 458.333333333 86.5 485 c 128
 72.1666666667 511.666666667 65.6666666667 541 67 573 c 128
 68.3333333333 605 78.6666666667 637.666666667 98 671 c 257
 0 671 l 257
 0 803 l 257
 776 803 l 257
 776 671 l 257
 755 671 l 257
 755 0 l 257
 603 0 l 257
 601 -2 l 257
 429 170 l 257
 428 169 428 169 427 168 c 257
 392.333333333 109.333333333 340.833333333 71.5 272.5 54.5 c 128
 204.166666667 37.5 138.666666667 46 76 80 c 257
 74 82 70.5 84.5 65.5 87.5 c 128
 60.5 90.5 57 93 55 95 c 257
446 326 m 257
 446 328 l 257
 603 195 l 257
 603 671 l 257
 356 671 l 257
 349.333333333 666.333333333 344.666666667 664.666666667 342 666 c 257
 338.666666667 668 335 669.666666667 331 671 c 257
 292 671 l 257
 274.666666667 663.666666667 254.666666667 641 232 603 c 257
 215.333333333 575.666666667 213.833333333 545.666666667 227.5 513 c 128
 241.166666667 480.333333333 264 461.333333333 296 456 c 257
 374.666666667 414 424.666666667 370.666666667 446 326 c 257
EndSplineSet
EndChar

StartChar: u09B9
Encoding: 1504 2489 1504
GlifName: u09B_9
Width: 689
VWidth: 0
GlyphClass: 2
Flags: HW
LayerCount: 2
Fore
SplineSet
689 803 m 257
 689 671 l 257
 0 671 l 257
 0 803 l 257
 689 803 l 257
236 472 m 257
 128 578 l 257
 179.333333333 629.333333333 240.5 655.333333333 311.5 656 c 128
 382.5 656.666666667 443.666666667 631.333333333 495 580 c 257
 545.666666667 528.666666667 570.666666667 467.666666667 570 397 c 128
 569.333333333 326.333333333 543.333333333 265.333333333 492 214 c 257
 467.333333333 188.666666667 440.666666667 169.333333333 412 156 c 257
 593 -1 l 257
 434 -1 l 257
 226 153 l 257
 190.666666667 167.666666667 159 189 131 217 c 257
 233 320 l 257
 234 319 l 257
 255.333333333 297.666666667 280.333333333 287.166666667 309 287.5 c 128
 337.666666667 287.833333333 363.333333333 299 386 321 c 257
 408 343.666666667 419.166666667 369.333333333 419.5 398 c 128
 419.833333333 426.666666667 409.333333333 451.666666667 388 473 c 257
 366.666666667 494.333333333 341.666666667 505 313 505 c 128
 284.333333333 505 258.666666667 494 236 472 c 257
EndSplineSet
EndChar

StartChar: u09BC
Encoding: 1508 2492 1508
GlifName: u09B_C_
Width: 0
VWidth: 0
GlyphClass: 4
Flags: HW
LayerCount: 2
Fore
SplineSet
-510 -197 m 257
 -510 -55 l 257
 -358 -55 l 257
 -358 -197 l 257
 -510 -197 l 257
EndSplineSet
EndChar

StartChar: u09BD
Encoding: 1512 2493 1512
GlifName: u09B_D_
Width: 689
VWidth: 0
GlyphClass: 2
Flags: HW
LayerCount: 2
Fore
SplineSet
199 483 m 257
 199 467 l 257
 189 475 l 257
 188 474 188 474 186 472 c 257
 176.666666667 481.333333333 166 491.666666667 154 503 c 257
 -50 671 l 257
 -50 803 l 257
 158 633 l 257
 204.666666667 655 254.5 661.333333333 307.5 652 c 128
 360.5 642.666666667 406.333333333 618.666666667 445 580 c 257
 495.666666667 528.666666667 520.666666667 467.666666667 520 397 c 128
 519.333333333 326.333333333 493.333333333 265.333333333 442 214 c 257
 417.333333333 188.666666667 390.666666667 169.333333333 362 156 c 257
 543 -1 l 257
 384 -1 l 257
 176 153 l 257
 140.666666667 167.666666667 109 189 81 217 c 257
 183 320 l 257
 184 319 l 257
 205.333333333 297.666666667 230.333333333 287.166666667 259 287.5 c 128
 287.666666667 287.833333333 313.333333333 299 336 321 c 257
 358 343.666666667 369.166666667 369.333333333 369.5 398 c 128
 369.833333333 426.666666667 359.333333333 451.666666667 338 473 c 257
 318.666666667 492.333333333 296.166666667 502.833333333 270.5 504.5 c 128
 244.833333333 506.166666667 221 499 199 483 c 257
EndSplineSet
EndChar

StartChar: u09BE
Encoding: 1516 2494 1516
GlifName: u09B_E_
Width: 295
VWidth: 0
GlyphClass: 2
Flags: HW
LayerCount: 2
Fore
SplineSet
95 853 m 257
 247 853 l 257
 247 800 l 257
 295 800 l 257
 295 677 l 257
 247 677 l 257
 248 4 l 257
 96 4 l 257
 93 591 l 257
 0 678.434 l 257
 0 800 l 257
 95 694 l 257
 95 853 l 257
EndSplineSet
EndChar

StartChar: u09BF
Encoding: 1520 2495 1520
GlifName: u09B_F_
Width: 275
VWidth: 0
GlyphClass: 2
Flags: HW
LayerCount: 2
Fore
SplineSet
272 803 m 257
 272 671 l 257
 227 671 l 257
 227 -2 l 257
 75 -2 l 257
 75 671 l 257
 0 671 l 257
 0 803 l 257
 75 803 l 257
 77 803 l 257
 76.3333333333 810.333333333 76 817.666666667 76 825 c 257
 76 896.333333333 101 957.166666667 151 1007.5 c 128
 201 1057.83333333 261.666666667 1083 333 1083 c 128
 404.333333333 1083 465.166666667 1057.83333333 515.5 1007.5 c 128
 565.833333333 957.166666667 591 896.333333333 591 825 c 257
 591 816.333333333 590.666666667 807.666666667 590 799 c 257
 437 799 l 257
 439 807.666666667 440 816.333333333 440 825 c 257
 440 855 429.666666667 880.333333333 409 901 c 128
 388.333333333 921.666666667 363 932 333 932 c 257
 303.666666667 932 278.666666667 921.666666667 258 901 c 128
 237.333333333 880.333333333 227 855 227 825 c 257
 227 817.666666667 227.666666667 810.333333333 229 803 c 257
 272 803 l 257
EndSplineSet
EndChar

StartChar: u09C0
Encoding: 1524 2496 1524
GlifName: u09C_0
Width: 247
VWidth: 0
GlyphClass: 2
Flags: HW
LayerCount: 2
Fore
SplineSet
244 803 m 257
 244 671 l 257
 199 671 l 257
 199 -2 l 257
 47 -2 l 257
 47 671 l 257
 -3 671 l 257
 -3 803 l 257
 47 803 l 257
 48 803 l 257
 49.3333333333 811.666666667 50 821.333333333 50 832 c 257
 50 862 39.6666666667 887.333333333 19 908 c 128
 -1.66666666667 928.666666667 -27 939 -57 939 c 257
 -86.3333333333 939 -111.333333333 928.666666667 -132 908 c 128
 -152.666666667 887.333333333 -163 862 -163 832 c 257
 -163 823.333333333 -162 814.666666667 -160 806 c 257
 -313 806 l 257
 -313.666666667 814.666666667 -314 823.333333333 -314 832 c 257
 -314 903.333333333 -289 964.166666667 -239 1014.5 c 128
 -189 1064.83333333 -128.333333333 1090 -57 1090 c 128
 14.3333333333 1090 75.1666666667 1064.83333333 125.5 1014.5 c 128
 175.833333333 964.166666667 201 903.333333333 201 832 c 257
 201 821.333333333 200.666666667 811.666666667 200 803 c 257
 244 803 l 257
EndSplineSet
EndChar

